SplineFontDB: 3.0
FontName: OxygenSans-Book
FullName: OxygenSans Book
FamilyName: OxygenSans
Weight: Normal
Copyright: 
Version: 
ItalicAngle: 0
UnderlinePosition: 0
UnderlineWidth: 0
Ascent: 766
Descent: 234
UFOAscent: 881.348
UFODescent: -249.512
LayerCount: 2
Layer: 0 0 "Back"  1
Layer: 1 0 "Fore"  0
FSType: 0
OS2Version: 0
OS2_WeightWidthSlopeOnly: 0
OS2_UseTypoMetrics: 1
CreationTime: 1363987686
ModificationTime: 1368374417
PfmFamily: 17
TTFWeight: 400
TTFWidth: 5
LineGap: 0
VLineGap: 0
OS2TypoAscent: 766
OS2TypoAOffset: 0
OS2TypoDescent: -234
OS2TypoDOffset: 0
OS2TypoLinegap: 0
OS2WinAscent: 766
OS2WinAOffset: 0
OS2WinDescent: 234
OS2WinDOffset: 0
HheadAscent: 766
HheadAOffset: 0
HheadDescent: -234
HheadDOffset: 0
OS2Vendor: 'PfEd'
MarkAttachClasses: 1
DEI: 91125
Encoding: UnicodeBmp
Compacted: 1
UnicodeInterp: none
NameList: AGL For New Fonts
DisplaySize: -48
AntiAlias: 1
FitToEm: 1
WinInfo: 19 19 10
BeginPrivate: 7
BlueFuzz 1 0
BlueScale 9 0.0118875
BlueShift 1 1
BlueValues 22 [-4 2 149 152 194 202]
OtherBlues 9 [-64 -24]
StemSnapH 27 [3 23 26 27 28 29 30 32 34]
StemSnapV 22 [28 34 36 36 37 38 42]
EndPrivate
Grid
292.48046875 1299.8046875 m 0
 292.48046875 -700.1953125 l 0
EndSplineSet
BeginChars: 65538 579

StartChar: .notdef
Encoding: 65536 -1 0
Width: 464
VWidth: 0
Flags: W
HStem: 43 48<94 378> 425 47<94 378>
VStem: 47 47<91 425> 378 47<91 425>
LayerCount: 2
UndoRedoHistory
Layer: 0
Undoes
EndUndoes
Redoes
EndRedoes
EndUndoRedoHistory
UndoRedoHistory
Layer: 1
Undoes
EndUndoes
Redoes
EndRedoes
EndUndoRedoHistory
Fore
SplineSet
94 91 m 1
 378 91 l 1
 378 425 l 1
 94 425 l 1
 94 91 l 1
47 43 m 1
 47 472 l 1
 425 472 l 1
 425 43 l 1
 47 43 l 1
EndSplineSet
EndChar

StartChar: A
Encoding: 65 65 1
Width: 660
VWidth: 0
Flags: W
HStem: 0 21G<24 119.39 544.581 637> 653 50<320 343>
LayerCount: 2
UndoRedoHistory
Layer: 0
Undoes
EndUndoes
Redoes
EndRedoes
EndUndoRedoHistory
UndoRedoHistory
Layer: 1
Undoes
EndUndoes
Redoes
EndRedoes
EndUndoRedoHistory
Fore
SplineSet
24 0 m 1
 285 703 l 1
 376 703 l 1
 637 0 l 1
 552 0 l 1
 460 248 l 1
 495 225 l 1
 171 225 l 1
 204 249 l 1
 112 0 l 1
 24 0 l 1
207 259 m 1
 343 652 l 1
 320 653 l 1
 458 259 l 1
 478 284 l 1
 188 284 l 1
 207 259 l 1
EndSplineSet
EndChar

StartChar: B
Encoding: 66 66 13
Width: 670
VWidth: 0
Flags: W
HStem: 0 21G<101 450.5> 65 274<162 464> 400 239<162 445>
LayerCount: 2
UndoRedoHistory
Layer: 0
Undoes
EndUndoes
Redoes
EndRedoes
EndUndoRedoHistory
UndoRedoHistory
Layer: 1
Undoes
EndUndoes
Redoes
EndRedoes
EndUndoRedoHistory
Fore
SplineSet
101 0 m 1
 101 703 l 1
 324 703 l 2
 503 703 587 651 587 531 c 0
 587 447 552 389 431 359 c 1
 431 381 l 1
 544 362 615 306 615 199 c 0
 615 77 535 0 366 0 c 2
 101 0 l 1
162 65 m 1
 187 40 l 1
 187 363 l 1
 161 339 l 1
 326 339 l 2
 464 339 529 305 529 201 c 0
 529 104 476 65 353 65 c 2
 162 65 l 1
161 400 m 1
 187 379 l 1
 187 664 l 1
 162 639 l 1
 324 639 l 2
 447 639 505 616 505 521 c 0
 505 424 445 400 352 400 c 2
 161 400 l 1
EndSplineSet
EndChar

StartChar: C
Encoding: 67 67 14
Width: 639
VWidth: 0
Flags: W
HStem: -9 68<307.552 535.277> 645 67<302.504 527.35>
VStem: 67 86<226.293 483.572>
LayerCount: 2
UndoRedoHistory
Layer: 0
Undoes
EndUndoes
Redoes
EndRedoes
EndUndoRedoHistory
UndoRedoHistory
Layer: 1
Undoes
EndUndoes
Redoes
EndRedoes
EndUndoRedoHistory
Fore
SplineSet
406 -9 m 0
 208 -9 67 129 67 354 c 0
 67 568 199 712 402 712 c 0
 485 712 554 690 599 658 c 1
 570 602 l 1
 527 629 467 645 409 645 c 0
 248 645 153 525 153 351 c 0
 153 175 252 59 416 59 c 0
 493 59 550 86 574 97 c 1
 594 33 l 1
 568 20 501 -9 406 -9 c 0
EndSplineSet
EndChar

StartChar: D
Encoding: 68 68 21
Width: 750
VWidth: 0
Flags: W
HStem: 0 21G<101 430>
VStem: 187 412<162 558>
LayerCount: 2
UndoRedoHistory
Layer: 0
Undoes
EndUndoes
Redoes
EndRedoes
EndUndoRedoHistory
UndoRedoHistory
Layer: 1
Undoes
EndUndoes
Redoes
EndRedoes
EndUndoRedoHistory
Fore
SplineSet
187 37 m 1
 187 666 l 1
 159 639 l 1
 299 639 l 2
 489 639 599 558 599 351 c 0
 599 162 503 65 312 65 c 2
 159 65 l 1
 187 37 l 1
101 0 m 1
 101 703 l 1
 303 703 l 2
 529 703 685 598 685 354 c 0
 685 122 543 0 317 0 c 2
 101 0 l 1
EndSplineSet
EndChar

StartChar: Dcroat
Encoding: 272 272 23
Width: 742
VWidth: 0
Flags: W
HStem: 0 21<101 430> 339 44<30 283>
VStem: 187 412<162 558>
LayerCount: 2
UndoRedoHistory
Layer: 0
Undoes
EndUndoes
Redoes
EndRedoes
EndUndoRedoHistory
UndoRedoHistory
Layer: 1
Undoes
EndUndoes
Redoes
EndRedoes
EndUndoRedoHistory
Fore
SplineSet
30 339 m 1
 30 383 l 1
 283 383 l 1
 283 339 l 1
 30 339 l 1
EndSplineSet
Refer: 21 68 N 1 0 0 1 0 0 2
EndChar

StartChar: Delta
Encoding: 916 916 24
Width: 719
VWidth: 0
Flags: W
HStem: 0 69<166 563>
LayerCount: 2
UndoRedoHistory
Layer: 0
Undoes
EndUndoes
Redoes
EndRedoes
EndUndoRedoHistory
UndoRedoHistory
Layer: 1
Undoes
EndUndoes
Redoes
EndRedoes
EndUndoRedoHistory
Fore
SplineSet
60 0 m 1
 323 706 l 1
 404 706 l 1
 668 0 l 1
 60 0 l 1
166 69 m 1
 563 69 l 1
 363 623 l 1
 166 69 l 1
EndSplineSet
EndChar

StartChar: E
Encoding: 69 69 25
Width: 573
VWidth: 0
Flags: W
HStem: 0 65<187 527> 332 64<187 498> 639 64<187 528>
LayerCount: 2
UndoRedoHistory
Layer: 0
Undoes
EndUndoes
Redoes
EndRedoes
EndUndoRedoHistory
UndoRedoHistory
Layer: 1
Undoes
EndUndoes
Redoes
EndRedoes
EndUndoRedoHistory
Fore
SplineSet
101 0 m 1
 101 703 l 1
 531 703 l 1
 528 639 l 1
 160 639 l 1
 187 664 l 1
 187 371 l 1
 160 396 l 1
 498 396 l 1
 498 332 l 1
 160 332 l 1
 187 356 l 1
 187 39 l 1
 160 65 l 1
 533 65 l 1
 527 0 l 1
 101 0 l 1
EndSplineSet
EndChar

StartChar: Eng
Encoding: 330 330 34
Width: 667
VWidth: 0
Flags: W
HStem: -154 64<297.598 489.539> 0 21G<76.9718 144> 649 71<279.62 478.095>
VStem: 77 67<0 544.972 656.5 709> 529 67<-49.066 594.708>
LayerCount: 2
UndoRedoHistory
Layer: 0
Undoes
EndUndoes
Redoes
EndRedoes
EndUndoRedoHistory
UndoRedoHistory
Layer: 1
Undoes
EndUndoes
Redoes
EndRedoes
EndUndoRedoHistory
Fore
SplineSet
403 -154 m 0
 388 -154 363 -153 296 -147 c 1
 286 -85 l 1
 361 -89 365 -90 376 -90 c 0
 519 -90 529 -53 529 83 c 2
 529 479 l 2
 529 607 492 649 384 649 c 0
 270 649 190 584 144 517 c 1
 144 0 l 1
 77 0 l 1
 76 709 l 1
 138 709 l 1
 146 604 l 1
 240 703 324 720 408 720 c 0
 532 720 596 637 596 480 c 2
 596 79 l 2
 596 -66 572 -154 403 -154 c 0
EndSplineSet
EndChar

StartChar: Eth
Encoding: 208 208 37
Width: 743
VWidth: 0
Flags: W
HStem: 0 21<101 430> 333 55<30 321>
VStem: 187 412<162 558>
LayerCount: 2
UndoRedoHistory
Layer: 0
Undoes
EndUndoes
Redoes
EndRedoes
EndUndoRedoHistory
UndoRedoHistory
Layer: 1
Undoes
EndUndoes
Redoes
EndRedoes
EndUndoRedoHistory
Fore
SplineSet
321 388 m 1
 321 333 l 1
 30 333 l 1
 30 388 l 1
 321 388 l 1
EndSplineSet
Refer: 21 68 N 1 0 0 1 0 0 2
EndChar

StartChar: Euro
Encoding: 8364 8364 38
Width: 629
VWidth: 0
Flags: W
HStem: -9 68<304.281 533.563> 256 53<13 71 160 442> 395 51<16 70 159 446> 644 68<301.463 524.456>
VStem: 68 86<289.694 414.352>
LayerCount: 2
UndoRedoHistory
Layer: 0
Undoes
EndUndoes
Redoes
EndRedoes
EndUndoRedoHistory
UndoRedoHistory
Layer: 1
Undoes
EndUndoes
Redoes
EndRedoes
EndUndoRedoHistory
Fore
SplineSet
586 32 m 1
 547 11 488 -9 404 -9 c 0
 237 -9 104 91 72 276 c 1
 101 256 l 1
 9 256 l 1
 13 309 l 1
 96 309 l 1
 71 289 l 1
 70 304 68 339 68 354 c 0
 68 368 69 402 70 415 c 1
 96 395 l 1
 13 395 l 1
 16 446 l 1
 98 446 l 1
 71 424 l 1
 101 610 227 712 399 712 c 0
 482 712 551 690 596 658 c 1
 567 601 l 1
 524 628 465 644 407 644 c 0
 278 644 186 568 159 424 c 1
 130 446 l 1
 450 446 l 1
 446 395 l 1
 125 395 l 1
 157 415 l 1
 156 401 154 366 154 351 c 0
 154 337 156 303 157 289 c 1
 127 309 l 1
 446 309 l 1
 442 256 l 1
 133 256 l 1
 160 276 l 1
 188 134 279 59 416 59 c 0
 476 59 525 75 566 95 c 1
 586 32 l 1
EndSplineSet
EndChar

StartChar: F
Encoding: 70 70 39
Width: 539
VWidth: 0
Flags: W
HStem: 0 21G<101 188> 322 62<188 480> 637 66<188 505>
VStem: 101 87<0 322 384 637>
LayerCount: 2
UndoRedoHistory
Layer: 0
Undoes
EndUndoes
Redoes
EndRedoes
EndUndoRedoHistory
UndoRedoHistory
Layer: 1
Undoes
EndUndoes
Redoes
EndRedoes
EndUndoRedoHistory
Fore
SplineSet
101 0 m 1
 101 703 l 1
 510 703 l 1
 505 637 l 1
 152 637 l 1
 188 668 l 1
 188 359 l 1
 152 384 l 1
 480 384 l 1
 480 322 l 1
 156 322 l 1
 188 348 l 1
 188 0 l 1
 101 0 l 1
EndSplineSet
EndChar

StartChar: G
Encoding: 71 71 40
Width: 719
VWidth: 0
Flags: W
HStem: -9 68<296.855 571.855> 291 68<410 565> 645 67<312.162 543.199>
VStem: 66 87<213.603 476.695>
LayerCount: 2
UndoRedoHistory
Layer: 0
Undoes
EndUndoes
Redoes
EndRedoes
EndUndoRedoHistory
UndoRedoHistory
Layer: 1
Undoes
EndUndoes
Redoes
EndRedoes
EndUndoRedoHistory
Fore
SplineSet
401 -9 m 0
 182 -9 66 144 66 351 c 0
 66 560 202 712 416 712 c 0
 498 712 567 697 625 657 c 1
 604 593 l 1
 568 613 521 645 417 645 c 0
 250 645 153 519 153 351 c 0
 153 175 229 59 417 59 c 0
 501 59 563 77 591 89 c 1
 565 50 l 1
 565 319 l 1
 593 291 l 1
 406 291 l 1
 410 359 l 1
 645 359 l 1
 645 35 l 1
 573 7 497 -9 401 -9 c 0
EndSplineSet
EndChar

StartChar: Gamma
Encoding: 915 915 41
Width: 590
VWidth: 0
Flags: W
HStem: 0 21G<112 171> 661 46<171 525>
VStem: 112 59<0 662>
LayerCount: 2
UndoRedoHistory
Layer: 0
Undoes
EndUndoes
Redoes
EndRedoes
EndUndoRedoHistory
UndoRedoHistory
Layer: 1
Undoes
EndUndoes
Redoes
EndRedoes
EndUndoRedoHistory
Fore
SplineSet
112 0 m 1
 112 708 l 1
 528 707 l 1
 525 661 l 1
 151 662 l 1
 171 680 l 1
 171 0 l 1
 112 0 l 1
EndSplineSet
EndChar

StartChar: H
Encoding: 72 72 47
Width: 741
VWidth: 0
Flags: W
HStem: 0 21G<100 186 557 643>
VStem: 100 86<0 330 393 703> 557 86<0 330 393 703>
LayerCount: 2
UndoRedoHistory
Layer: 0
Undoes
EndUndoes
Redoes
EndRedoes
EndUndoRedoHistory
UndoRedoHistory
Layer: 1
Undoes
EndUndoes
Redoes
EndRedoes
EndUndoRedoHistory
Fore
SplineSet
100 0 m 1
 100 703 l 1
 186 703 l 1
 186 369 l 1
 154 393 l 1
 588 393 l 1
 557 369 l 1
 557 703 l 1
 643 703 l 1
 643 0 l 1
 557 0 l 1
 557 354 l 1
 589 330 l 1
 154 330 l 1
 186 354 l 1
 186 0 l 1
 100 0 l 1
EndSplineSet
EndChar

StartChar: Hbar
Encoding: 294 294 48
Width: 765
VWidth: 0
Flags: W
HStem: 0 21G<112 184 588 660> 332 67<184 588> 540 45<69 112 184 588 660 704>
VStem: 112 72<0 332 399 540 585 709> 588 72<0 332 399 540 585 709>
LayerCount: 2
UndoRedoHistory
Layer: 0
Undoes
EndUndoes
Redoes
EndRedoes
EndUndoRedoHistory
UndoRedoHistory
Layer: 1
Undoes
EndUndoes
Redoes
EndRedoes
EndUndoRedoHistory
Fore
SplineSet
112 0 m 1
 112 540 l 1
 69 540 l 1
 69 585 l 1
 112 585 l 1
 112 709 l 1
 184 709 l 1
 184 585 l 1
 588 585 l 1
 588 709 l 1
 660 709 l 1
 660 585 l 1
 704 585 l 1
 704 540 l 1
 660 540 l 1
 660 0 l 1
 588 0 l 1
 588 332 l 1
 184 332 l 1
 184 0 l 1
 112 0 l 1
184 399 m 1
 588 399 l 1
 588 540 l 1
 184 540 l 1
 184 399 l 1
EndSplineSet
EndChar

StartChar: I
Encoding: 73 73 50
Width: 385
VWidth: 0
Flags: W
HStem: 0 52<57 150 236 329> 651 52<57 150 236 329>
VStem: 57 272<0 52 651 703>
LayerCount: 2
UndoRedoHistory
Layer: 0
Undoes
EndUndoes
Redoes
EndRedoes
EndUndoRedoHistory
UndoRedoHistory
Layer: 1
Undoes
EndUndoes
Redoes
EndRedoes
EndUndoRedoHistory
Fore
SplineSet
57 703 m 1
 329 703 l 1
 329 651 l 1
 210 651 l 1
 236 673 l 1
 236 27 l 1
 208 52 l 1
 329 52 l 1
 329 0 l 1
 57 0 l 1
 57 52 l 1
 176 52 l 1
 150 27 l 1
 150 673 l 1
 175 651 l 1
 57 651 l 1
 57 703 l 1
EndSplineSet
EndChar

StartChar: J
Encoding: 74 74 61
Width: 372
VWidth: 0
Flags: W
HStem: -82 69<5 137.122>
VStem: 186 86<37.5933 703>
LayerCount: 2
UndoRedoHistory
Layer: 0
Undoes
EndUndoes
Redoes
EndRedoes
EndUndoRedoHistory
UndoRedoHistory
Layer: 1
Undoes
EndUndoes
Redoes
EndRedoes
EndUndoRedoHistory
Fore
SplineSet
60 -82 m 2
 5 -82 l 1
 5 -13 l 1
 54 -13 l 2
 153 -13 186 38 186 132 c 2
 186 703 l 1
 272 703 l 1
 272 145 l 2
 272 -1 215 -82 60 -82 c 2
EndSplineSet
EndChar

StartChar: K
Encoding: 75 75 63
Width: 642
VWidth: 0
Flags: W
HStem: 0 21G<101 187 505.402 621>
VStem: 101 86<0 264 341 703>
LayerCount: 2
UndoRedoHistory
Layer: 0
Undoes
EndUndoes
Redoes
EndRedoes
EndUndoRedoHistory
UndoRedoHistory
Layer: 1
Undoes
EndUndoes
Redoes
EndRedoes
EndUndoRedoHistory
Fore
SplineSet
101 0 m 1
 101 703 l 1
 187 703 l 1
 187 336 l 1
 162 341 l 1
 506 703 l 1
 606 703 l 1
 295 371 l 1
 295 416 l 1
 621 0 l 1
 521 0 l 1
 234 368 l 1
 273 366 l 1
 163 264 l 1
 187 317 l 1
 187 0 l 1
 101 0 l 1
EndSplineSet
EndChar

StartChar: L
Encoding: 76 76 65
Width: 545
VWidth: 0
Flags: W
HStem: 0 65<187 514>
VStem: 101 86<65 703>
LayerCount: 2
UndoRedoHistory
Layer: 0
Undoes
EndUndoes
Redoes
EndRedoes
EndUndoRedoHistory
UndoRedoHistory
Layer: 1
Undoes
EndUndoes
Redoes
EndRedoes
EndUndoRedoHistory
Fore
SplineSet
101 0 m 1
 101 703 l 1
 187 703 l 1
 187 31 l 1
 152 65 l 1
 516 65 l 1
 514 0 l 1
 101 0 l 1
EndSplineSet
EndChar

StartChar: Lambda
Encoding: 923 923 67
Width: 719
VWidth: 0
Flags: W
HStem: 0 21G<60 153 576.871 668>
LayerCount: 2
UndoRedoHistory
Layer: 0
Undoes
EndUndoes
Redoes
EndRedoes
EndUndoRedoHistory
UndoRedoHistory
Layer: 1
Undoes
EndUndoes
Redoes
EndRedoes
EndUndoRedoHistory
Fore
SplineSet
60 0 m 1
 320 706 l 1
 407 706 l 1
 668 0 l 1
 584 0 l 1
 363 620 l 1
 146 0 l 1
 60 0 l 1
EndSplineSet
EndChar

StartChar: M
Encoding: 77 77 71
Width: 891
VWidth: 0
Flags: W
HStem: 0 21G<90 171.318 720.683 801>
VStem: 90 81<0 351.5> 104 74<351.5 637> 162 16<621.215 637> 714 73<351.5 637> 714 19<621.466 637> 721 80<0 351.5>
LayerCount: 2
UndoRedoHistory
Layer: 0
Undoes
EndUndoes
Redoes
EndRedoes
EndUndoRedoHistory
UndoRedoHistory
Layer: 1
Undoes
EndUndoes
Redoes
EndRedoes
EndUndoRedoHistory
Fore
SplineSet
90 0 m 1xc0
 104 703 l 1
 210 703 l 1
 464 130 l 1
 429 130 l 1
 685 703 l 1
 787 703 l 1xa8
 801 0 l 1
 721 0 l 1x82
 714 442 l 1
 714 637 l 1x88
 733 637 l 1
 482 80 l 1
 409 80 l 1
 162 637 l 1x94
 178 637 l 1
 178 440 l 1xa0
 171 0 l 1
 90 0 l 1xc0
EndSplineSet
EndChar

StartChar: N
Encoding: 78 78 73
Width: 767
VWidth: 0
Flags: W
HStem: 0 21G<101 180 565.304 667>
VStem: 101 79<0 600.375> 588 79<73 703>
LayerCount: 2
UndoRedoHistory
Layer: 0
Undoes
EndUndoes
Redoes
EndRedoes
EndUndoRedoHistory
UndoRedoHistory
Layer: 1
Undoes
EndUndoes
Redoes
EndRedoes
EndUndoRedoHistory
Fore
SplineSet
101 0 m 1
 101 703 l 1
 186 703 l 1
 615 73 l 1
 593 71 l 1
 588 307 l 1
 588 703 l 1
 667 703 l 1
 667 0 l 1
 579 0 l 1
 151 625 l 1
 172 633 l 1
 180 372 l 1
 180 0 l 1
 101 0 l 1
EndSplineSet
EndChar

StartChar: O
Encoding: 79 79 78
Width: 805
VWidth: 0
Flags: W
HStem: -9 68<291.873 514.664> 645 67<294.546 513.396>
VStem: 67 86<210.628 481.381> 653 86<211.022 483.784>
LayerCount: 2
UndoRedoHistory
Layer: 0
Undoes
EndUndoes
Redoes
EndRedoes
EndUndoRedoHistory
UndoRedoHistory
Layer: 1
Undoes
EndUndoes
Redoes
EndRedoes
EndUndoRedoHistory
Fore
SplineSet
403 59 m 0
 574 59 653 178 653 347 c 0
 653 523 571 645 404 645 c 0
 238 645 153 524 153 347 c 0
 153 178 232 59 403 59 c 0
404 -9 m 0
 186 -9 67 133 67 348 c 0
 67 569 191 712 405 712 c 0
 614 712 739 567 739 347 c 0
 739 136 620 -9 404 -9 c 0
EndSplineSet
EndChar

StartChar: OE
Encoding: 338 338 79
Width: 948
VWidth: 0
Flags: W
HStem: 195 21G<743.5 751.702> 514 126<387.901 480.627> 622 18<501.956 505.096>
VStem: 410 39<108.395 181.916> 690 27<473 534> 721 46<397 413>
LayerCount: 2
UndoRedoHistory
Layer: 0
Undoes
EndUndoes
Redoes
EndRedoes
EndUndoRedoHistory
UndoRedoHistory
Layer: 1
Undoes
EndUndoes
Redoes
EndRedoes
EndUndoRedoHistory
Fore
SplineSet
405 -12 m 1xdc
 253 -12 201 102 213 273 c 1
 218 419 308 514 440 514 c 0
 493 514 670 496 690 473 c 1
 693 534 l 1
 786 534 l 1
 781 559 l 1
 717 559 l 1
 717 397 l 1
 767 397 l 1
 767 413 l 1
 721 413 l 1
 724 242 l 1
 754 242 l 1
 750 195 l 1
 737 203 530 208 511 208 c 0
 453 208 410 194 410 133 c 1
 406 57 382 -12 405 -12 c 1xdc
406 55 m 1
 401 55 438 114 449 156 c 1
 449 196 471 622 511 622 c 1xbc
 506 642 482 650 449 640 c 1
 332 640 258 440 254 309 c 1
 245 166 275 57 406 55 c 1
EndSplineSet
EndChar

StartChar: Omega
Encoding: 937 937 88
Width: 780
VWidth: 0
Flags: W
HStem: -10 85<295.436 496.093> 625 85<296.599 494.93>
VStem: 58 108<222.739 475.994> 625 108<218.859 475.994>
LayerCount: 2
UndoRedoHistory
Layer: 0
Undoes
EndUndoes
Redoes
EndRedoes
EndUndoRedoHistory
UndoRedoHistory
Layer: 1
Undoes
EndUndoes
Redoes
EndRedoes
EndUndoRedoHistory
Fore
SplineSet
396 75 m 0
 547 75 625 190 625 348 c 0
 625 512 544 625 396 625 c 0
 248 625 166 512 166 348 c 0
 166 190 245 75 396 75 c 0
396 -10 m 0
 184 -10 58 129 58 348 c 0
 58 571 187 710 396 710 c 0
 603 710 733 571 733 348 c 0
 733 131 606 -10 396 -10 c 0
EndSplineSet
EndChar

StartChar: Oslash
Encoding: 216 216 89
Width: 794
VWidth: 0
Flags: W
HStem: -9 68<291.873 514.664> 645 67<294.546 513.396>
VStem: 67 86<210.628 481.381> 653 86<211.022 483.784>
LayerCount: 2
UndoRedoHistory
Layer: 0
Undoes
EndUndoes
Redoes
EndRedoes
EndUndoRedoHistory
UndoRedoHistory
Layer: 1
Undoes
EndUndoes
Redoes
EndRedoes
EndUndoRedoHistory
Fore
SplineSet
251 -111 m 1
 205 -95 l 1
 555 812 l 1
 605 793 l 1
 251 -111 l 1
EndSplineSet
Refer: 78 79 N 1 0 0 1 0 0 2
EndChar

StartChar: P
Encoding: 80 80 92
Width: 615
VWidth: 0
Flags: W
HStem: 0 21G<101 187> 335 368<187 474> 401 238<157 430>
VStem: 101 86<0 335>
LayerCount: 2
UndoRedoHistory
Layer: 0
Undoes
EndUndoes
Redoes
EndRedoes
EndUndoRedoHistory
UndoRedoHistory
Layer: 1
Undoes
EndUndoes
Redoes
EndRedoes
EndUndoRedoHistory
Fore
SplineSet
101 0 m 1xd0
 101 703 l 1
 342 703 l 2
 474 703 572 658 572 529 c 0
 572 405 506 335 341 335 c 2
 157 335 l 1
 187 361 l 1
 187 0 l 1
 101 0 l 1xd0
339 401 m 2xb0
 157 401 l 1
 187 377 l 1
 187 667 l 1
 157 639 l 1
 342 639 l 2
 430 639 486 612 486 528 c 0
 486 434 445 401 339 401 c 2xb0
EndSplineSet
EndChar

StartChar: Phi
Encoding: 934 934 93
Width: 802
VWidth: 0
Flags: W
HStem: 0 21G<363 445> 81 70<276.312 363 445 532.487> 572 70<270.899 363 445 538.319>
VStem: 59 87<270.153 460.193> 363 82<0 82.5242 151 572 640.502 706> 664 87<269.796 460.249>
LayerCount: 2
UndoRedoHistory
Layer: 0
Undoes
EndUndoes
Redoes
EndRedoes
EndUndoRedoHistory
UndoRedoHistory
Layer: 1
Undoes
EndUndoes
Redoes
EndRedoes
EndUndoRedoHistory
Fore
SplineSet
363 0 m 1
 363 81 l 1
 163 95 59 213 59 365 c 0
 59 520 170 628 363 642 c 1
 363 706 l 1
 445 706 l 1
 445 642 l 1
 641 629 751 520 751 365 c 0
 751 212 647 94 445 81 c 1
 445 0 l 1
 363 0 l 1
363 151 m 1
 363 572 l 1
 219 559 146 479 146 365 c 0
 146 255 213 165 363 151 c 1
445 151 m 1
 597 164 664 255 664 365 c 0
 664 479 591 559 445 572 c 1
 445 151 l 1
EndSplineSet
EndChar

StartChar: Pi
Encoding: 928 928 94
Width: 690
VWidth: 0
Flags: W
HStem: 0 21G<72 154 546 627> 636 70<154 546>
VStem: 72 82<0 636> 546 81<0 636>
LayerCount: 2
UndoRedoHistory
Layer: 0
Undoes
EndUndoes
Redoes
EndRedoes
EndUndoRedoHistory
UndoRedoHistory
Layer: 1
Undoes
EndUndoes
Redoes
EndRedoes
EndUndoRedoHistory
Fore
SplineSet
72 0 m 1
 72 706 l 1
 627 706 l 1
 627 0 l 1
 546 0 l 1
 546 636 l 1
 154 636 l 1
 154 0 l 1
 72 0 l 1
EndSplineSet
EndChar

StartChar: Q
Encoding: 81 81 95
Width: 805
VWidth: 0
Flags: W
HStem: -9 68<291.873 514.664> 645 67<294.546 513.396>
VStem: 67 86<210.628 481.381> 653 86<211.022 483.784>
LayerCount: 2
UndoRedoHistory
Layer: 0
Undoes
EndUndoes
Redoes
EndRedoes
EndUndoRedoHistory
UndoRedoHistory
Layer: 1
Undoes
EndUndoes
Redoes
EndRedoes
EndUndoRedoHistory
Fore
SplineSet
612 -210 m 1
 578 -178 503 -83 460 0 c 1
 530 14 l 1
 554 -36 617 -121 661 -166 c 1
 612 -210 l 1
EndSplineSet
Refer: 78 79 N 1 0 0 1 0 0 2
EndChar

StartChar: R
Encoding: 82 82 96
Width: 689
VWidth: 0
Flags: W
HStem: 0 21G<101 187 537.518 635> 396 243<157 493>
VStem: 101 86<0 334>
LayerCount: 2
UndoRedoHistory
Layer: 0
Undoes
EndUndoes
Redoes
EndRedoes
EndUndoRedoHistory
UndoRedoHistory
Layer: 1
Undoes
EndUndoes
Redoes
EndRedoes
EndUndoRedoHistory
Fore
SplineSet
101 0 m 1
 101 703 l 1
 387 703 l 2
 535 703 606 647 606 522 c 0
 606 412 554 361 463 341 c 1
 468 382 l 1
 523 250 l 1
 635 0 l 1
 546 0 l 1
 451 224 l 1
 391 361 l 1
 437 334 l 1
 157 334 l 1
 187 356 l 1
 187 0 l 1
 101 0 l 1
187 371 m 1
 187 666 l 1
 157 639 l 1
 389 639 l 2
 493 639 522 597 522 521 c 0
 522 431 497 396 374 396 c 2
 157 396 l 1
 187 371 l 1
EndSplineSet
EndChar

StartChar: S
Encoding: 83 83 100
Width: 590
VWidth: 0
Flags: W
HStem: -9 68<177.239 402.863> 645 67<211.097 417.335>
VStem: 80 79<466.68 598.877> 456 78<109.171 256.76>
LayerCount: 2
UndoRedoHistory
Layer: 0
Undoes
EndUndoes
Redoes
EndRedoes
EndUndoRedoHistory
UndoRedoHistory
Layer: 1
Undoes
EndUndoes
Redoes
EndRedoes
EndUndoRedoHistory
Fore
SplineSet
295 -9 m 0
 174 -9 107 34 72 59 c 1
 102 122 l 1
 147 89 210 59 298 59 c 0
 397 59 453 93 456 183 c 0
 458 253 429 280 340 314 c 1
 224 358 l 2
 135 392 80 433 80 530 c 0
 80 667 197 712 314 712 c 0
 394 712 468 682 509 653 c 1
 477 594 l 1
 453 607 392 645 312 645 c 0
 235 645 159 619 159 535 c 0
 159 474 182 453 249 427 c 2
 361 384 l 1
 463 345 539 305 534 184 c 0
 529 44 428 -9 295 -9 c 0
EndSplineSet
EndChar

StartChar: Sigma
Encoding: 931 931 106
Width: 558
VWidth: 0
Flags: W
HStem: 0 65<149 489> 330 65<149 461> 634 66<149 490>
VStem: 72 77<65 330 395 634>
LayerCount: 2
UndoRedoHistory
Layer: 0
Undoes
EndUndoes
Redoes
EndRedoes
EndUndoRedoHistory
UndoRedoHistory
Layer: 1
Undoes
EndUndoes
Redoes
EndRedoes
EndUndoRedoHistory
Fore
SplineSet
72 0 m 1
 72 700 l 1
 494 700 l 1
 490 634 l 1
 149 634 l 1
 149 395 l 1
 461 395 l 1
 461 330 l 1
 149 330 l 1
 149 65 l 1
 493 65 l 1
 489 0 l 1
 72 0 l 1
EndSplineSet
EndChar

StartChar: T
Encoding: 84 84 107
Width: 564
VWidth: 0
Flags: W
HStem: 0 21G<238 325> 638 65<27 238 325 538>
VStem: 238 87<0 638>
LayerCount: 2
UndoRedoHistory
Layer: 0
Undoes
EndUndoes
Redoes
EndRedoes
EndUndoRedoHistory
UndoRedoHistory
Layer: 1
Undoes
EndUndoes
Redoes
EndRedoes
EndUndoRedoHistory
Fore
SplineSet
238 0 m 1
 238 667 l 1
 265 638 l 1
 27 638 l 1
 27 703 l 1
 538 703 l 1
 538 638 l 1
 299 638 l 1
 325 667 l 1
 325 0 l 1
 238 0 l 1
EndSplineSet
EndChar

StartChar: U
Encoding: 85 85 112
Width: 724
VWidth: 0
Flags: W
HStem: -9 68<259.2 465.383>
VStem: 82 85<151.068 703> 558 86<151.068 703>
LayerCount: 2
UndoRedoHistory
Layer: 0
Undoes
EndUndoes
Redoes
EndRedoes
EndUndoRedoHistory
UndoRedoHistory
Layer: 1
Undoes
EndUndoes
Redoes
EndRedoes
EndUndoRedoHistory
Fore
SplineSet
363 -9 m 0
 174 -9 82 100 82 258 c 2
 82 703 l 1
 167 703 l 1
 167 260 l 2
 167 129 230 59 363 59 c 0
 491 59 558 129 558 260 c 2
 558 703 l 1
 644 703 l 1
 644 257 l 2
 644 103 551 -9 363 -9 c 0
EndSplineSet
EndChar

StartChar: V
Encoding: 86 86 125
Width: 670
VWidth: 0
Flags: W
HStem: 0 21G<290.518 380.482>
LayerCount: 2
UndoRedoHistory
Layer: 0
Undoes
EndUndoes
Redoes
EndRedoes
EndUndoRedoHistory
UndoRedoHistory
Layer: 1
Undoes
EndUndoes
Redoes
EndRedoes
EndUndoRedoHistory
Fore
SplineSet
298 0 m 1
 35 703 l 1
 124 703 l 1
 282 255 l 1
 351 62 l 1
 321 62 l 1
 390 257 l 1
 548 703 l 1
 636 703 l 1
 373 0 l 1
 298 0 l 1
EndSplineSet
EndChar

StartChar: W
Encoding: 87 87 126
Width: 1006
VWidth: 0
Flags: W
HStem: 0 21G<235.912 330.176 675.952 771.088>
LayerCount: 2
UndoRedoHistory
Layer: 0
Undoes
EndUndoes
Redoes
EndRedoes
EndUndoRedoHistory
UndoRedoHistory
Layer: 1
Undoes
EndUndoes
Redoes
EndRedoes
EndUndoRedoHistory
Fore
SplineSet
242 0 m 1
 28 703 l 1
 109 703 l 1
 295 74 l 1
 274 74 l 1
 462 688 l 1
 545 688 l 1
 733 75 l 1
 713 75 l 1
 896 703 l 1
 979 703 l 1
 765 0 l 1
 682 0 l 1
 493 625 l 1
 517 625 l 1
 324 0 l 1
 242 0 l 1
EndSplineSet
EndChar

StartChar: X
Encoding: 88 88 131
Width: 665
VWidth: 0
Flags: W
HStem: 0 21G<61 157.763 512.743 610>
LayerCount: 2
UndoRedoHistory
Layer: 0
Undoes
EndUndoes
Redoes
EndRedoes
EndUndoRedoHistory
UndoRedoHistory
Layer: 1
Undoes
EndUndoes
Redoes
EndRedoes
EndUndoRedoHistory
Fore
SplineSet
61 0 m 1
 294 363 l 1
 336 405 l 1
 521 703 l 1
 607 703 l 1
 377 341 l 1
 339 304 l 1
 145 0 l 1
 61 0 l 1
526 0 m 1
 60 703 l 1
 145 703 l 1
 610 0 l 1
 526 0 l 1
EndSplineSet
EndChar

StartChar: Y
Encoding: 89 89 132
Width: 610
VWidth: 0
Flags: W
HStem: 0 21G<271 354>
VStem: 271 24<242 265.625> 332 22<247 271.5>
LayerCount: 2
UndoRedoHistory
Layer: 0
Undoes
EndUndoes
Redoes
EndRedoes
EndUndoRedoHistory
UndoRedoHistory
Layer: 1
Undoes
EndUndoes
Redoes
EndRedoes
EndUndoRedoHistory
Fore
SplineSet
271 0 m 1
 271 323 l 1
 295 242 l 1
 29 703 l 1
 114 703 l 1
 327 330 l 1
 297 330 l 1
 498 703 l 1
 583 703 l 1
 332 247 l 1
 354 324 l 1
 354 0 l 1
 271 0 l 1
EndSplineSet
EndChar

StartChar: Z
Encoding: 90 90 137
Width: 597
VWidth: 0
Flags: W
HStem: 0 65<152 536> 639 64<89 456>
LayerCount: 2
UndoRedoHistory
Layer: 0
Undoes
EndUndoes
Redoes
EndRedoes
EndUndoRedoHistory
UndoRedoHistory
Layer: 1
Undoes
EndUndoes
Redoes
EndRedoes
EndUndoRedoHistory
Fore
SplineSet
73 0 m 1
 73 61 l 1
 456 663 l 1
 472 639 l 1
 89 639 l 1
 89 703 l 1
 533 703 l 1
 536 644 l 1
 152 37 l 1
 140 65 l 1
 540 65 l 1
 536 0 l 1
 73 0 l 1
EndSplineSet
EndChar

StartChar: a
Encoding: 97 97 141
Width: 552
VWidth: 0
Flags: W
HStem: -8 60<162.129 317.003> 0 21G<410.832 472> 254 53<188.781 392> 467 60<150.279 352.348>
VStem: 58 77<78.4144 210.413> 392 17<145.588 167> 414 58<0 44.1875>
LayerCount: 2
UndoRedoHistory
Layer: 0
Undoes
EndUndoes
Redoes
EndRedoes
EndUndoRedoHistory
UndoRedoHistory
Layer: 1
Undoes
EndUndoes
Redoes
EndRedoes
EndUndoRedoHistory
Fore
SplineSet
219 -8 m 0xbe
 126 -8 58 42 58 138 c 0
 58 249 131 304 295 307 c 1
 409 310 l 1
 392 292 l 1
 392 353 l 2
 392 427 353 467 273 467 c 0
 222 467 157 452 108 429 c 1
 86 485 l 1
 136 510 211 527 271 527 c 0
 389 527 472 479 472 341 c 2
 472 0 l 1
 414 0 l 1x7e
 398 101 l 1
 418 95 l 1
 363 14 285 -8 219 -8 c 0xbe
224 52 m 0xbe
 300 52 369 90 409 167 c 1
 392 115 l 1
 392 272 l 1
 407 256 l 1
 315 254 l 2
 170 252 135 214 135 139 c 0
 135 79 178 52 224 52 c 0xbe
EndSplineSet
EndChar

StartChar: acute
Encoding: 180 180 145
Width: 302
VWidth: 0
Flags: W
HStem: 585 183
VStem: 55 190
LayerCount: 2
UndoRedoHistory
Layer: 0
Undoes
EndUndoes
Redoes
EndRedoes
EndUndoRedoHistory
UndoRedoHistory
Layer: 1
Undoes
EndUndoes
Redoes
EndRedoes
EndUndoRedoHistory
Fore
SplineSet
55 585 m 1
 144 768 l 1
 245 768 l 1
 102 585 l 1
 55 585 l 1
EndSplineSet
EndChar

StartChar: ae
Encoding: 230 230 147
Width: 844
VWidth: 0
Flags: W
HStem: -8 61<157.704 319.757 530.53 732.261> 243 53<172.32 380 458 674.752> 468 61<147.268 345.257 534.557 700.573>
VStem: 55 76<79.4137 207.853> 380 78<133.369 242 296 377.382> 732 64<334.287 438.174>
LayerCount: 2
UndoRedoHistory
Layer: 0
Undoes
EndUndoes
Redoes
EndRedoes
EndUndoRedoHistory
UndoRedoHistory
Layer: 1
Undoes
EndUndoes
Redoes
EndRedoes
EndUndoRedoHistory
Fore
SplineSet
212 -8 m 0
 124 -8 55 43 55 147 c 0
 55 254 136 296 301 296 c 2
 380 296 l 1
 380 353 l 2
 380 426 352 467 270 468 c 1
 216 468 146 450 104 429 c 1
 80 484 l 1
 123 508 202 529 267 529 c 0
 355 529 422 494 432 410 c 1
 454 486 535 528 613 528 c 0
 740 528 796 454 796 381 c 0
 796 282 724 242 456 242 c 1
 461 106 525 51 621 51 c 0
 674 51 713 63 764 90 c 1
 788 38 l 1
 741 9 691 -9 613 -9 c 0
 530 -9 472 22 434 79 c 1
 392 31 296 -8 212 -8 c 0
223 53 m 0
 283 53 361 85 403 129 c 1
 390 159 381 205 381 243 c 1
 306 243 l 2
 169 243 131 211 131 148 c 0
 131 81 168 53 223 53 c 0
458 294 m 1
 653 294 732 315 732 381 c 0
 732 431 694 471 618 471 c 0
 531 471 469 407 458 294 c 1
EndSplineSet
EndChar

StartChar: ampersand
Encoding: 38 38 151
Width: 701
VWidth: 0
Flags: W
HStem: -9 63<224.524 435.584> 653 59<251.001 398.299>
VStem: 80 78<114.483 263.606> 141 72<485.252 619.108> 423 73<506.232 627.837>
LayerCount: 2
UndoRedoHistory
Layer: 0
Undoes
EndUndoes
Redoes
EndRedoes
EndUndoRedoHistory
UndoRedoHistory
Layer: 1
Undoes
EndUndoes
Redoes
EndRedoes
EndUndoRedoHistory
Fore
SplineSet
323 -9 m 0xd8
 166 -9 80 64 80 182 c 0xe8
 80 285 147 344 223 389 c 1
 171 445 141 498 141 560 c 0
 141 652 219 712 327 712 c 0
 426 712 496 660 496 564 c 0
 496 482 419 420 325 376 c 1
 526 151 l 1
 553 179 588 237 605 277 c 1
 661 241 l 1
 643 199 603 137 570 103 c 1
 651 20 l 1
 582 -9 l 1
 521 55 l 1
 459 9 422 -9 323 -9 c 0xd8
329 54 m 0
 399 54 433 68 477 104 c 1
 264 343 l 1
 202 307 158 255 158 186 c 0
 158 103 222 54 329 54 c 0
287 420 m 1
 356 453 423 504 423 566 c 0
 423 623 391 653 328 653 c 0
 267 653 213 621 213 565 c 0xd8
 213 517 232 472 287 420 c 1
EndSplineSet
EndChar

StartChar: approxequal
Encoding: 8776 8776 153
Width: 605
VWidth: 0
Flags: W
HStem: 202 21G<61 114.5> 203 54<358.75 470.334> 279 54<352.953 468.289> 290 55<141.931 261.504> 366 54<140.345 262.109>
LayerCount: 2
UndoRedoHistory
Layer: 0
Undoes
EndUndoes
Redoes
EndRedoes
EndUndoRedoHistory
UndoRedoHistory
Layer: 1
Undoes
EndUndoes
Redoes
EndRedoes
EndUndoRedoHistory
Fore
SplineSet
61 209 m 1x98
 74 295 120 345 196 345 c 0
 240 345 281 323 319 301 c 0
 357 280 390 257 420 257 c 0
 463 257 488 290 502 345 c 1
 549 338 l 1
 536 255 503 203 419 203 c 0x58
 381 203 342 219 287 253 c 1
 254 274 224 290 197 290 c 0
 148 290 122 256 107 202 c 1
 61 209 l 1x98
59 285 m 1
 107 279 l 1
 120 332 147 366 196 366 c 0
 223 366 253 351 286 330 c 0
 340 296 378 279 418 279 c 0
 500 279 533 331 547 414 c 1
 500 420 l 1
 486 364 461 333 418 333 c 0x28
 391 333 363 347 319 374 c 0
 274 402 239 420 197 420 c 0
 122 420 72 369 59 285 c 1
EndSplineSet
EndChar

StartChar: asciicircum
Encoding: 94 94 156
Width: 611
VWidth: 0
Flags: W
LayerCount: 2
UndoRedoHistory
Layer: 0
Undoes
EndUndoes
Redoes
EndRedoes
EndUndoRedoHistory
UndoRedoHistory
Layer: 1
Undoes
EndUndoes
Redoes
EndRedoes
EndUndoRedoHistory
Fore
SplineSet
74 283 m 1
 282 720 l 1
 327 720 l 1
 547 283 l 1
 484 283 l 1
 305 643 l 1
 135 283 l 1
 74 283 l 1
EndSplineSet
EndChar

StartChar: asciitilde
Encoding: 126 126 157
Width: 578
VWidth: 0
Flags: W
HStem: 247 62<329.272 461.398> 317 63<116.971 257.009>
LayerCount: 2
UndoRedoHistory
Layer: 0
Undoes
EndUndoes
Redoes
EndRedoes
EndUndoRedoHistory
UndoRedoHistory
Layer: 1
Undoes
EndUndoes
Redoes
EndRedoes
EndUndoRedoHistory
Fore
SplineSet
70 240 m 1
 50 286 l 1
 72 339 115 380 177 380 c 0
 216 380 243 368 292 347 c 1
 338 327 377 309 406 309 c 0
 446 309 485 344 504 385 c 1
 527 342 l 1
 503 283 465 247 405 247 c 0
 371 247 337 260 297 278 c 0
 246 300 209 317 175 317 c 0
 132 317 92 282 70 240 c 1
EndSplineSet
EndChar

StartChar: asterisk
Encoding: 42 42 158
Width: 570
VWidth: 0
Flags: W
LayerCount: 2
UndoRedoHistory
Layer: 0
Undoes
EndUndoes
Redoes
EndRedoes
EndUndoRedoHistory
UndoRedoHistory
Layer: 1
Undoes
EndUndoes
Redoes
EndRedoes
EndUndoRedoHistory
Fore
SplineSet
191 273 m 1
 125 315 l 1
 243 476 l 1
 68 516 l 1
 90 592 l 1
 262 519 l 1
 245 716 l 1
 326 716 l 1
 308 519 l 1
 481 592 l 1
 503 516 l 1
 326 476 l 1
 346 450 399 376 447 315 c 1
 418 296 410 292 381 273 c 1
 283 448 l 1
 191 273 l 1
EndSplineSet
EndChar

StartChar: at
Encoding: 64 64 159
Width: 966
VWidth: 0
Flags: W
HStem: -95 53<347.936 614.158> 107 51<391.342 505.356 650.503 757.289> 478 49<443.829 621.393> 668 55<380.01 629.751>
VStem: 81 64<166.805 426.949> 294 65<190.752 380.959> 827 58<248.774 481.071>
LayerCount: 2
UndoRedoHistory
Layer: 0
Undoes
EndUndoes
Redoes
EndRedoes
EndUndoRedoHistory
UndoRedoHistory
Layer: 1
Undoes
EndUndoes
Redoes
EndRedoes
EndUndoRedoHistory
Fore
SplineSet
473 -95 m 0
 237 -95 81 51 81 297 c 0
 81 542 258 723 506 723 c 0
 719 723 885 586 885 366 c 0
 885 198 785 112 700 112 c 0
 620 112 583 164 577 271 c 1
 601 271 l 1
 580 192 528 107 441 107 c 0
 347 107 294 176 294 280 c 0
 294 410 372 527 512 527 c 0
 560 527 621 514 664 496 c 1
 650 395 631 303 631 241 c 0
 631 195 654 158 699 158 c 0
 771 158 827 245 827 370 c 0
 827 540 702 668 504 668 c 0
 292 668 145 507 145 297 c 0
 145 89 275 -42 475 -42 c 0
 558 -42 638 -20 704 18 c 1
 724 -30 l 1
 660 -73 569 -95 473 -95 c 0
448 158 m 0
 524 158 555 240 569 339 c 0
 572 360 592 479 594 500 c 1
 622 460 l 1
 602 467 540 478 514 478 c 0
 418 478 359 381 359 280 c 0
 359 196 392 158 448 158 c 0
EndSplineSet
EndChar

StartChar: b
Encoding: 98 98 161
Width: 608
VWidth: 0
Flags: W
HStem: -9 62<242.973 400.53> 0 21G<84 151.642> 466 61<242.785 402.437>
VStem: 84 82<140.415 386.365 408 713> 84 66<0 85.2727> 471 82<134.837 385.939>
LayerCount: 2
UndoRedoHistory
Layer: 0
Undoes
EndUndoes
Redoes
EndRedoes
EndUndoRedoHistory
UndoRedoHistory
Layer: 1
Undoes
EndUndoes
Redoes
EndRedoes
EndUndoRedoHistory
Fore
SplineSet
330 -9 m 0xb4
 225 -9 161 71 138 130 c 1
 161 134 l 1
 150 0 l 1
 84 0 l 1x6c
 84 713 l 1
 166 719 l 1
 166 526 l 1
 165 405 l 1
 149 408 l 1
 180 475 249 527 333 527 c 0
 479 527 553 419 553 258 c 0
 553 97 474 -9 330 -9 c 0xb4
322 53 m 0xa4
 426 53 471 131 471 258 c 0
 471 381 431 466 326 466 c 0
 215 466 164 387 164 266 c 0
 164 124 225 53 322 53 c 0xa4
EndSplineSet
EndChar

StartChar: backslash
Encoding: 92 92 162
Width: 451
VWidth: 0
Flags: W
VStem: 62 329
LayerCount: 2
UndoRedoHistory
Layer: 0
Undoes
EndUndoes
Redoes
EndRedoes
EndUndoRedoHistory
UndoRedoHistory
Layer: 1
Undoes
EndUndoes
Redoes
EndRedoes
EndUndoRedoHistory
Fore
SplineSet
327 -21 m 1
 62 701 l 1
 125 701 l 1
 391 -21 l 1
 327 -21 l 1
EndSplineSet
EndChar

StartChar: bar
Encoding: 124 124 163
Width: 164
VWidth: 0
Flags: W
VStem: 54 61<-179 757>
LayerCount: 2
UndoRedoHistory
Layer: 0
Undoes
EndUndoes
Redoes
EndRedoes
EndUndoRedoHistory
UndoRedoHistory
Layer: 1
Undoes
EndUndoes
Redoes
EndRedoes
EndUndoRedoHistory
Fore
SplineSet
54 -179 m 1
 54 757 l 1
 115 757 l 1
 115 -179 l 1
 54 -179 l 1
EndSplineSet
EndChar

StartChar: braceleft
Encoding: 123 123 164
Width: 375
VWidth: 0
Flags: W
HStem: -134 58<245.842 311> 265 62<50 120.316> 669 60<243.398 311>
VStem: 152 67<-51.1056 230.755 360.086 644.203>
LayerCount: 2
UndoRedoHistory
Layer: 0
Undoes
EndUndoes
Redoes
EndRedoes
EndUndoRedoHistory
UndoRedoHistory
Layer: 1
Undoes
EndUndoes
Redoes
EndRedoes
EndUndoRedoHistory
Fore
SplineSet
311 -134 m 1
 197 -134 152 -76 152 31 c 2
 152 122 l 2
 152 205 142 264 50 265 c 1
 50 327 l 1
 141 327 152 386 152 469 c 2
 152 581 l 2
 152 676 207 729 311 729 c 1
 311 669 l 1
 242 668 219 640 219 557 c 2
 219 431 l 2
 219 358 196 319 132 294 c 1
 196 276 219 239 219 163 c 2
 219 37 l 2
 219 -44 241 -75 311 -76 c 1
 311 -134 l 1
EndSplineSet
EndChar

StartChar: braceright
Encoding: 125 125 165
Width: 375
VWidth: 0
Flags: W
HStem: -134 59<55 120.246> 268 61<245.825 315> 671 58<55 120.036>
VStem: 146 67<-50.0469 234.484 361.93 645.758>
LayerCount: 2
UndoRedoHistory
Layer: 0
Undoes
EndUndoes
Redoes
EndRedoes
EndUndoRedoHistory
UndoRedoHistory
Layer: 1
Undoes
EndUndoes
Redoes
EndRedoes
EndUndoRedoHistory
Fore
SplineSet
55 -134 m 1
 55 -75 l 1
 124 -74 146 -45 146 38 c 2
 146 164 l 2
 146 224 166 270 233 300 c 1
 169 320 146 377 146 432 c 2
 146 557 l 2
 146 638 125 670 55 671 c 1
 55 729 l 1
 169 729 213 671 213 563 c 2
 213 471 l 2
 213 388 222 330 315 329 c 1
 315 268 l 1
 225 268 213 208 213 125 c 2
 213 13 l 2
 213 -82 160 -134 55 -134 c 1
EndSplineSet
EndChar

StartChar: bracketleft
Encoding: 91 91 166
Width: 329
VWidth: 0
Flags: W
HStem: -122 58<165 306> 658 58<165 306>
VStem: 93 72<-64 658>
LayerCount: 2
UndoRedoHistory
Layer: 0
Undoes
EndUndoes
Redoes
EndRedoes
EndUndoRedoHistory
UndoRedoHistory
Layer: 1
Undoes
EndUndoes
Redoes
EndRedoes
EndUndoRedoHistory
Fore
SplineSet
93 -122 m 1
 93 716 l 1
 306 716 l 1
 306 658 l 1
 165 658 l 1
 165 -64 l 1
 306 -64 l 1
 306 -122 l 1
 93 -122 l 1
EndSplineSet
EndChar

StartChar: bracketright
Encoding: 93 93 167
Width: 330
VWidth: 0
Flags: W
HStem: -122 58<32 173> 658 58<32 173>
VStem: 173 71<-64 658>
LayerCount: 2
UndoRedoHistory
Layer: 0
Undoes
EndUndoes
Redoes
EndRedoes
EndUndoRedoHistory
UndoRedoHistory
Layer: 1
Undoes
EndUndoes
Redoes
EndRedoes
EndUndoRedoHistory
Fore
SplineSet
32 -122 m 1
 32 -64 l 1
 173 -64 l 1
 173 658 l 1
 32 658 l 1
 32 716 l 1
 244 716 l 1
 244 -122 l 1
 32 -122 l 1
EndSplineSet
EndChar

StartChar: breve
Encoding: 728 728 168
Width: 359
VWidth: 0
Flags: W
HStem: 622 48<128.833 229.241>
VStem: 65 50<684.016 736> 243 50<684.396 736>
LayerCount: 2
UndoRedoHistory
Layer: 0
Undoes
EndUndoes
Redoes
EndRedoes
EndUndoRedoHistory
UndoRedoHistory
Layer: 1
Undoes
EndUndoes
Redoes
EndRedoes
EndUndoRedoHistory
Fore
SplineSet
178 622 m 0
 117 622 65 655 65 736 c 1
 115 736 l 1
 115 689 145 670 178 670 c 0
 211 670 243 689 243 736 c 1
 293 736 l 1
 293 655 239 622 178 622 c 0
EndSplineSet
EndChar

StartChar: brokenbar
Encoding: 166 166 169
Width: 163
VWidth: 0
Flags: W
VStem: 54 60<-108 225 374 706>
LayerCount: 2
UndoRedoHistory
Layer: 0
Undoes
EndUndoes
Redoes
EndRedoes
EndUndoRedoHistory
UndoRedoHistory
Layer: 1
Undoes
EndUndoes
Redoes
EndRedoes
EndUndoRedoHistory
Fore
SplineSet
54 -108 m 1
 54 225 l 1
 114 225 l 1
 114 -108 l 1
 54 -108 l 1
54 374 m 1
 54 706 l 1
 114 706 l 1
 114 374 l 1
 54 374 l 1
EndSplineSet
EndChar

StartChar: bullet
Encoding: 8226 8226 170
Width: 405
VWidth: 0
Flags: W
HStem: 202 315<129.945 285.338>
VStem: 54 307<276.739 440.725>
LayerCount: 2
UndoRedoHistory
Layer: 0
Undoes
EndUndoes
Redoes
EndRedoes
EndUndoRedoHistory
UndoRedoHistory
Layer: 1
Undoes
EndUndoes
Redoes
EndRedoes
EndUndoRedoHistory
Fore
SplineSet
206 202 m 0
 126 202 54 257 54 357 c 0
 54 458 127 517 208 517 c 0
 288 517 361 460 361 360 c 0
 361 259 287 202 206 202 c 0
EndSplineSet
EndChar

StartChar: c
Encoding: 99 99 171
Width: 484
VWidth: 0
Flags: W
HStem: -9 62<228.519 407.173> 465 62<226.262 404.543>
VStem: 56 80<149.668 363.035>
LayerCount: 2
UndoRedoHistory
Layer: 0
Undoes
EndUndoes
Redoes
EndRedoes
EndUndoRedoHistory
UndoRedoHistory
Layer: 1
Undoes
EndUndoes
Redoes
EndRedoes
EndUndoRedoHistory
Fore
SplineSet
300 -9 m 0
 152 -9 56 101 56 256 c 0
 56 418 159 527 300 527 c 0
 378 527 426 501 439 492 c 1
 416 437 l 1
 411 440 371 465 309 465 c 0
 207 465 136 384 136 256 c 0
 136 142 195 54 310 53 c 0
 353 52 396 67 422 82 c 1
 437 26 l 1
 418 11 369 -9 300 -9 c 0
EndSplineSet
EndChar

StartChar: caron
Encoding: 711 711 173
Width: 378
VWidth: 0
Flags: W
HStem: 604 177
VStem: 51 264
LayerCount: 2
UndoRedoHistory
Layer: 0
Undoes
EndUndoes
Redoes
EndRedoes
EndUndoRedoHistory
UndoRedoHistory
Layer: 1
Undoes
EndUndoes
Redoes
EndRedoes
EndUndoRedoHistory
Fore
SplineSet
135 604 m 1
 51 781 l 1
 108 781 l 1
 179 651 l 1
 257 781 l 1
 315 781 l 1
 225 604 l 1
 135 604 l 1
EndSplineSet
EndChar

StartChar: cedilla
Encoding: 184 184 178
Width: 280
VWidth: 0
Flags: W
HStem: -187 188<104 126>
VStem: 61 84
LayerCount: 2
UndoRedoHistory
Layer: 0
Undoes
EndUndoes
Redoes
EndRedoes
EndUndoRedoHistory
UndoRedoHistory
Layer: 1
Undoes
EndUndoes
Redoes
EndRedoes
EndUndoRedoHistory
Fore
SplineSet
61 -187 m 1
 104 1 l 1
 145 1 l 1
 126 -187 l 1
 61 -187 l 1
EndSplineSet
EndChar

StartChar: cent
Encoding: 162 162 179
Width: 479
VWidth: 0
Flags: W
HStem: -9 62<228.519 407.173> 465 62<226.262 404.543>
VStem: 56 80<149.668 363.035> 273 40<-76 601>
LayerCount: 2
UndoRedoHistory
Layer: 0
Undoes
EndUndoes
Redoes
EndRedoes
EndUndoRedoHistory
UndoRedoHistory
Layer: 1
Undoes
EndUndoes
Redoes
EndRedoes
EndUndoRedoHistory
Fore
SplineSet
273 -76 m 1
 273 601 l 1
 313 601 l 1
 313 -76 l 1
 273 -76 l 1
EndSplineSet
Refer: 171 99 N 1 0 0 1 0 0 2
EndChar

StartChar: circumflex
Encoding: 710 710 180
Width: 378
VWidth: 0
Flags: W
HStem: 599 182
VStem: 53 261
LayerCount: 2
UndoRedoHistory
Layer: 0
Undoes
EndUndoes
Redoes
EndRedoes
EndUndoRedoHistory
UndoRedoHistory
Layer: 1
Undoes
EndUndoes
Redoes
EndRedoes
EndUndoRedoHistory
Fore
SplineSet
53 599 m 1
 141 781 l 1
 232 781 l 1
 314 599 l 1
 259 599 l 1
 184 733 l 1
 107 599 l 1
 53 599 l 1
EndSplineSet
EndChar

StartChar: colon
Encoding: 58 58 181
Width: 261
VWidth: 0
Flags: W
HStem: 0 100<87 175> 417 100<87 175>
VStem: 87 88<0 100 417 517>
LayerCount: 2
UndoRedoHistory
Layer: 0
Undoes
EndUndoes
Redoes
EndRedoes
EndUndoRedoHistory
UndoRedoHistory
Layer: 1
Undoes
EndUndoes
Redoes
EndRedoes
EndUndoRedoHistory
Fore
SplineSet
87 0 m 1
 87 100 l 1
 175 100 l 1
 175 0 l 1
 87 0 l 1
87 417 m 1
 87 517 l 1
 175 517 l 1
 175 417 l 1
 87 417 l 1
EndSplineSet
EndChar

StartChar: comma
Encoding: 44 44 182
Width: 234
VWidth: 0
Flags: W
HStem: -133 241<87 118.891>
VStem: 87 80<-4.97412 108>
LayerCount: 2
UndoRedoHistory
Layer: 0
Undoes
EndUndoes
Redoes
EndRedoes
EndUndoRedoHistory
UndoRedoHistory
Layer: 1
Undoes
EndUndoes
Redoes
EndRedoes
EndUndoRedoHistory
Fore
SplineSet
67 -133 m 1
 67 -133 87 72 87 108 c 1
 167 108 l 1
 167 88 l 1
 167 74 114 -133 114 -133 c 1
 67 -133 l 1
EndSplineSet
EndChar

StartChar: copyright
Encoding: 169 169 183
Width: 874
VWidth: 0
Flags: W
HStem: -14 43<322.003 550.436> 115 48<363.261 544.875> 178 20G<549 578.095> 562 48<362.94 532.421> 699 43<322.003 550.436>
VStem: 57 52<235.928 491.871> 207 61<262.497 461.153> 765 52<236.129 491.871>
LayerCount: 2
UndoRedoHistory
Layer: 0
Undoes
EndUndoes
Redoes
EndRedoes
EndUndoRedoHistory
UndoRedoHistory
Layer: 1
Undoes
EndUndoes
Redoes
EndRedoes
EndUndoRedoHistory
Fore
SplineSet
446 115 m 0
 317 115 207 217 207 362 c 0
 207 504 314 610 442 610 c 0
 492 610 542 595 586 565 c 1
 564 521 l 1
 527 549 480 562 444 562 c 0
 347 562 268 480 268 365 c 0
 268 240 347 163 448 163 c 0
 488 163 528 172 570 198 c 1
 587 156 l 1
 544 128 495 115 446 115 c 0
436 29 m 0
 603 29 765 146 765 364 c 0
 765 582 603 699 436 699 c 0
 269 699 109 582 109 364 c 0
 109 145 269 29 436 29 c 0
436 -14 m 0
 247 -14 57 115 57 364 c 0
 57 613 247 742 436 742 c 0
 626 742 817 613 817 364 c 0
 817 115 626 -14 436 -14 c 0
EndSplineSet
EndChar

StartChar: currency
Encoding: 164 164 184
Width: 625
VWidth: 0
Flags: W
HStem: 149 43<237.125 394.478> 499 43<236.972 393.503>
VStem: 119 48<262.615 427.423> 465 47<263.173 427.093>
LayerCount: 2
UndoRedoHistory
Layer: 0
Undoes
EndUndoes
Redoes
EndRedoes
EndUndoRedoHistory
UndoRedoHistory
Layer: 1
Undoes
EndUndoes
Redoes
EndRedoes
EndUndoRedoHistory
Fore
SplineSet
530 110 m 1
 442 193 l 1
 407 165 363 149 315 149 c 0
 266 149 224 164 189 193 c 1
 101 110 l 1
 70 142 l 1
 159 226 l 1
 133 261 119 301 119 345 c 0
 119 388 133 429 159 464 c 1
 70 549 l 1
 101 580 l 1
 188 498 l 1
 223 527 267 542 315 542 c 0
 363 542 407 526 442 497 c 1
 530 580 l 1
 560 548 l 1
 472 464 l 1
 498 428 512 387 512 345 c 0
 512 300 499 260 473 226 c 1
 560 142 l 1
 530 110 l 1
315 192 m 0
 407 192 465 262 465 345 c 0
 465 428 407 499 315 499 c 0
 224 499 167 428 167 345 c 0
 167 262 224 192 315 192 c 0
EndSplineSet
EndChar

StartChar: d
Encoding: 100 100 185
Width: 605
VWidth: 0
Flags: W
HStem: -9 62<208.343 368.091> 0 21G<452.346 521> 465 62<209.867 368.831>
VStem: 56 81<137.66 381.445> 443 78<136.545 377.405 398 713> 454 67<0 84.6364>
LayerCount: 2
UndoRedoHistory
Layer: 0
Undoes
EndUndoes
Redoes
EndRedoes
EndUndoRedoHistory
UndoRedoHistory
Layer: 1
Undoes
EndUndoes
Redoes
EndRedoes
EndUndoRedoHistory
Fore
SplineSet
278 -9 m 0xb8
 133 -9 56 98 56 262 c 0
 56 418 139 527 277 527 c 0
 387 527 431 465 462 398 c 1
 446 394 l 1
 440 552 l 1
 440 713 l 1
 521 719 l 1
 521 0 l 1
 454 0 l 1x74
 443 133 l 1
 463 131 l 1
 439 62 389 -9 278 -9 c 0xb8
285 53 m 0xb8
 396 53 443 132 443 253 c 0
 443 393 387 465 290 465 c 0
 187 465 137 389 137 261 c 0
 137 138 180 53 285 53 c 0xb8
EndSplineSet
EndChar

StartChar: dagger
Encoding: 8224 8224 186
Width: 444
VWidth: 0
Flags: W
HStem: 474 48<55 195 249 391>
VStem: 195 54<58 474 522 705>
LayerCount: 2
UndoRedoHistory
Layer: 0
Undoes
EndUndoes
Redoes
EndRedoes
EndUndoRedoHistory
UndoRedoHistory
Layer: 1
Undoes
EndUndoes
Redoes
EndRedoes
EndUndoRedoHistory
Fore
SplineSet
195 58 m 1
 195 474 l 1
 55 474 l 1
 55 522 l 1
 195 522 l 1
 195 705 l 1
 248 705 l 1
 248 522 l 1
 391 522 l 1
 391 474 l 1
 249 474 l 1
 249 58 l 1
 195 58 l 1
EndSplineSet
EndChar

StartChar: daggerdbl
Encoding: 8225 8225 187
Width: 478
VWidth: 0
Flags: W
HStem: 216 46<63 198 252 385> 473 47<63 198 252 385>
VStem: 198 54<39 216 262 473 520 704>
LayerCount: 2
UndoRedoHistory
Layer: 0
Undoes
EndUndoes
Redoes
EndRedoes
EndUndoRedoHistory
UndoRedoHistory
Layer: 1
Undoes
EndUndoes
Redoes
EndRedoes
EndUndoRedoHistory
Fore
SplineSet
385 216 m 1
 252 216 l 1
 252 39 l 1
 198 39 l 1
 198 216 l 1
 63 216 l 1
 63 262 l 1
 198 262 l 1
 198 473 l 1
 63 473 l 1
 63 520 l 1
 198 520 l 1
 198 704 l 1
 250 704 l 1
 250 520 l 1
 385 520 l 1
 385 473 l 1
 252 473 l 1
 252 262 l 1
 385 262 l 1
 385 216 l 1
EndSplineSet
EndChar

StartChar: dcroat
Encoding: 273 273 189
Width: 623
VWidth: 0
Flags: W
HStem: -9 62<208.343 368.091> 0 21<452.346 521> 465 62<209.867 368.831> 584 53<67 309>
VStem: 56 81<137.66 381.445> 443 78<136.545 377.405 398 713> 454 67<0 84.6364>
LayerCount: 2
UndoRedoHistory
Layer: 0
Undoes
EndUndoes
Redoes
EndRedoes
EndUndoRedoHistory
UndoRedoHistory
Layer: 1
Undoes
EndUndoes
Redoes
EndRedoes
EndUndoRedoHistory
Fore
SplineSet
67 584 m 1x38
 67 637 l 1
 309 637 l 1
 309 584 l 1
 67 584 l 1x38
EndSplineSet
Refer: 185 100 N 1 0 0 1 0 0 2
EndChar

StartChar: degree
Encoding: 176 176 190
Width: 395
VWidth: 0
Flags: W
HStem: 439 46<137.178 257.983> 673 46<137.667 259.446>
VStem: 51 53<518.937 640.482> 292 52<518.024 640.482>
LayerCount: 2
UndoRedoHistory
Layer: 0
Undoes
EndUndoes
Redoes
EndRedoes
EndUndoRedoHistory
UndoRedoHistory
Layer: 1
Undoes
EndUndoes
Redoes
EndRedoes
EndUndoRedoHistory
Fore
SplineSet
197 485 m 0
 249 485 292 524 292 580 c 0
 292 636 250 673 198 673 c 0
 147 673 104 636 104 580 c 0
 104 524 145 485 197 485 c 0
197 439 m 0
 120 439 51 497 51 580 c 0
 51 663 120 719 197 719 c 0
 275 719 344 663 344 580 c 0
 344 500 277 439 197 439 c 0
EndSplineSet
EndChar

StartChar: dieresis
Encoding: 168 168 191
Width: 360
VWidth: 0
Flags: W
HStem: 604 84<61 128 243 310>
VStem: 61 67<604 688> 243 67<604 688>
LayerCount: 2
UndoRedoHistory
Layer: 0
Undoes
EndUndoes
Redoes
EndRedoes
EndUndoRedoHistory
UndoRedoHistory
Layer: 1
Undoes
EndUndoes
Redoes
EndRedoes
EndUndoRedoHistory
Fore
SplineSet
61 604 m 1
 61 688 l 1
 128 688 l 1
 128 604 l 1
 61 604 l 1
243 604 m 1
 243 688 l 1
 310 688 l 1
 310 604 l 1
 243 604 l 1
EndSplineSet
EndChar

StartChar: divide
Encoding: 247 247 192
Width: 551
VWidth: 0
Flags: W
HStem: 16 98<226 319> 242 66<40 504> 425 96<226 320>
VStem: 226 93<16 114 425 521>
LayerCount: 2
UndoRedoHistory
Layer: 0
Undoes
EndUndoes
Redoes
EndRedoes
EndUndoRedoHistory
UndoRedoHistory
Layer: 1
Undoes
EndUndoes
Redoes
EndRedoes
EndUndoRedoHistory
Fore
SplineSet
226 16 m 1
 226 114 l 1
 319 114 l 1
 319 16 l 1
 226 16 l 1
40 242 m 1
 40 308 l 1
 504 308 l 1
 504 242 l 1
 40 242 l 1
226 425 m 1
 226 521 l 1
 320 521 l 1
 320 425 l 1
 226 425 l 1
EndSplineSet
EndChar

StartChar: dotaccent
Encoding: 729 729 193
Width: 178
VWidth: 0
Flags: W
HStem: 620 83<54 127>
VStem: 54 73<620 703>
LayerCount: 2
UndoRedoHistory
Layer: 0
Undoes
EndUndoes
Redoes
EndRedoes
EndUndoRedoHistory
UndoRedoHistory
Layer: 1
Undoes
EndUndoes
Redoes
EndRedoes
EndUndoRedoHistory
Fore
SplineSet
54 620 m 1
 54 703 l 1
 127 703 l 1
 127 620 l 1
 54 620 l 1
EndSplineSet
EndChar

StartChar: dotlessi
Encoding: 305 305 194
Width: 208
VWidth: 0
Flags: W
HStem: 0 21G<74 145>
VStem: 74 71<0 517>
LayerCount: 2
UndoRedoHistory
Layer: 0
Undoes
EndUndoes
Redoes
EndRedoes
EndUndoRedoHistory
UndoRedoHistory
Layer: 1
Undoes
EndUndoes
Redoes
EndRedoes
EndUndoRedoHistory
Fore
SplineSet
74 0 m 1
 74 517 l 1
 145 517 l 1
 145 0 l 1
 74 0 l 1
EndSplineSet
EndChar

StartChar: e
Encoding: 101 101 195
Width: 562
VWidth: 0
Flags: W
HStem: -9 61<227.348 438.616> 298 229<166 430> 298 169<211 391>
LayerCount: 2
UndoRedoHistory
Layer: 0
Undoes
EndUndoes
Redoes
EndRedoes
EndUndoRedoHistory
UndoRedoHistory
Layer: 1
Undoes
EndUndoes
Redoes
EndRedoes
EndUndoRedoHistory
Fore
SplineSet
307 -9 m 0xc0
 160 -9 56 90 56 256 c 0
 56 424 166 527 299 527 c 0
 430 527 506 432 506 287 c 0
 506 274 502 246 502 246 c 1
 114 246 l 1
 135 263 l 1
 135 114 215 52 316 52 c 0
 377 52 427 66 476 90 c 1
 493 36 l 1
 444 8 384 -9 307 -9 c 0xc0
137 280 m 1
 141 394 211 467 302 467 c 0
 391 467 434 402 434 277 c 1
 457 298 l 1
 114 298 l 1xa0
 137 280 l 1
EndSplineSet
EndChar

StartChar: eight
Encoding: 56 56 203
Width: 586
VWidth: 0
Flags: W
HStem: -9 62<198.064 392.775> 652 60<206.627 380.429>
VStem: 63 76<107.65 257.577> 78 78<462.695 604.778> 430 78<463.147 604.778> 447 76<103.203 255.778>
LayerCount: 2
UndoRedoHistory
Layer: 0
Undoes
EndUndoes
Redoes
EndRedoes
EndUndoRedoHistory
UndoRedoHistory
Layer: 1
Undoes
EndUndoes
Redoes
EndRedoes
EndUndoRedoHistory
Fore
SplineSet
293 -9 m 0xc4
 168 -9 63 51 63 175 c 0xe4
 63 273 118 336 212 368 c 1
 136 393 78 452 78 538 c 0
 78 649 169 712 294 712 c 0
 419 712 508 649 508 538 c 0xd8
 508 452 454 397 376 369 c 1
 465 340 523 266 523 175 c 0
 523 51 419 -9 293 -9 c 0xc4
293 53 m 0
 397 53 447 96 447 183 c 0
 447 265 381 318 293 337 c 1
 205 318 139 268 139 183 c 0
 139 100 192 53 293 53 c 0
293 394 m 1
 384 414 430 464 430 540 c 0
 430 609 376 652 293 652 c 0
 211 652 156 609 156 540 c 0xd8
 156 464 203 414 293 394 c 1
EndSplineSet
EndChar

StartChar: ellipsis
Encoding: 8230 8230 204
Width: 707
VWidth: 0
Flags: W
HStem: -6 126<70.781 167.219 305.781 402.219 540.258 637.219>
VStem: 56 126<8.60814 105.392> 291 126<8.60814 105.392> 525 127<8.60814 105.392>
LayerCount: 2
UndoRedoHistory
Layer: 0
Undoes
EndUndoes
Redoes
EndRedoes
EndUndoRedoHistory
UndoRedoHistory
Layer: 1
Undoes
EndUndoes
Redoes
EndRedoes
EndUndoRedoHistory
Fore
SplineSet
119 -6 m 0
 77 -6 56 26 56 57 c 0
 56 88 77 120 119 120 c 0
 161 120 182 88 182 57 c 0
 182 26 161 -6 119 -6 c 0
354 -6 m 0
 312 -6 291 26 291 57 c 0
 291 88 312 120 354 120 c 0
 396 120 417 88 417 57 c 0
 417 26 396 -6 354 -6 c 0
589 -6 m 0
 547 -6 525 26 525 57 c 0
 525 88 547 120 589 120 c 0
 631 120 652 88 652 57 c 0
 652 26 631 -6 589 -6 c 0
EndSplineSet
EndChar

StartChar: emdash
Encoding: 8212 8212 206
Width: 1150
VWidth: 0
Flags: W
HStem: 254 66<64 1096>
LayerCount: 2
UndoRedoHistory
Layer: 0
Undoes
EndUndoes
Redoes
EndRedoes
EndUndoRedoHistory
UndoRedoHistory
Layer: 1
Undoes
EndUndoes
Redoes
EndRedoes
EndUndoRedoHistory
Fore
SplineSet
64 254 m 1
 64 320 l 1
 1096 320 l 1
 1096 254 l 1
 64 254 l 1
EndSplineSet
EndChar

StartChar: endash
Encoding: 8211 8211 207
Width: 603
VWidth: 0
Flags: W
HStem: 254 66<58 548>
LayerCount: 2
UndoRedoHistory
Layer: 0
Undoes
EndUndoes
Redoes
EndRedoes
EndUndoRedoHistory
UndoRedoHistory
Layer: 1
Undoes
EndUndoes
Redoes
EndRedoes
EndUndoRedoHistory
Fore
SplineSet
58 254 m 1
 58 320 l 1
 548 320 l 1
 548 254 l 1
 58 254 l 1
EndSplineSet
EndChar

StartChar: eng
Encoding: 331 331 208
Width: 567
VWidth: 0
Flags: W
HStem: -138 73<307 395.155> 0 21G<81 162> 466 61<228.636 377.774>
VStem: 81 81<0 400.584> 81 70<457.111 517> 413 81<-48.6481 427.417>
LayerCount: 2
UndoRedoHistory
Layer: 0
Undoes
EndUndoes
Redoes
EndRedoes
EndUndoRedoHistory
UndoRedoHistory
Layer: 1
Undoes
EndUndoes
Redoes
EndRedoes
EndUndoRedoHistory
Fore
SplineSet
307 -138 m 1xec
 303 -65 l 1
 320 -65 l 2
 404 -65 413 -51 413 53 c 2
 413 325 l 2
 413 412 394 466 311 466 c 0
 219 466 181 417 166 354 c 1
 164 333 162 311 162 288 c 2
 162 0 l 1
 81 0 l 1xf4
 81 517 l 1
 151 517 l 1
 160 440 l 1
 197 499 251 527 325 527 c 0
 444 527 494 457 494 316 c 2
 494 79 l 2
 494 -65 475 -138 340 -138 c 2
 307 -138 l 1xec
EndSplineSet
EndChar

StartChar: eth
Encoding: 240 240 210
Width: 607
VWidth: 0
Flags: W
HStem: -13 61<221.412 392.361> 403 59<217.912 386.272>
VStem: 61 78<136.63 320.395> 472 72<129.418 318.943>
LayerCount: 2
UndoRedoHistory
Layer: 0
Undoes
EndUndoes
Redoes
EndRedoes
EndUndoRedoHistory
UndoRedoHistory
Layer: 1
Undoes
EndUndoes
Redoes
EndRedoes
EndUndoRedoHistory
Fore
SplineSet
303 -13 m 0
 145 -13 61 102 61 230 c 0
 61 369 158 462 295 462 c 0
 367 462 400 433 429 411 c 1
 403 459 355 523 266 609 c 1
 141 561 l 1
 118 613 l 1
 227 655 l 1
 122 753 l 1
 212 753 l 1
 288 679 l 1
 428 733 l 1
 452 681 l 1
 329 635 l 1
 423 536 471 474 503 412 c 0
 528 364 544 296 544 231 c 0
 544 93 465 -13 303 -13 c 0
306 48 m 0
 416 48 472 122 472 234 c 0
 472 321 412 403 303 403 c 0
 199 403 139 329 139 230 c 0
 139 137 193 48 306 48 c 0
EndSplineSet
EndChar

StartChar: exclam
Encoding: 33 33 211
Width: 274
VWidth: 0
Flags: W
HStem: -6 111<93.9366 184.82>
VStem: 83 112<4.59961 94.7168> 94 86<542.25 715>
LayerCount: 2
UndoRedoHistory
Layer: 0
Undoes
EndUndoes
Redoes
EndRedoes
EndUndoRedoHistory
UndoRedoHistory
Layer: 1
Undoes
EndUndoes
Redoes
EndRedoes
EndUndoRedoHistory
Fore
SplineSet
139 -6 m 0xc0
 100 -6 83 23 83 50 c 0
 83 77 100 105 139 105 c 0
 178 105 195 77 195 50 c 0
 195 22 178 -6 139 -6 c 0xc0
122 204 m 1
 94 655 l 1
 94 715 l 1
 180 715 l 1
 180 655 l 1xa0
 154 204 l 1
 122 204 l 1
EndSplineSet
EndChar

StartChar: f
Encoding: 102 102 213
Width: 369
VWidth: 0
Flags: W
HStem: 0 21G<131 212> 465 52<212 335> 465 43<40 111.909> 663 60<232.407 351.004>
VStem: 131 81<0 465 517 643.582>
LayerCount: 2
UndoRedoHistory
Layer: 0
Undoes
EndUndoes
Redoes
EndRedoes
EndUndoRedoHistory
UndoRedoHistory
Layer: 1
Undoes
EndUndoes
Redoes
EndRedoes
EndUndoRedoHistory
Fore
SplineSet
131 0 m 1xb8
 131 486 l 1
 148 465 l 1
 38 465 l 1
 40 508 l 1xb8
 153 519 l 1
 131 500 l 1
 131 549 l 2
 131 680 187 723 277 723 c 0
 313 723 345 716 355 714 c 1
 350 658 l 1
 345 659 314 663 292 663 c 0
 243 663 212 652 212 554 c 2
 212 500 l 1
 191 517 l 1
 335 517 l 1
 335 465 l 1xd8
 192 465 l 1
 212 484 l 1
 212 0 l 1
 131 0 l 1xb8
EndSplineSet
EndChar

StartChar: five
Encoding: 53 53 214
Width: 586
VWidth: 0
Flags: W
HStem: -10 65<163.231 361.824> 375 64<213.629 382.55> 639 64<199 490>
VStem: 444 82<135.502 312.849>
LayerCount: 2
UndoRedoHistory
Layer: 0
Undoes
EndUndoes
Redoes
EndRedoes
EndUndoRedoHistory
UndoRedoHistory
Layer: 1
Undoes
EndUndoes
Redoes
EndRedoes
EndUndoRedoHistory
Fore
SplineSet
275 -10 m 0
 198 -10 122 20 77 48 c 1
 104 106 l 1
 144 81 207 55 268 55 c 0
 370 55 444 115 444 223 c 0
 444 306 403 375 300 375 c 0
 252 375 203 355 173 323 c 1
 107 331 l 1
 130 703 l 1
 496 703 l 1
 490 639 l 1
 199 639 l 1
 182 400 l 1
 218 424 258 439 312 439 c 0
 450 439 526 342 526 224 c 0
 526 73 416 -10 275 -10 c 0
EndSplineSet
EndChar

StartChar: four
Encoding: 52 52 215
Width: 586
VWidth: 0
Flags: W
HStem: 0 21G<380 458> 180 62<137 380 458 539>
VStem: 380 78<0 180 242 603>
LayerCount: 2
UndoRedoHistory
Layer: 0
Undoes
EndUndoes
Redoes
EndRedoes
EndUndoRedoHistory
UndoRedoHistory
Layer: 1
Undoes
EndUndoes
Redoes
EndRedoes
EndUndoRedoHistory
Fore
SplineSet
380 0 m 1
 380 180 l 1
 56 180 l 1
 56 250 l 1
 375 703 l 1
 458 703 l 1
 458 242 l 1
 545 242 l 1
 539 180 l 1
 458 180 l 1
 458 0 l 1
 380 0 l 1
137 242 m 1
 380 242 l 1
 380 603 l 1
 137 242 l 1
EndSplineSet
EndChar

StartChar: fraction
Encoding: 8260 8260 216
Width: 556
VWidth: 0
Flags: W
HStem: 0 21G<62 139.217>
LayerCount: 2
UndoRedoHistory
Layer: 0
Undoes
EndUndoes
Redoes
EndRedoes
EndUndoRedoHistory
UndoRedoHistory
Layer: 1
Undoes
EndUndoes
Redoes
EndRedoes
EndUndoRedoHistory
Fore
SplineSet
62 0 m 1
 442 736 l 1
 505 736 l 1
 129 0 l 1
 62 0 l 1
EndSplineSet
EndChar

StartChar: g
Encoding: 103 103 217
Width: 612
VWidth: 0
Flags: W
HStem: -223 64<128.316 375.67> 7 62<210.456 381.018> 465 62<213.387 383.883>
VStem: 53 81<155.001 373.873> 454 79<-78.6691 138 146.1 389.874 409 517>
LayerCount: 2
UndoRedoHistory
Layer: 0
Undoes
EndUndoes
Redoes
EndRedoes
EndUndoRedoHistory
Back
SplineSet
292.7734375 64.892578125 m 4xf0
 174.462890625 64.892578125 133.69140625 170.41015625 133.69140625 259.9609375 c 4
 133.69140625 357.6171875 176.318359375 465.283203125 295.1171875 465.283203125 c 4
 412.255859375 465.283203125 454.1015625 386.23046875 454.1015625 282.763671875 c 6
 454.1015625 239.0625 l 6
 453.80859375 147.412109375 409.08203125 64.892578125 292.7734375 64.892578125 c 4xf0
253.857421875 -223.095703125 m 4
 458.59375 -223.095703125 533.447265625 -105.17578125 533.447265625 52.83203125 c 6
 533.447265625 516.89453125 l 5
 459.619140625 516.89453125 l 5
 452.05078125 408.69140625 l 5
 468.75 410.15625 l 5
 442.87109375 481.884765625 382.32421875 527.197265625 290.52734375 527.197265625 c 4
 127.197265625 527.197265625 52.587890625 399.0234375 52.587890625 255.859375 c 4
 52.587890625 132.6171875 125.830078125 3.076171875 284.08203125 3.076171875 c 4
 387.01171875 3.076171875 453.369140625 61.03515625 473.291015625 138.28125 c 5
 453.662109375 139.0625 l 5
 453.662109375 37.01171875 l 6
 453.662109375 -90.283203125 399.609375 -159.912109375 249.12109375 -159.912109375 c 4
 221.044921875 -159.912109375 160.693359375 -155.810546875 136.083984375 -154.736328125 c 5
 136.083984375 -217.919921875 l 5
 170.654296875 -218.65234375 215.234375 -223.095703125 253.857421875 -223.095703125 c 4
EndSplineSet
UndoRedoHistory
Layer: 1
Undoes
EndUndoes
Redoes
EndRedoes
EndUndoRedoHistory
Fore
SplineSet
293 69 m 0
 409 69 454 150 454 239 c 2
 454 283 l 2
 454 387 412 465 295 465 c 0
 176 465 134 363 134 262 c 0
 134 167 175 69 293 69 c 0
533 44 m 2
 533 -136 451 -223 257 -223 c 0
 217 -223 173 -219 124 -212 c 5
 128 -149 l 5
 178 -155 222 -159 260 -159 c 0
 393 -159 454 -112 454 37 c 2
 454 139 l 1
 473 138 l 1
 453 63 387 7 284 7 c 0
 126 7 53 132 53 258 c 0
 53 403 128 527 291 527 c 0
 383 527 443 482 469 410 c 1
 452 409 l 1
 459 517 l 1
 533 517 l 1
 533 44 l 2
EndSplineSet
EndChar

StartChar: germandbls
Encoding: 223 223 222
Width: 573
VWidth: 0
Flags: W
HStem: -10 64<280.278 447.458> 0 21G<86 166> 658 60<212.889 362.021>
VStem: 86 80<0 606.623> 293 75<334.959 409.515> 393 77<494.78 628.919> 474 78<80.7558 192.942>
LayerCount: 2
UndoRedoHistory
Layer: 0
Undoes
EndUndoes
Redoes
EndRedoes
EndUndoRedoHistory
UndoRedoHistory
Layer: 1
Undoes
EndUndoes
Redoes
EndRedoes
EndUndoRedoHistory
Fore
SplineSet
166 0 m 1x7e
 86 0 l 1x7e
 86 493 l 2
 86 633 146 718 291 718 c 0
 400 718 470 657 470 567 c 0
 470 464 368 411 368 367 c 0
 368 310 552 282 552 140 c 0
 552 49 493 -10 395 -10 c 0
 333 -10 272 8 234 27 c 1
 256 87 l 1
 283 73 332 54 386 54 c 0xbe
 448 54 474 95 474 138 c 0
 474 241 293 266 293 360 c 0
 293 440 393 469 393 567 c 0
 393 620 360 658 293 658 c 0
 202 658 166 611 166 495 c 2
 166 0 l 1x7e
EndSplineSet
EndChar

StartChar: grave
Encoding: 96 96 223
Width: 317
VWidth: 0
Flags: W
HStem: 596 183
VStem: 70 178
LayerCount: 2
UndoRedoHistory
Layer: 0
Undoes
EndUndoes
Redoes
EndRedoes
EndUndoRedoHistory
UndoRedoHistory
Layer: 1
Undoes
EndUndoes
Redoes
EndRedoes
EndUndoRedoHistory
Fore
SplineSet
202 596 m 1
 70 779 l 1
 162 779 l 1
 248 596 l 1
 202 596 l 1
EndSplineSet
EndChar

StartChar: greater
Encoding: 62 62 224
Width: 579
VWidth: 0
Flags: W
LayerCount: 2
UndoRedoHistory
Layer: 0
Undoes
EndUndoes
Redoes
EndRedoes
EndUndoRedoHistory
UndoRedoHistory
Layer: 1
Undoes
EndUndoes
Redoes
EndRedoes
EndUndoRedoHistory
Fore
SplineSet
71 69 m 1
 71 138 l 1
 441 307 l 1
 72 493 l 1
 72 562 l 1
 525 325 l 1
 525 282 l 1
 71 69 l 1
EndSplineSet
EndChar

StartChar: greaterequal
Encoding: 8805 8805 225
Width: 574
VWidth: 0
Flags: W
HStem: 4 59<62 519>
LayerCount: 2
UndoRedoHistory
Layer: 0
Undoes
EndUndoes
Redoes
EndRedoes
EndUndoRedoHistory
UndoRedoHistory
Layer: 1
Undoes
EndUndoes
Redoes
EndRedoes
EndUndoRedoHistory
Fore
SplineSet
77 112 m 1
 77 178 l 1
 448 361 l 1
 79 557 l 1
 79 624 l 1
 509 380 l 1
 509 342 l 1
 77 112 l 1
62 4 m 1
 62 63 l 1
 519 64 l 1
 519 4 l 1
 62 4 l 1
EndSplineSet
EndChar

StartChar: guillemotleft
Encoding: 171 171 226
Width: 480
VWidth: 0
Flags: W
LayerCount: 2
UndoRedoHistory
Layer: 0
Undoes
EndUndoes
Redoes
EndRedoes
EndUndoRedoHistory
UndoRedoHistory
Layer: 1
Undoes
EndUndoes
Redoes
EndRedoes
EndUndoRedoHistory
Fore
SplineSet
360 72 m 1
 222 263 l 1
 362 456 l 1
 421 441 l 1
 292 265 l 1
 417 87 l 1
 360 72 l 1
188 72 m 1
 49 263 l 1
 190 456 l 1
 249 441 l 1
 120 265 l 1
 245 87 l 1
 188 72 l 1
EndSplineSet
EndChar

StartChar: guillemotright
Encoding: 187 187 227
Width: 482
VWidth: 0
Flags: W
LayerCount: 2
UndoRedoHistory
Layer: 0
Undoes
EndUndoes
Redoes
EndRedoes
EndUndoRedoHistory
UndoRedoHistory
Layer: 1
Undoes
EndUndoes
Redoes
EndRedoes
EndUndoRedoHistory
Fore
SplineSet
295 456 m 1
 434 265 l 1
 294 72 l 1
 235 87 l 1
 363 263 l 1
 238 441 l 1
 295 456 l 1
125 456 m 1
 264 265 l 1
 124 72 l 1
 64 87 l 1
 193 263 l 1
 67 441 l 1
 125 456 l 1
EndSplineSet
EndChar

StartChar: guilsinglleft
Encoding: 8249 8249 228
Width: 292
VWidth: 0
Flags: W
VStem: 46 210
LayerCount: 2
UndoRedoHistory
Layer: 0
Undoes
EndUndoes
Redoes
EndRedoes
EndUndoRedoHistory
UndoRedoHistory
Layer: 1
Undoes
EndUndoes
Redoes
EndRedoes
EndUndoRedoHistory
Fore
SplineSet
256 479 m 1
 115 273 l 1
 253 72 l 1
 189 72 l 1
 46 273 l 1
 192 479 l 1
 256 479 l 1
EndSplineSet
EndChar

StartChar: guilsinglright
Encoding: 8250 8250 229
Width: 296
VWidth: 0
Flags: W
VStem: 54 211
LayerCount: 2
UndoRedoHistory
Layer: 0
Undoes
EndUndoes
Redoes
EndRedoes
EndUndoRedoHistory
UndoRedoHistory
Layer: 1
Undoes
EndUndoes
Redoes
EndRedoes
EndUndoRedoHistory
Fore
SplineSet
54 72 m 1
 196 277 l 1
 57 479 l 1
 121 479 l 1
 265 277 l 1
 119 72 l 1
 54 72 l 1
EndSplineSet
EndChar

StartChar: h
Encoding: 104 104 230
Width: 586
VWidth: 0
Flags: W
HStem: 0 21G<84 165 427 508> 465 62<235.958 388.092>
VStem: 84 81<0 390.916 407 713> 427 81<0 421.233>
LayerCount: 2
UndoRedoHistory
Layer: 0
Undoes
EndUndoes
Redoes
EndRedoes
EndUndoRedoHistory
UndoRedoHistory
Layer: 1
Undoes
EndUndoes
Redoes
EndRedoes
EndUndoRedoHistory
Fore
SplineSet
84 0 m 1
 84 713 l 1
 165 719 l 1
 165 546 l 1
 161 400 l 1
 142 407 l 1
 174 484 245 527 334 527 c 0
 447 527 508 451 508 319 c 2
 508 0 l 1
 427 0 l 1
 427 316 l 2
 427 416 399 465 320 465 c 0
 196 465 165 373 165 283 c 2
 165 0 l 1
 84 0 l 1
EndSplineSet
EndChar

StartChar: hbar
Encoding: 295 295 231
Width: 589
VWidth: 0
Flags: W
HStem: 0 21G<114 183 458 526> 468 63<267.452 420.243> 605 51<71 114 183 312>
VStem: 114 69<0 397.774 444 605 656 703> 458 68<0 426.666>
LayerCount: 2
UndoRedoHistory
Layer: 0
Undoes
EndUndoes
Redoes
EndRedoes
EndUndoRedoHistory
UndoRedoHistory
Layer: 1
Undoes
EndUndoes
Redoes
EndRedoes
EndUndoRedoHistory
Fore
SplineSet
114 0 m 1
 114 605 l 1
 71 605 l 1
 71 656 l 1
 114 656 l 1
 114 703 l 1
 183 713 l 1
 183 656 l 1
 312 656 l 1
 312 605 l 1
 183 605 l 1
 183 444 l 1
 228 499 292 531 374 531 c 0
 484 531 526 445 526 313 c 2
 526 0 l 1
 458 0 l 1
 458 288 l 2
 458 411 442 468 348 468 c 0
 262 468 194 404 183 354 c 1
 183 0 l 1
 114 0 l 1
EndSplineSet
EndChar

StartChar: hungarumlaut
Encoding: 733 733 233
Width: 364
VWidth: 0
Flags: W
HStem: 604 156
VStem: 56 284
LayerCount: 2
UndoRedoHistory
Layer: 0
Undoes
EndUndoes
Redoes
EndRedoes
EndUndoRedoHistory
UndoRedoHistory
Layer: 1
Undoes
EndUndoes
Redoes
EndRedoes
EndUndoRedoHistory
Fore
SplineSet
56 604 m 1
 129 760 l 1
 205 760 l 1
 97 604 l 1
 56 604 l 1
171 604 m 1
 259 760 l 1
 340 760 l 1
 213 604 l 1
 171 604 l 1
EndSplineSet
EndChar

StartChar: hyphen
Encoding: 45 45 234
Width: 350
VWidth: 0
Flags: W
HStem: 239 60<56 287>
VStem: 56 231<239 299>
LayerCount: 2
UndoRedoHistory
Layer: 0
Undoes
EndUndoes
Redoes
EndRedoes
EndUndoRedoHistory
UndoRedoHistory
Layer: 1
Undoes
EndUndoes
Redoes
EndRedoes
EndUndoRedoHistory
Fore
SplineSet
56 239 m 1
 56 299 l 1
 287 299 l 1
 287 239 l 1
 56 239 l 1
EndSplineSet
EndChar

StartChar: i
Encoding: 105 105 235
Width: 249
VWidth: 0
Flags: W
HStem: 0 21G<86 167> 620 83<86 167>
VStem: 86 81<0 517 620 703>
LayerCount: 2
UndoRedoHistory
Layer: 0
Undoes
EndUndoes
Redoes
EndRedoes
EndUndoRedoHistory
UndoRedoHistory
Layer: 1
Undoes
EndUndoes
Redoes
EndRedoes
EndUndoRedoHistory
Fore
SplineSet
86 0 m 1
 86 517 l 1
 167 517 l 1
 167 0 l 1
 86 0 l 1
86 620 m 1
 86 703 l 1
 167 703 l 1
 167 620 l 1
 86 620 l 1
EndSplineSet
EndChar

StartChar: infinity
Encoding: 8734 8734 243
Width: 847
VWidth: 0
Flags: W
HStem: 121 60<161.518 293.507 553.664 687.17> 425 58<157.053 295.847 552.25 685.862>
VStem: 55 54<235.119 375.702> 731 59<228.869 380.701>
LayerCount: 2
UndoRedoHistory
Layer: 0
Undoes
EndUndoes
Redoes
EndRedoes
EndUndoRedoHistory
UndoRedoHistory
Layer: 1
Undoes
EndUndoes
Redoes
EndRedoes
EndUndoRedoHistory
Fore
SplineSet
226 121 m 0
 118 121 55 209 55 313 c 0
 55 408 130 483 224 483 c 0
 306 483 365 432 424 354 c 1
 479 429 539 483 622 483 c 0
 730 483 790 409 790 305 c 0
 790 196 716 121 621 121 c 0
 549 121 489 164 424 250 c 1
 367 175 306 121 226 121 c 0
227 181 m 0
 290 181 345 237 390 303 c 1
 346 373 291 425 223 425 c 0
 153 425 109 369 109 304 c 0
 109 242 157 181 227 181 c 0
622 181 m 0
 696 181 731 241 731 316 c 0
 731 375 685 425 620 425 c 0
 554 425 500 366 458 304 c 1
 517 224 561 181 622 181 c 0
EndSplineSet
EndChar

StartChar: integral
Encoding: 8747 8747 244
Width: 351
VWidth: 0
Flags: W
HStem: -201 45<25.8892 124.398> 673 45<225.998 318.088>
VStem: 148 57<-132.192 652.952>
LayerCount: 2
UndoRedoHistory
Layer: 0
Undoes
EndUndoes
Redoes
EndRedoes
EndUndoRedoHistory
UndoRedoHistory
Layer: 1
Undoes
EndUndoes
Redoes
EndRedoes
EndUndoRedoHistory
Fore
SplineSet
79 -201 m 0
 63 -201 45 -198 25 -194 c 1
 25 -149 l 1
 43 -153 59 -156 72 -156 c 0
 139 -156 148 -102 148 -24 c 2
 148 544 l 2
 148 659 179 718 262 718 c 0
 279 718 298 715 319 710 c 1
 319 666 l 1
 301 671 286 673 273 673 c 0
 216 673 205 625 205 549 c 2
 205 -20 l 2
 205 -137 167 -201 79 -201 c 0
EndSplineSet
EndChar

StartChar: j
Encoding: 106 106 247
Width: 266
VWidth: 0
Flags: W
HStem: -169 66<10 88.8033> 620 83<105 187>
VStem: 105 82<-88.0754 517 620 703>
LayerCount: 2
UndoRedoHistory
Layer: 0
Undoes
EndUndoes
Redoes
EndRedoes
EndUndoRedoHistory
UndoRedoHistory
Layer: 1
Undoes
EndUndoes
Redoes
EndRedoes
EndUndoRedoHistory
Fore
SplineSet
10 -169 m 1
 5 -103 l 1
 29 -103 l 2
 103 -103 105 -72 105 18 c 2
 105 517 l 1
 187 517 l 1
 187 3 l 2
 187 -121 147 -169 39 -169 c 2
 10 -169 l 1
105 620 m 1
 105 703 l 1
 187 703 l 1
 187 620 l 1
 105 620 l 1
EndSplineSet
EndChar

StartChar: k
Encoding: 107 107 249
Width: 539
VWidth: 0
Flags: W
HStem: 0 21G<84 165 412.598 525>
VStem: 84 81<0 165 240 713>
LayerCount: 2
UndoRedoHistory
Layer: 0
Undoes
EndUndoes
Redoes
EndRedoes
EndUndoRedoHistory
UndoRedoHistory
Layer: 1
Undoes
EndUndoes
Redoes
EndRedoes
EndUndoRedoHistory
Fore
SplineSet
84 0 m 1
 84 713 l 1
 165 719 l 1
 165 361 l 1
 162 240 l 1
 144 240 l 1
 421 517 l 1
 519 517 l 1
 266 261 l 1
 266 298 l 1
 525 0 l 1
 430 0 l 1
 209 254 l 1
 241 254 l 1
 144 165 l 1
 165 208 l 1
 165 0 l 1
 84 0 l 1
EndSplineSet
EndChar

StartChar: l
Encoding: 108 108 251
Width: 327
VWidth: 0
Flags: W
HStem: -6 60<182.073 311.747>
VStem: 84 81<72.0469 713>
LayerCount: 2
UndoRedoHistory
Layer: 0
Undoes
EndUndoes
Redoes
EndRedoes
EndUndoRedoHistory
UndoRedoHistory
Layer: 1
Undoes
EndUndoes
Redoes
EndRedoes
EndUndoRedoHistory
Fore
SplineSet
235 -6 m 0
 148 -6 84 26 84 147 c 2
 84 713 l 1
 165 719 l 1
 165 141 l 2
 165 74 190 54 250 54 c 0
 280 54 309 58 312 58 c 1
 312 2 l 1
 305 1 273 -6 235 -6 c 0
EndSplineSet
EndChar

StartChar: less
Encoding: 60 60 256
Width: 574
VWidth: 0
Flags: W
LayerCount: 2
UndoRedoHistory
Layer: 0
Undoes
EndUndoes
Redoes
EndRedoes
EndUndoRedoHistory
UndoRedoHistory
Layer: 1
Undoes
EndUndoes
Redoes
EndRedoes
EndUndoRedoHistory
Fore
SplineSet
506 66 m 1
 54 283 l 1
 54 326 l 1
 508 559 l 1
 508 490 l 1
 134 307 l 1
 507 135 l 2
 506 66 l 1
EndSplineSet
EndChar

StartChar: lessequal
Encoding: 8804 8804 257
Width: 575
VWidth: 0
Flags: W
HStem: 0 58<60 520>
LayerCount: 2
UndoRedoHistory
Layer: 0
Undoes
EndUndoes
Redoes
EndRedoes
EndUndoRedoHistory
UndoRedoHistory
Layer: 1
Undoes
EndUndoes
Redoes
EndRedoes
EndUndoRedoHistory
Fore
SplineSet
505 123 m 1
 77 347 l 1
 77 386 l 1
 505 622 l 1
 505 555 l 1
 164 367 l 1
 505 189 l 1
 505 123 l 1
60 0 m 1
 60 58 l 1
 520 58 l 1
 520 0 l 1
 60 0 l 1
EndSplineSet
EndChar

StartChar: logicalnot
Encoding: 172 172 258
Width: 577
VWidth: 0
Flags: W
HStem: 325 61<49 457>
VStem: 457 59<124 325>
LayerCount: 2
UndoRedoHistory
Layer: 0
Undoes
EndUndoes
Redoes
EndRedoes
EndUndoRedoHistory
UndoRedoHistory
Layer: 1
Undoes
EndUndoes
Redoes
EndRedoes
EndUndoRedoHistory
Fore
SplineSet
457 124 m 1
 457 325 l 1
 49 325 l 1
 49 386 l 1
 516 386 l 1
 516 124 l 1
 457 124 l 1
EndSplineSet
EndChar

StartChar: lozenge
Encoding: 9674 9674 259
Width: 558
VWidth: 0
Flags: W
LayerCount: 2
UndoRedoHistory
Layer: 0
Undoes
EndUndoes
Redoes
EndRedoes
EndUndoRedoHistory
UndoRedoHistory
Layer: 1
Undoes
EndUndoes
Redoes
EndRedoes
EndUndoRedoHistory
Fore
SplineSet
254 -23 m 1
 55 365 l 1
 257 754 l 1
 307 754 l 1
 506 366 l 1
 303 -23 l 1
 254 -23 l 1
277 43 m 1
 335 149 394 258 453 365 c 1
 396 471 339 578 283 685 c 1
 224 580 166 472 107 366 c 1
 165 259 218 147 277 43 c 1
EndSplineSet
EndChar

StartChar: m
Encoding: 109 109 260
Width: 867
VWidth: 0
Flags: W
HStem: 0 21G<84 165 399 480 708 790> 465 62<233.609 365.61 548.855 677.981>
VStem: 84 81<0 387.455> 84 65<461 517> 399 81<0 389.692> 708 82<0 433.731>
LayerCount: 2
UndoRedoHistory
Layer: 0
Undoes
EndUndoes
Redoes
EndRedoes
EndUndoRedoHistory
UndoRedoHistory
Layer: 1
Undoes
EndUndoes
Redoes
EndRedoes
EndUndoRedoHistory
Fore
SplineSet
84 0 m 1xec
 84 517 l 1
 149 517 l 1xdc
 163 405 l 1
 141 410 l 1
 176 478 234 527 318 527 c 0
 414 527 448 466 469 398 c 1
 449 398 l 1
 483 475 542 527 631 527 c 0
 738 527 790 459 790 333 c 2
 790 0 l 1
 708 0 l 1
 708 294 l 2
 708 371 712 465 619 465 c 0
 559 465 504 426 485 346 c 1
 481 332 481 306 480 265 c 1
 480 0 l 1
 399 0 l 1
 399 290 l 2
 399 412 379 465 305 465 c 0
 222 465 178 400 165 315 c 1
 165 0 l 1
 84 0 l 1xec
EndSplineSet
EndChar

StartChar: macron
Encoding: 175 175 261
Width: 515
VWidth: 0
Flags: W
HStem: 621 58<109 395>
VStem: 109 286<621 679>
LayerCount: 2
UndoRedoHistory
Layer: 0
Undoes
EndUndoes
Redoes
EndRedoes
EndUndoRedoHistory
UndoRedoHistory
Layer: 1
Undoes
EndUndoes
Redoes
EndRedoes
EndUndoRedoHistory
Fore
SplineSet
109 621 m 1
 109 679 l 1
 395 679 l 1
 395 621 l 1
 109 621 l 1
EndSplineSet
EndChar

StartChar: middot
Encoding: 65537 -1 262
Width: 194
VWidth: 0
Flags: W
HStem: 267 94<56 136>
VStem: 56 80<267 361>
LayerCount: 2
UndoRedoHistory
Layer: 0
Undoes
EndUndoes
Redoes
EndRedoes
EndUndoRedoHistory
UndoRedoHistory
Layer: 1
Undoes
EndUndoes
Redoes
EndRedoes
EndUndoRedoHistory
Fore
SplineSet
56 267 m 1
 56 361 l 1
 136 361 l 1
 136 267 l 1
 56 267 l 1
EndSplineSet
EndChar

StartChar: minus
Encoding: 8722 8722 263
Width: 560
VWidth: 0
Flags: W
HStem: 258 66<42 510>
LayerCount: 2
UndoRedoHistory
Layer: 0
Undoes
EndUndoes
Redoes
EndRedoes
EndUndoRedoHistory
UndoRedoHistory
Layer: 1
Undoes
EndUndoes
Redoes
EndRedoes
EndUndoRedoHistory
Fore
SplineSet
42 258 m 1
 42 324 l 1
 510 324 l 1
 510 258 l 1
 42 258 l 1
EndSplineSet
EndChar

StartChar: multiply
Encoding: 215 215 264
Width: 431
VWidth: 0
Flags: W
LayerCount: 2
UndoRedoHistory
Layer: 0
Undoes
EndUndoes
Redoes
EndRedoes
EndUndoRedoHistory
UndoRedoHistory
Layer: 1
Undoes
EndUndoes
Redoes
EndRedoes
EndUndoRedoHistory
Fore
SplineSet
349 99 m 1
 217 237 l 1
 85 99 l 1
 44 140 l 1
 177 280 l 1
 49 417 l 1
 89 458 l 1
 217 322 l 1
 344 457 l 1
 386 415 l 1
 258 280 l 1
 268 270 388 141 388 141 c 1
 349 99 l 1
EndSplineSet
EndChar

StartChar: n
Encoding: 110 110 265
Width: 589
VWidth: 0
Flags: W
HStem: 0 21G<84 165 430 511> 465 62<235.545 393.834>
VStem: 84 81<0 392.289> 84 70<463.154 517> 430 81<0 427.417>
LayerCount: 2
UndoRedoHistory
Layer: 0
Undoes
EndUndoes
Redoes
EndRedoes
EndUndoRedoHistory
UndoRedoHistory
Layer: 1
Undoes
EndUndoes
Redoes
EndRedoes
EndUndoRedoHistory
Fore
SplineSet
84 0 m 1xe8
 84 517 l 1
 154 517 l 1xd8
 167 417 l 1
 146 417 l 1
 179 482 239 527 338 527 c 0
 457 527 511 457 511 316 c 2
 511 0 l 1
 430 0 l 1
 430 325 l 2
 430 412 407 465 324 465 c 0
 199 465 165 382 165 288 c 2
 165 0 l 1
 84 0 l 1xe8
EndSplineSet
EndChar

StartChar: nine
Encoding: 57 57 270
Width: 586
VWidth: 0
Flags: W
HStem: 0 21G<148 258.936> 283 63<216.574 375.666> 648 64<223.306 385.437>
VStem: 73 79<410.418 575.122> 454 77<396.938 580.493>
LayerCount: 2
UndoRedoHistory
Layer: 0
Undoes
EndUndoes
Redoes
EndRedoes
EndUndoRedoHistory
UndoRedoHistory
Layer: 1
Undoes
EndUndoes
Redoes
EndRedoes
EndUndoRedoHistory
Fore
SplineSet
148 0 m 1
 333 243 l 1
 378 303 456 398 456 398 c 1
 469 387 l 1
 463 377 400 283 287 283 c 0
 174 283 73 366 73 493 c 0
 73 616 163 712 303 712 c 0
 450 712 531 608 531 492 c 0
 531 388 483 322 418 233 c 0
 415 229 244 0 244 0 c 1
 148 0 l 1
301 346 m 0
 364 346 454 381 454 497 c 0
 454 579 404 648 305 648 c 0
 206 648 152 577 152 494 c 0
 152 408 205 346 301 346 c 0
EndSplineSet
EndChar

StartChar: notequal
Encoding: 8800 8800 271
Width: 566
VWidth: 0
Flags: W
HStem: 169 56<62 187 271 509> 376 57<62 291 375 507>
LayerCount: 2
UndoRedoHistory
Layer: 0
Undoes
EndUndoes
Redoes
EndRedoes
EndUndoRedoHistory
UndoRedoHistory
Layer: 1
Undoes
EndUndoes
Redoes
EndRedoes
EndUndoRedoHistory
Fore
SplineSet
176 23 m 1
 130 32 l 1
 187 169 l 1
 62 169 l 1
 60 225 l 1
 214 225 l 1
 291 376 l 1
 62 376 l 1
 59 433 l 1
 316 433 l 1
 384 573 l 1
 431 567 l 1
 375 433 l 1
 507 433 l 1
 512 376 l 1
 350 376 l 1
 271 225 l 1
 509 225 l 1
 512 169 l 1
 246 169 l 1
 176 23 l 1
EndSplineSet
EndChar

StartChar: numbersign
Encoding: 35 35 273
Width: 581
VWidth: 0
Flags: W
HStem: 205 43<92 158 223 333 398 474> 457 43<134 208 272 383 448 516>
LayerCount: 2
UndoRedoHistory
Layer: 0
Undoes
EndUndoes
Redoes
EndRedoes
EndUndoRedoHistory
UndoRedoHistory
Layer: 1
Undoes
EndUndoes
Redoes
EndRedoes
EndUndoRedoHistory
Fore
SplineSet
342 248 m 1
 383 457 l 1
 264 457 l 1
 223 248 l 1
 342 248 l 1
292 -10 m 1
 333 205 l 1
 214 205 l 1
 172 -10 l 1
 116 -10 l 1
 158 205 l 1
 86 205 l 1
 92 248 l 1
 167 248 l 1
 208 457 l 1
 128 457 l 1
 134 500 l 1
 216 500 l 1
 254 693 l 1
 311 693 l 1
 272 500 l 1
 392 500 l 1
 430 693 l 1
 486 693 l 1
 448 500 l 1
 523 500 l 1
 516 457 l 1
 439 457 l 1
 398 248 l 1
 480 248 l 1
 474 205 l 1
 390 205 l 1
 348 -10 l 1
 292 -10 l 1
EndSplineSet
EndChar

StartChar: o
Encoding: 111 111 274
Width: 598
VWidth: 0
Flags: W
HStem: -9 61<219.062 381.972> 465 62<218.911 380.121>
VStem: 56 80<144.635 369.465> 462 80<144.635 372.504>
LayerCount: 2
UndoRedoHistory
Layer: 0
Undoes
EndUndoes
Redoes
EndRedoes
EndUndoRedoHistory
UndoRedoHistory
Layer: 1
Undoes
EndUndoes
Redoes
EndRedoes
EndUndoRedoHistory
Fore
SplineSet
299 52 m 0
 410 52 462 139 462 257 c 0
 462 378 409 465 299 465 c 0
 192 465 136 378 136 257 c 0
 136 139 191 52 299 52 c 0
299 -9 m 0
 150 -9 56 103 56 258 c 0
 56 417 148 527 299 527 c 0
 452 527 542 417 542 258 c 0
 542 103 445 -9 299 -9 c 0
EndSplineSet
EndChar

StartChar: ogonek
Encoding: 731 731 279
Width: 278
VWidth: 0
Flags: W
HStem: -202 52<128.424 217.904> -20 20G<131.5 196>
VStem: 56 69<-146.679 -65.8971>
LayerCount: 2
UndoRedoHistory
Layer: 0
Undoes
EndUndoes
Redoes
EndRedoes
EndUndoRedoHistory
UndoRedoHistory
Layer: 1
Undoes
EndUndoes
Redoes
EndRedoes
EndUndoRedoHistory
Fore
SplineSet
219 -188 m 1
 203 -195 172 -202 148 -202 c 0
 87 -202 56 -174 56 -131 c 0
 56 -76 106 -20 157 0 c 1
 196 0 l 1
 167 -21 125 -75 125 -112 c 0
 125 -139 143 -150 165 -150 c 0
 186 -150 209 -143 218 -139 c 1
 219 -188 l 1
EndSplineSet
EndChar

StartChar: one
Encoding: 49 49 285
Width: 586
VWidth: 0
Flags: W
HStem: 0 63<116 288 369 522> 578 65<131 207.81>
LayerCount: 2
UndoRedoHistory
Layer: 0
Undoes
EndUndoes
Redoes
EndRedoes
EndUndoRedoHistory
UndoRedoHistory
Layer: 1
Undoes
EndUndoes
Redoes
EndRedoes
EndUndoRedoHistory
Fore
SplineSet
116 0 m 1
 116 63 l 1
 317 63 l 1
 288 33 l 1
 288 653 l 1
 308 642 l 1
 271 612 179 584 131 578 c 1
 131 643 l 1
 172 651 257 677 294 703 c 1
 369 703 l 1
 369 32 l 1
 338 63 l 1
 522 63 l 1
 522 0 l 1
 116 0 l 1
EndSplineSet
EndChar

StartChar: onehalf
Encoding: 189 189 286
Width: 803
VWidth: 0
Flags: W
HStem: -4 54<586 754> 301 54<62 121 188 249> 354 57<557.988 679.391>
VStem: 121 67<355 651> 696 65<231.703 336.564>
LayerCount: 2
UndoRedoHistory
Layer: 0
Undoes
EndUndoes
Redoes
EndRedoes
EndUndoRedoHistory
UndoRedoHistory
Layer: 1
Undoes
EndUndoes
Redoes
EndRedoes
EndUndoRedoHistory
Fore
SplineSet
62 301 m 1xd8
 62 355 l 1
 121 355 l 1
 121 651 l 1
 103 639 70 621 55 614 c 1
 55 671 l 1
 76 681 118 708 131 721 c 1
 188 721 l 1
 188 355 l 1
 249 355 l 1
 249 301 l 1
 62 301 l 1xd8
500 -4 m 1
 500 48 l 1
 582 131 696 224 696 285 c 0
 696 332 663 354 628 354 c 0
 590 354 552 337 524 299 c 1
 489 337 l 1
 515 382 571 411 627 411 c 0xb8
 694 411 761 369 761 289 c 0
 761 198 683 137 586 50 c 1
 757 50 l 1
 754 -4 l 1
 500 -4 l 1
148 3 m 1
 591 722 l 1
 656 722 l 1
 213 3 l 1
 148 3 l 1
EndSplineSet
EndChar

StartChar: onequarter
Encoding: 188 188 287
Width: 773
VWidth: 0
Flags: W
HStem: 0 22G<162 238.271 644 704> 92 51<532 643 705 760> 300 53<42 117 185 252>
VStem: 117 68<353 652> 643 62<1 92 143 319>
LayerCount: 2
UndoRedoHistory
Layer: 0
Undoes
EndUndoes
Redoes
EndRedoes
EndUndoRedoHistory
UndoRedoHistory
Layer: 1
Undoes
EndUndoes
Redoes
EndRedoes
EndUndoRedoHistory
Fore
SplineSet
42 300 m 1
 42 353 l 1
 117 353 l 1
 117 652 l 1
 99 641 54 623 37 617 c 1
 37 671 l 1
 55 677 118 708 131 721 c 1
 185 721 l 1
 185 353 l 1
 252 353 l 1
 252 300 l 1
 42 300 l 1
644 1 m 1
 644 92 l 1
 459 92 l 1
 459 136 l 1
 639 409 l 1
 705 409 l 1
 705 143 l 1
 760 143 l 1
 764 92 l 1
 704 92 l 1
 704 1 l 1
 644 1 l 1
162 0 m 1
 605 722 l 1
 669 722 l 1
 226 0 l 1
 162 0 l 1
532 143 m 1
 643 143 l 1
 643 319 l 1
 532 143 l 1
EndSplineSet
EndChar

StartChar: ordmasculine
Encoding: 186 186 288
Width: 412
VWidth: 0
Flags: W
HStem: 393 34<148.777 265.283> 722 34<148.997 264.475>
VStem: 44 48<483.493 665.237> 324 44<482.806 663.131>
LayerCount: 2
UndoRedoHistory
Layer: 0
Undoes
EndUndoes
Redoes
EndRedoes
EndUndoRedoHistory
UndoRedoHistory
Layer: 1
Undoes
EndUndoes
Redoes
EndRedoes
EndUndoRedoHistory
Fore
SplineSet
92 574 m 0
 92 496 130 427 206 427 c 0
 286 427 324 494 324 572 c 0
 324 652 284 722 206 722 c 0
 131 722 92 654 92 574 c 0
368 573 m 0
 368 471 302 393 206 393 c 0
 104 393 44 469 44 573 c 0
 44 678 104 756 206 756 c 0
 310 756 368 680 368 573 c 0
EndSplineSet
EndChar

StartChar: oslash
Encoding: 248 248 289
Width: 588
VWidth: 0
Flags: W
HStem: -9 61<219.062 381.972> 465 62<218.911 380.121>
VStem: 56 80<144.635 369.465> 462 80<144.635 372.504>
LayerCount: 2
UndoRedoHistory
Layer: 0
Undoes
EndUndoes
Redoes
EndRedoes
EndUndoRedoHistory
UndoRedoHistory
Layer: 1
Undoes
EndUndoes
Redoes
EndRedoes
EndUndoRedoHistory
Fore
SplineSet
143 -73 m 1
 111 -55 l 1
 462 594 l 1
 497 576 l 1
 143 -73 l 1
EndSplineSet
Refer: 274 111 N 1 0 0 1 0 0 2
EndChar

StartChar: p
Encoding: 112 112 292
Width: 605
VWidth: 0
Flags: W
HStem: -9 62<242.317 396.928> 465 62<241.502 399.608>
VStem: 84 81<-222 132 146 385.157> 84 67<445.25 517> 468 82<135.958 384.93>
LayerCount: 2
UndoRedoHistory
Layer: 0
Undoes
EndUndoes
Redoes
EndRedoes
EndUndoRedoHistory
UndoRedoHistory
Layer: 1
Undoes
EndUndoes
Redoes
EndRedoes
EndUndoRedoHistory
Fore
SplineSet
84 -227 m 1xd8
 84 517 l 1
 151 517 l 1xd8
 163 394 l 1
 145 396 l 1
 177 475 244 527 332 527 c 0
 475 527 550 417 550 257 c 0
 550 101 470 -9 332 -9 c 0
 226 -9 164 66 140 132 c 1
 160 146 l 1
 165 -32 l 1
 165 -222 l 1xe8
 84 -227 l 1xd8
319 53 m 0
 422 53 468 133 468 258 c 0
 468 380 427 465 323 465 c 0
 212 465 164 385 164 266 c 0
 164 131 221 53 319 53 c 0
EndSplineSet
EndChar

StartChar: paragraph
Encoding: 182 182 293
Width: 532
VWidth: 0
Flags: W
HStem: -55 21G<237 292 388 444> 688 54<292 388 444 480>
VStem: 50 242<495.663 662.062> 237 55<-55 416> 388 56<-55 688>
LayerCount: 2
UndoRedoHistory
Layer: 0
Undoes
EndUndoes
Redoes
EndRedoes
EndUndoRedoHistory
UndoRedoHistory
Layer: 1
Undoes
EndUndoes
Redoes
EndRedoes
EndUndoRedoHistory
Fore
SplineSet
237 -55 m 1xd8
 237 416 l 1xd8
 100 416 50 498 50 581 c 0xe8
 50 657 96 742 252 742 c 2
 480 742 l 1
 480 688 l 1
 444 688 l 1
 444 -55 l 1
 388 -55 l 1
 388 688 l 1
 292 688 l 1
 292 -55 l 1
 237 -55 l 1xd8
EndSplineSet
EndChar

StartChar: parenleft
Encoding: 40 40 294
Width: 342
VWidth: 0
Flags: W
VStem: 95 79<137.665 519.116>
LayerCount: 2
UndoRedoHistory
Layer: 0
Undoes
EndUndoes
Redoes
EndRedoes
EndUndoRedoHistory
UndoRedoHistory
Layer: 1
Undoes
EndUndoes
Redoes
EndRedoes
EndUndoRedoHistory
Fore
SplineSet
222 -112 m 1
 142 -1 95 163 95 335 c 0
 95 492 141 638 221 755 c 1
 297 755 l 1
 210 622 174 484 174 337 c 0
 174 182 207 29 297 -112 c 1
 222 -112 l 1
EndSplineSet
EndChar

StartChar: parenright
Encoding: 41 41 295
Width: 344
VWidth: 0
Flags: W
VStem: 179 79<139.624 520.847>
LayerCount: 2
UndoRedoHistory
Layer: 0
Undoes
EndUndoes
Redoes
EndRedoes
EndUndoRedoHistory
UndoRedoHistory
Layer: 1
Undoes
EndUndoes
Redoes
EndRedoes
EndUndoRedoHistory
Fore
SplineSet
56 -112 m 1
 140 16 179 181 179 339 c 0
 179 484 147 609 55 755 c 1
 132 755 l 1
 214 634 258 495 258 338 c 0
 258 166 209 -5 131 -112 c 1
 56 -112 l 1
EndSplineSet
EndChar

StartChar: partialdiff
Encoding: 8706 8706 296
Width: 577
VWidth: 0
Flags: W
HStem: -13 70<183.487 316.984> 445 67<232.863 375.262> 716 69<193.429 358.558>
VStem: 60 70<118.389 324.253> 442 73<428 607.903>
LayerCount: 2
UndoRedoHistory
Layer: 0
Undoes
EndUndoes
Redoes
EndRedoes
EndUndoRedoHistory
UndoRedoHistory
Layer: 1
Undoes
EndUndoes
Redoes
EndRedoes
EndUndoRedoHistory
Fore
SplineSet
249 -13 m 0
 118 -13 60 87 60 215 c 0
 60 383 157 512 294 512 c 0
 359 512 410 482 442 428 c 1
 442 437 442 453 442 466 c 0
 442 621 387 716 284 716 c 0
 235 716 187 695 149 668 c 1
 143 738 l 1
 183 765 237 785 296 785 c 0
 438 785 515 676 515 436 c 0
 515 215 437 -13 249 -13 c 0
249 57 m 0
 352 57 421 182 436 335 c 1
 419 393 374 445 306 445 c 0
 207 445 130 339 130 214 c 0
 130 119 176 57 249 57 c 0
EndSplineSet
EndChar

StartChar: percent
Encoding: 37 37 297
Width: 873
VWidth: 0
Flags: W
HStem: -6 45<618.922 748.878> 312 45<619.323 750.351> 345 46<137.336 269.374> 663 45<137.737 270.859>
VStem: 37 56<437.782 615.695> 312 56<438.189 618.439> 518 57<84.6457 264.695> 793 57<86.9737 267.439>
LayerCount: 2
UndoRedoHistory
Layer: 0
Undoes
EndUndoes
Redoes
EndRedoes
EndUndoRedoHistory
UndoRedoHistory
Layer: 1
Undoes
EndUndoes
Redoes
EndRedoes
EndUndoRedoHistory
Fore
SplineSet
684 -6 m 0xdf
 574 -6 518 73 518 176 c 0
 518 279 576 357 684 357 c 0
 795 357 850 280 850 176 c 0
 850 73 793 -6 684 -6 c 0xdf
684 39 m 0
 760 39 793 99 793 176 c 0
 793 256 760 312 684 312 c 0
 608 312 575 253 575 176 c 0
 575 97 608 39 684 39 c 0
203 391 m 0xbf
 279 391 312 450 312 527 c 0
 312 607 279 663 203 663 c 0
 127 663 93 604 93 527 c 0
 93 448 127 391 203 391 c 0xbf
202 345 m 0
 92 345 37 424 37 527 c 0
 37 630 94 708 202 708 c 0
 313 708 368 631 368 527 c 0
 368 424 311 345 202 345 c 0
210 0 m 1
 615 703 l 1
 675 703 l 1
 274 0 l 1
 210 0 l 1
EndSplineSet
EndChar

StartChar: period
Encoding: 46 46 298
Width: 238
VWidth: 0
Flags: W
HStem: -5 106<81.6062 168.157>
VStem: 72 105<4.16161 91.8384>
LayerCount: 2
UndoRedoHistory
Layer: 0
Undoes
EndUndoes
Redoes
EndRedoes
EndUndoRedoHistory
UndoRedoHistory
Layer: 1
Undoes
EndUndoes
Redoes
EndRedoes
EndUndoRedoHistory
Fore
SplineSet
125 -5 m 0
 89 -5 72 22 72 48 c 0
 72 74 88 101 125 101 c 0
 161 101 177 74 177 48 c 0
 177 22 161 -5 125 -5 c 0
EndSplineSet
EndChar

StartChar: periodcentered
Encoding: 183 183 299
Width: 194
VWidth: 0
Flags: W
HStem: 267 78<56 136>
VStem: 56 80<267 345>
LayerCount: 2
UndoRedoHistory
Layer: 0
Undoes
EndUndoes
Redoes
EndRedoes
EndUndoRedoHistory
UndoRedoHistory
Layer: 1
Undoes
EndUndoes
Redoes
EndRedoes
EndUndoRedoHistory
Fore
SplineSet
56 267 m 1
 56 345 l 1
 136 345 l 1
 136 267 l 1
 56 267 l 1
EndSplineSet
EndChar

StartChar: perthousand
Encoding: 8240 8240 300
Width: 1112
VWidth: 0
Flags: W
HStem: -14 58<473.37 587.148 840.456 956.088> 290 60<473.43 589.168 840.725 956.331> 378 59<149.93 247.155> 684 57<149.735 245.987>
VStem: 57 61<470.473 650.101> 278 61<471.522 650.354> 375 62<83.6294 250.032> 626 61<86.6066 251.515> 742 61<84.7103 250.032> 995 59<86.4081 247.551>
LayerCount: 2
UndoRedoHistory
Layer: 0
Undoes
EndUndoes
Redoes
EndRedoes
EndUndoRedoHistory
UndoRedoHistory
Layer: 1
Undoes
EndUndoes
Redoes
EndRedoes
EndUndoRedoHistory
Fore
SplineSet
199 437 m 0
 252 437 278 494 278 560 c 0
 278 630 252 684 197 684 c 0
 143 684 118 627 118 561 c 0
 118 491 144 437 199 437 c 0
197 378 m 0
 107 378 57 452 57 561 c 0
 57 665 107 741 198 741 c 0
 290 741 339 670 339 559 c 0
 339 456 287 378 197 378 c 0
128 -10 m 1
 536 736 l 1
 610 736 l 1
 193 -10 l 1
 128 -10 l 1
531 44 m 0
 594 44 626 103 626 168 c 0
 626 237 596 290 531 290 c 0
 468 290 437 234 437 168 c 0
 437 98 468 44 531 44 c 0
530 -14 m 0
 426 -14 375 59 375 168 c 0
 375 272 425 350 531 350 c 0
 637 350 687 277 687 167 c 0
 687 64 635 -14 530 -14 c 0
900 44 m 0
 963 44 995 102 995 168 c 0
 995 236 960 290 898 290 c 0
 833 290 803 234 803 168 c 0
 803 98 835 44 900 44 c 0
897 -14 m 0
 793 -14 742 59 742 168 c 0
 742 272 794 350 900 350 c 0
 1004 350 1054 279 1054 167 c 0
 1054 64 1002 -14 897 -14 c 0
EndSplineSet
EndChar

StartChar: plus
Encoding: 43 43 301
Width: 538
VWidth: 0
Flags: W
HStem: 279 55<61 245 307 489>
VStem: 245 62<84 279 334 526>
LayerCount: 2
UndoRedoHistory
Layer: 0
Undoes
EndUndoes
Redoes
EndRedoes
EndUndoRedoHistory
UndoRedoHistory
Layer: 1
Undoes
EndUndoes
Redoes
EndRedoes
EndUndoRedoHistory
Fore
SplineSet
245 84 m 1
 245 279 l 1
 61 279 l 1
 61 334 l 1
 246 334 l 1
 246 526 l 1
 307 526 l 1
 307 334 l 1
 489 334 l 1
 489 279 l 1
 307 279 l 1
 307 84 l 1
 245 84 l 1
EndSplineSet
EndChar

StartChar: plusminus
Encoding: 177 177 302
Width: 563
VWidth: 0
Flags: W
HStem: 0 56<55 509> 291 56<65 247 309 487>
VStem: 247 62<101 291 347 532>
LayerCount: 2
UndoRedoHistory
Layer: 0
Undoes
EndUndoes
Redoes
EndRedoes
EndUndoRedoHistory
UndoRedoHistory
Layer: 1
Undoes
EndUndoes
Redoes
EndRedoes
EndUndoRedoHistory
Fore
SplineSet
55 0 m 1
 55 56 l 1
 509 56 l 1
 509 0 l 1
 55 0 l 1
247 101 m 1
 247 291 l 1
 65 291 l 1
 65 347 l 1
 247 347 l 1
 247 532 l 1
 308 532 l 1
 308 347 l 1
 487 347 l 1
 487 291 l 1
 309 291 l 1
 309 101 l 1
 247 101 l 1
EndSplineSet
EndChar

StartChar: product
Encoding: 8719 8719 303
Width: 697
VWidth: 0
Flags: W
HStem: 0 21G<71 156 543 627> 638 73<156 543>
VStem: 71 85<0 638> 543 84<0 638>
LayerCount: 2
UndoRedoHistory
Layer: 0
Undoes
EndUndoes
Redoes
EndRedoes
EndUndoRedoHistory
UndoRedoHistory
Layer: 1
Undoes
EndUndoes
Redoes
EndRedoes
EndUndoRedoHistory
Fore
SplineSet
71 0 m 1
 71 711 l 1
 627 711 l 1
 627 0 l 1
 543 0 l 1
 543 638 l 1
 156 638 l 1
 156 0 l 1
 71 0 l 1
EndSplineSet
EndChar

StartChar: q
Encoding: 113 113 304
Width: 620
VWidth: 0
Flags: W
HStem: -9 61<216.029 381.896> 465 62<214.278 379.375>
VStem: 56 80<142.983 377.27> 457 80<-223 132 142 383.555> 464 73<449.917 517>
LayerCount: 2
UndoRedoHistory
Layer: 0
Undoes
EndUndoes
Redoes
EndRedoes
EndUndoRedoHistory
UndoRedoHistory
Layer: 1
Undoes
EndUndoes
Redoes
EndRedoes
EndUndoRedoHistory
Fore
SplineSet
457 -227 m 1xf0
 457 -35 l 1xf0
 460 142 l 1
 479 132 l 1
 453 58 398 -9 283 -9 c 0
 148 -9 56 102 56 255 c 0
 56 415 138 527 284 527 c 0
 383 527 440 473 469 405 c 1
 452 402 l 1
 464 517 l 1
 537 517 l 1xe8
 537 -223 l 1
 457 -227 l 1xf0
295 52 m 0
 416 52 455 133 455 270 c 1
 455 388 411 465 296 465 c 0
 187 465 136 380 136 259 c 0
 136 134 189 52 295 52 c 0
EndSplineSet
EndChar

StartChar: question
Encoding: 63 63 305
Width: 453
VWidth: 0
Flags: W
HStem: -6 111<153.937 244.82> 202 21G<179 244.5> 659 64<120.433 282.797>
VStem: 143 112<4.59961 94.7168> 314 72<476.704 629.004>
LayerCount: 2
UndoRedoHistory
Layer: 0
Undoes
EndUndoes
Redoes
EndRedoes
EndUndoRedoHistory
UndoRedoHistory
Layer: 1
Undoes
EndUndoes
Redoes
EndRedoes
EndUndoRedoHistory
Fore
SplineSet
216 202 m 1
 179 202 l 1
 184 323 314 452 314 563 c 0
 314 628 274 659 210 659 c 0
 154 659 105 631 83 617 c 1
 65 677 l 1
 104 703 155 723 220 723 c 0
 308 723 386 668 386 572 c 0
 386 440 273 368 216 202 c 1
199 -6 m 0
 160 -6 143 23 143 50 c 0
 143 77 160 105 199 105 c 0
 238 105 255 77 255 50 c 0
 255 22 238 -6 199 -6 c 0
EndSplineSet
EndChar

StartChar: quotedbl
Encoding: 34 34 307
Width: 312
VWidth: 0
Flags: W
HStem: 488 229<75 116 207 249>
VStem: 75 41<488 582.294> 207 42<488 582.294>
LayerCount: 2
UndoRedoHistory
Layer: 0
Undoes
EndUndoes
Redoes
EndRedoes
EndUndoRedoHistory
UndoRedoHistory
Layer: 1
Undoes
EndUndoes
Redoes
EndRedoes
EndUndoRedoHistory
Fore
SplineSet
207 488 m 1
 190 717 l 1
 263 717 l 1
 249 488 l 1
 207 488 l 1
75 488 m 1
 58 717 l 1
 130 717 l 1
 116 488 l 1
 75 488 l 1
EndSplineSet
EndChar

StartChar: quotedblbase
Encoding: 8222 8222 308
Width: 345
VWidth: 0
Flags: W
HStem: -121 221<229 237 357 364>
VStem: 61 236
LayerCount: 2
UndoRedoHistory
Layer: 0
Undoes
EndUndoes
Redoes
EndRedoes
EndUndoRedoHistory
UndoRedoHistory
Layer: 1
Undoes
EndUndoes
Redoes
EndRedoes
EndUndoRedoHistory
Fore
SplineSet
61 -121 m 1
 101 100 l 1
 167 100 l 1
 109 -121 l 1
 61 -121 l 1
189 -121 m 1
 229 100 l 1
 297 100 l 1
 236 -121 l 1
 189 -121 l 1
EndSplineSet
EndChar

StartChar: quotedblleft
Encoding: 8220 8220 309
Width: 372
VWidth: 0
Flags: W
HStem: 498 283
VStem: 62 257
LayerCount: 2
UndoRedoHistory
Layer: 0
Undoes
EndUndoes
Redoes
EndRedoes
EndUndoRedoHistory
UndoRedoHistory
Layer: 1
Undoes
EndUndoes
Redoes
EndRedoes
EndUndoRedoHistory
Fore
SplineSet
136 530 m 1
 62 498 l 1
 115 749 l 1
 173 781 l 1
 136 530 l 1
286 530 m 1
 209 498 l 1
 264 749 l 1
 319 781 l 1
 286 530 l 1
EndSplineSet
EndChar

StartChar: quotedblright
Encoding: 8221 8221 310
Width: 333
VWidth: 0
Flags: W
HStem: 542 203<226 232 369 375>
VStem: 41 254
LayerCount: 2
UndoRedoHistory
Layer: 0
Undoes
EndUndoes
Redoes
EndRedoes
EndUndoRedoHistory
UndoRedoHistory
Layer: 1
Undoes
EndUndoes
Redoes
EndRedoes
EndUndoRedoHistory
Fore
SplineSet
41 541 m 1
 83 745 l 1
 151 745 l 1
 89 541 l 1
 41 541 l 1
184 542 m 1
 226 745 l 1
 295 745 l 1
 232 542 l 1
 184 542 l 1
EndSplineSet
EndChar

StartChar: quoteleft
Encoding: 8216 8216 311
Width: 226
VWidth: 0
Flags: W
HStem: 496 207<99 153>
VStem: 99 62<496 677.125> 99 54<521.875 703>
LayerCount: 2
UndoRedoHistory
Layer: 0
Undoes
EndUndoes
Redoes
EndRedoes
EndUndoRedoHistory
UndoRedoHistory
Layer: 1
Undoes
EndUndoes
Redoes
EndRedoes
EndUndoRedoHistory
Fore
SplineSet
99 496 m 1xc0
 99 703 l 1
 153 703 l 1xa0
 161 496 l 1
 99 496 l 1xc0
EndSplineSet
EndChar

StartChar: quoteright
Encoding: 8217 8217 312
Width: 222
VWidth: 0
Flags: W
HStem: 496 207<105 110>
VStem: 63 108
LayerCount: 2
UndoRedoHistory
Layer: 0
Undoes
EndUndoes
Redoes
EndRedoes
EndUndoRedoHistory
UndoRedoHistory
Layer: 1
Undoes
EndUndoes
Redoes
EndRedoes
EndUndoRedoHistory
Fore
SplineSet
63 496 m 1
 105 703 l 1
 171 703 l 1
 110 496 l 1
 63 496 l 1
EndSplineSet
EndChar

StartChar: quotesinglbase
Encoding: 8218 8218 313
Width: 212
VWidth: 0
Flags: W
HStem: -121 221<89 96>
VStem: 47 109
LayerCount: 2
UndoRedoHistory
Layer: 0
Undoes
EndUndoes
Redoes
EndRedoes
EndUndoRedoHistory
UndoRedoHistory
Layer: 1
Undoes
EndUndoes
Redoes
EndRedoes
EndUndoRedoHistory
Fore
SplineSet
47 -121 m 1
 89 100 l 1
 156 100 l 1
 96 -121 l 1
 47 -121 l 1
EndSplineSet
EndChar

StartChar: quotesingle
Encoding: 39 39 314
Width: 166
VWidth: 0
Flags: W
HStem: 464 238<61 109>
VStem: 52 66<516.889 702> 61 48<464 649.111>
LayerCount: 2
UndoRedoHistory
Layer: 0
Undoes
EndUndoes
Redoes
EndRedoes
EndUndoRedoHistory
UndoRedoHistory
Layer: 1
Undoes
EndUndoes
Redoes
EndRedoes
EndUndoRedoHistory
Fore
SplineSet
61 464 m 1xa0
 52 702 l 1
 118 702 l 1xc0
 109 464 l 1
 61 464 l 1xa0
EndSplineSet
EndChar

StartChar: r
Encoding: 114 114 315
Width: 395
VWidth: 0
Flags: W
HStem: 0 21G<85 166> 457 65<245.105 358>
VStem: 85 81<0 377.058> 85 65<435.333 517>
LayerCount: 2
UndoRedoHistory
Layer: 0
Undoes
EndUndoes
Redoes
EndRedoes
EndUndoRedoHistory
UndoRedoHistory
Layer: 1
Undoes
EndUndoes
Redoes
EndRedoes
EndUndoRedoHistory
Fore
SplineSet
85 0 m 1xe0
 85 517 l 1
 150 517 l 1xd0
 162 377 l 1
 143 380 l 1
 183 485 257 522 322 522 c 0
 337 522 350 522 361 520 c 1
 358 453 l 1
 346 455 333 457 322 457 c 0
 232 457 166 382 166 292 c 2
 166 0 l 1
 85 0 l 1xe0
EndSplineSet
EndChar

StartChar: radical
Encoding: 8730 8730 317
Width: 605
VWidth: 0
Flags: W
LayerCount: 2
UndoRedoHistory
Layer: 0
Undoes
EndUndoes
Redoes
EndRedoes
EndUndoRedoHistory
UndoRedoHistory
Layer: 1
Undoes
EndUndoes
Redoes
EndRedoes
EndUndoRedoHistory
Fore
SplineSet
292 -79 m 1
 133 353 l 1
 61 338 l 1
 53 396 l 1
 177 423 l 1
 292 109 l 1
 320 21 l 1
 384 287 448 550 513 816 c 1
 567 816 l 1
 357 -79 l 1
 292 -79 l 1
EndSplineSet
EndChar

StartChar: registered
Encoding: 174 174 320
Width: 872
VWidth: 0
Flags: W
HStem: -15 43<321.95 550.313> 359 50<344 464.731> 557 49<344 535.49> 699 43<321.95 550.313>
VStem: 56 53<234.928 490.979> 288 56<143 359 409 557> 551 54<425.028 540.38> 764 52<235.129 490.979>
LayerCount: 2
UndoRedoHistory
Layer: 0
Undoes
EndUndoes
Redoes
EndRedoes
EndUndoRedoHistory
UndoRedoHistory
Layer: 1
Undoes
EndUndoes
Redoes
EndRedoes
EndUndoRedoHistory
Fore
SplineSet
288 143 m 1
 288 606 l 1
 447 606 l 2
 564 606 605 569 605 486 c 0
 605 418 575 374 509 367 c 1
 517 356 622 143 622 143 c 1
 560 143 l 1
 560 143 458 354 453 359 c 1
 344 359 l 1
 344 143 l 1
 288 143 l 1
344 409 m 1
 458 409 l 2
 529 409 551 430 551 484 c 0
 551 547 521 557 439 557 c 2
 344 557 l 1
 344 409 l 1
436 28 m 0
 603 28 764 145 764 363 c 0
 764 581 603 699 436 699 c 0
 269 699 109 581 109 363 c 0
 109 144 269 28 436 28 c 0
436 -15 m 0
 247 -15 56 114 56 363 c 0
 56 612 247 742 436 742 c 0
 626 742 816 612 816 363 c 0
 816 114 626 -15 436 -15 c 0
EndSplineSet
EndChar

StartChar: rho
Encoding: 961 961 321
Width: 610
VWidth: 0
Flags: W
HStem: -11 60<224.737 387.667> 466 61<224.9 389.417>
VStem: 67 79<-30.3594 74 449.5 517> 470 81<141.799 372.201>
LayerCount: 2
UndoRedoHistory
Layer: 0
Undoes
EndUndoes
Redoes
EndRedoes
EndUndoRedoHistory
UndoRedoHistory
Layer: 1
Undoes
EndUndoes
Redoes
EndRedoes
EndUndoRedoHistory
Fore
SplineSet
67 -227 m 1
 67 517 l 1
 142 517 l 1
 150 427 l 1
 178 492 245 527 317 527 c 0
 465 527 551 415 551 255 c 0
 551 101 455 -11 320 -11 c 0
 249 -11 180 24 146 74 c 1
 148 38 149 3 149 -32 c 2
 149 -222 l 1
 67 -227 l 1
308 49 m 0
 415 49 470 133 470 258 c 0
 470 380 418 466 309 466 c 0
 194 466 149 387 149 267 c 0
 149 132 187 49 308 49 c 0
EndSplineSet
EndChar

StartChar: ring
Encoding: 730 730 322
Width: 294
VWidth: 0
Flags: W
HStem: 600 36<111.073 183.302> 733 38<110.738 183.649>
VStem: 58 43<643.946 725.547> 194 43<644.26 725.236>
LayerCount: 2
UndoRedoHistory
Layer: 0
Undoes
EndUndoes
Redoes
EndRedoes
EndUndoRedoHistory
UndoRedoHistory
Layer: 1
Undoes
EndUndoes
Redoes
EndRedoes
EndUndoRedoHistory
Fore
SplineSet
147 636 m 0
 174 636 194 658 194 685 c 0
 194 711 174 733 147 733 c 0
 120 733 101 711 101 685 c 0
 101 658 120 636 147 636 c 0
147 600 m 0
 95 600 58 638 58 686 c 0
 58 734 95 771 147 771 c 0
 199 771 237 734 237 686 c 0
 237 638 199 600 147 600 c 0
EndSplineSet
EndChar

StartChar: s
Encoding: 115 115 323
Width: 469
VWidth: 0
Flags: W
HStem: -9 60<118.466 321.242> 467 60<166.646 360.702>
VStem: 67 71<337.428 438.853> 347 70<77.0442 194.278>
LayerCount: 2
UndoRedoHistory
Layer: 0
Undoes
EndUndoes
Redoes
EndRedoes
EndUndoRedoHistory
UndoRedoHistory
Layer: 1
Undoes
EndUndoes
Redoes
EndRedoes
EndUndoRedoHistory
Fore
SplineSet
237 -9 m 0
 158 -9 91 17 73 26 c 1
 94 82 l 1
 119 72 172 51 238 51 c 0
 312 51 346 79 347 132 c 0
 348 183 331 207 245 232 c 2
 192 248 l 2
 96 276 67 322 67 385 c 0
 67 467 134 527 245 527 c 0
 307 527 349 518 394 497 c 1
 374 440 l 1
 344 453 308 467 253 467 c 0
 177 467 138 435 138 393 c 0
 138 347 156 327 225 306 c 2
 273 292 l 2
 386 258 417 214 417 136 c 0
 417 41 350 -9 237 -9 c 0
EndSplineSet
EndChar

StartChar: section
Encoding: 167 167 329
Width: 483
VWidth: 0
Flags: W
HStem: -9 42<120.721 321.094> 712 42<171.242 374.418>
VStem: 75 50<338.924 454.409> 80 52<567.012 678.522> 367 50<73.9841 191.045 293.458 420.388>
LayerCount: 2
UndoRedoHistory
Layer: 0
Undoes
EndUndoes
Redoes
EndRedoes
EndUndoRedoHistory
UndoRedoHistory
Layer: 1
Undoes
EndUndoes
Redoes
EndRedoes
EndUndoRedoHistory
Fore
SplineSet
417 132 m 0xd8
 417 33 328 -9 229 -9 c 0
 177 -9 123 2 78 23 c 1
 94 66 l 1
 133 45 185 33 232 33 c 0
 304 33 367 62 367 136 c 0
 367 190 332 213 235 246 c 0
 137 280 75 309 75 387 c 0xe8
 75 444 109 481 155 505 c 1
 105 533 80 565 80 622 c 0
 80 714 167 754 263 754 c 0
 310 754 360 744 402 726 c 1
 387 686 l 1
 353 702 307 712 264 712 c 0
 195 712 132 688 132 626 c 0
 132 556 184 542 275 505 c 1
 378 464 421 441 421 364 c 0
 421 307 401 271 346 248 c 1
 390 223 417 185 417 132 c 0xd8
307 267 m 1
 338 284 371 301 371 370 c 0
 371 419 323 439 257 465 c 1
 192 490 l 1
 160 478 125 440 125 389 c 0
 125 333 171 321 249 290 c 2
 307 267 l 1
EndSplineSet
EndChar

StartChar: semicolon
Encoding: 59 59 330
Width: 256
VWidth: 0
Flags: W
HStem: 417 100<89 178>
VStem: 89 89<417 517>
LayerCount: 2
UndoRedoHistory
Layer: 0
Undoes
EndUndoes
Redoes
EndRedoes
EndUndoRedoHistory
UndoRedoHistory
Layer: 1
Undoes
EndUndoes
Redoes
EndRedoes
EndUndoRedoHistory
Fore
SplineSet
89 417 m 1
 89 517 l 1
 178 517 l 1
 178 417 l 1
 89 417 l 1
74 -146 m 1
 101 87 l 1
 180 87 l 1
 121 -146 l 1
 74 -146 l 1
EndSplineSet
EndChar

StartChar: seven
Encoding: 55 55 331
Width: 586
VWidth: 0
Flags: W
HStem: 0 21G<176 264.74> 638 65<102 422>
LayerCount: 2
UndoRedoHistory
Layer: 0
Undoes
EndUndoes
Redoes
EndRedoes
EndUndoRedoHistory
UndoRedoHistory
Layer: 1
Undoes
EndUndoes
Redoes
EndRedoes
EndUndoRedoHistory
Fore
SplineSet
176 0 m 1
 422 638 l 1
 102 638 l 1
 93 703 l 1
 507 703 l 1
 507 646 l 1
 257 0 l 1
 176 0 l 1
EndSplineSet
EndChar

StartChar: six
Encoding: 54 54 332
Width: 586
VWidth: 0
Flags: W
HStem: -9 63<222.563 384.641> 356 63<231.157 392.086>
VStem: 77 77<122.349 307.822> 456 78<127.301 290.247>
LayerCount: 2
UndoRedoHistory
Layer: 0
Undoes
EndUndoes
Redoes
EndRedoes
EndUndoRedoHistory
UndoRedoHistory
Layer: 1
Undoes
EndUndoes
Redoes
EndRedoes
EndUndoRedoHistory
Fore
SplineSet
305 -9 m 0
 158 -9 77 95 77 211 c 0
 77 315 120 380 184 472 c 2
 344 703 l 1
 437 703 l 1
 271 464 l 1
 229 402 152 303 152 303 c 1
 139 315 l 1
 145 324 205 419 320 419 c 0
 433 419 534 335 534 209 c 0
 534 86 445 -9 305 -9 c 0
303 54 m 0
 402 54 456 126 456 209 c 0
 456 295 402 356 306 356 c 0
 243 356 154 322 154 206 c 0
 154 124 204 54 303 54 c 0
EndSplineSet
EndChar

StartChar: slash
Encoding: 47 47 333
Width: 469
VWidth: 0
Flags: W
LayerCount: 2
UndoRedoHistory
Layer: 0
Undoes
EndUndoes
Redoes
EndRedoes
EndUndoRedoHistory
UndoRedoHistory
Layer: 1
Undoes
EndUndoes
Redoes
EndRedoes
EndUndoRedoHistory
Fore
SplineSet
49 -99 m 1
 375 688 l 1
 435 688 l 1
 106 -99 l 1
 49 -99 l 1
EndSplineSet
EndChar

StartChar: sterling
Encoding: 163 163 335
Width: 557
VWidth: 0
Flags: W
HStem: -2 69<215 510> -2 60<61 132.875> 323 59<55 144 215 412> 650 63<271.216 431.552>
VStem: 144 71<67 323 382 585.559>
LayerCount: 2
UndoRedoHistory
Layer: 0
Undoes
EndUndoes
Redoes
EndRedoes
EndUndoRedoHistory
UndoRedoHistory
Layer: 1
Undoes
EndUndoes
Redoes
EndRedoes
EndUndoRedoHistory
Fore
SplineSet
61 -2 m 1x78
 55 58 l 1x78
 144 66 l 1
 144 323 l 1
 55 323 l 1
 55 382 l 1
 144 382 l 1
 144 434 l 2
 144 578 171 713 343 713 c 0
 413 713 468 686 510 651 c 1
 477 600 l 1
 435 632 393 650 343 650 c 0
 245 650 215 577 215 468 c 2
 215 382 l 1
 412 382 l 1
 412 323 l 1
 215 323 l 1
 215 67 l 1
 517 67 l 1
 510 -2 l 1xb8
 61 -2 l 1x78
EndSplineSet
EndChar

StartChar: summation
Encoding: 8721 8721 336
Width: 614
VWidth: 0
Flags: W
HStem: -170 72<135 574> 661 68<146 556>
LayerCount: 2
UndoRedoHistory
Layer: 0
Undoes
EndUndoes
Redoes
EndRedoes
EndUndoRedoHistory
UndoRedoHistory
Layer: 1
Undoes
EndUndoes
Redoes
EndRedoes
EndUndoRedoHistory
Fore
SplineSet
47 -170 m 1
 47 -127 l 1
 344 283 l 1
 58 684 l 1
 58 729 l 1
 556 729 l 1
 556 661 l 1
 146 661 l 1
 437 287 l 1
 135 -98 l 1
 574 -98 l 1
 574 -170 l 1
 47 -170 l 1
EndSplineSet
EndChar

StartChar: t
Encoding: 116 116 337
Width: 398
VWidth: 0
Flags: W
HStem: -6 58<218.102 353.972> 467 50<41 131 195 348>
VStem: 114 81<75.1387 467> 130 65<576.067 640>
LayerCount: 2
UndoRedoHistory
Layer: 0
Undoes
EndUndoes
Redoes
EndRedoes
EndUndoRedoHistory
UndoRedoHistory
Layer: 1
Undoes
EndUndoes
Redoes
EndRedoes
EndUndoRedoHistory
Fore
SplineSet
265 -6 m 0xe0
 169 -6 114 43 114 155 c 2
 114 485 l 1xe0
 131 467 l 1
 39 467 l 1
 41 512 l 1
 136 519 l 1
 115 503 l 1
 130 640 l 5
 195 648 l 1
 195 498 l 1
 178 517 l 1
 348 517 l 1
 348 467 l 1
 178 467 l 1
 195 484 l 1xd0
 195 155 l 2
 195 72 229 52 280 52 c 0
 312 52 354 58 354 58 c 1
 354 4 l 1
 354 4 320 -6 265 -6 c 0xe0
EndSplineSet
EndChar

StartChar: tbar
Encoding: 359 359 338
Width: 425
VWidth: 0
Flags: W
HStem: -9 65<233.591 359.237> 304 59<65 139 219 318> 466 56<66 139 219 357>
VStem: 139 80<71.5176 304 363 466 522 561.333> 160 59<600.667 640>
LayerCount: 2
UndoRedoHistory
Layer: 0
Undoes
EndUndoes
Redoes
EndRedoes
EndUndoRedoHistory
UndoRedoHistory
Layer: 1
Undoes
EndUndoes
Redoes
EndRedoes
EndUndoRedoHistory
Fore
SplineSet
276 -9 m 0xf0
 149 -9 139 52 139 211 c 2
 139 304 l 1
 65 304 l 1
 65 363 l 1
 139 363 l 1
 139 466 l 1
 60 466 l 1
 66 522 l 1
 139 522 l 1xf0
 160 640 l 1
 219 644 l 1xe8
 219 522 l 1
 357 522 l 1
 357 466 l 1
 219 466 l 1
 219 363 l 1
 318 363 l 1
 318 304 l 1
 219 304 l 1
 219 174 l 2
 219 76 230 56 294 56 c 0
 303 56 322 59 359 61 c 1
 366 -3 l 1
 306 -8 292 -9 276 -9 c 0xf0
EndSplineSet
EndChar

StartChar: three
Encoding: 51 51 341
Width: 586
VWidth: 0
Flags: W
HStem: -10 66<159.729 377.419> 338 66<200 352.121> 648 64<158.6 365.61>
VStem: 423 78<460.361 597.893> 439 80<113.544 271.748>
LayerCount: 2
UndoRedoHistory
Layer: 0
Undoes
EndUndoes
Redoes
EndRedoes
EndUndoRedoHistory
UndoRedoHistory
Layer: 1
Undoes
EndUndoes
Redoes
EndRedoes
EndUndoRedoHistory
Fore
SplineSet
280 -10 m 0xe8
 192 -10 122 20 84 44 c 1
 111 101 l 1
 148 78 209 56 275 56 c 0
 374 56 439 97 439 190 c 0xe8
 439 315 343 336 221 338 c 1
 200 338 l 1
 200 404 l 1
 221 404 l 1
 321 407 423 423 423 531 c 0
 423 609 358 648 275 648 c 0
 216 648 153 630 106 601 c 1
 81 659 l 1
 138 694 204 712 278 712 c 0
 400 712 501 648 501 536 c 0xf0
 501 442 451 394 369 373 c 1
 458 355 519 293 519 190 c 0
 519 64 424 -10 280 -10 c 0xe8
EndSplineSet
EndChar

StartChar: threequarters
Encoding: 190 190 342
Width: 788
VWidth: 0
Flags: W
HStem: 95 50<524 636 698 753> 300 55<87.2649 217.698> 493 55<104 208.8> 665 55<85.9733 213.575>
VStem: 225 64<564.981 654.633> 234 64<371.3 471.501> 636 62<3 95 145 321>
LayerCount: 2
UndoRedoHistory
Layer: 0
Undoes
EndUndoes
Redoes
EndRedoes
EndUndoRedoHistory
UndoRedoHistory
Layer: 1
Undoes
EndUndoes
Redoes
EndRedoes
EndUndoRedoHistory
Fore
SplineSet
171 300 m 0xf6
 131 300 72 313 43 343 c 1
 67 390 l 1
 91 369 135 355 165 355 c 0
 204 355 234 378 234 425 c 0xf6
 234 470 194 493 140 493 c 2
 104 493 l 1
 104 548 l 1
 139 548 l 2
 188 548 225 567 225 607 c 0
 225 646 200 665 166 665 c 0
 133 665 89 651 69 631 c 1
 42 674 l 1
 69 703 126 720 168 720 c 0
 229 720 289 683 289 608 c 0xfa
 289 578 271 537 219 524 c 1
 270 509 298 470 298 423 c 0
 298 346 242 300 171 300 c 0xf6
636 3 m 1
 636 95 l 1
 452 95 l 1
 452 138 l 1
 631 413 l 1
 698 413 l 1
 698 145 l 1
 753 145 l 1
 757 95 l 1
 697 95 l 1
 697 3 l 1
 636 3 l 1
172 3 m 1
 615 722 l 1
 680 722 l 1
 237 3 l 1
 172 3 l 1
524 145 m 1
 636 145 l 1
 636 321 l 1
 524 145 l 1
EndSplineSet
EndChar

StartChar: tilde
Encoding: 732 732 343
Width: 426
VWidth: 0
Flags: W
HStem: 615 55<217.145 302.978> 662 50<110.168 198.361>
VStem: 63 41<615 658.422> 308 42<673.27 712>
LayerCount: 2
UndoRedoHistory
Layer: 0
Undoes
EndUndoes
Redoes
EndRedoes
EndUndoRedoHistory
UndoRedoHistory
Layer: 1
Undoes
EndUndoes
Redoes
EndRedoes
EndUndoRedoHistory
Fore
SplineSet
104 615 m 1xb0
 63 615 l 1xb0
 63 682 94 712 140 712 c 0x70
 197 712 248 670 278 670 c 0xb0
 293 670 304 680 308 712 c 1
 350 712 l 1x70
 350 645 321 615 281 615 c 0xb0
 230 615 172 662 137 662 c 0x70
 120 662 108 649 104 615 c 1xb0
EndSplineSet
EndChar

StartChar: trademark
Encoding: 8482 8482 344
Width: 864
VWidth: 0
Flags: W
HStem: 667 41<42 165 211 339>
VStem: 165 46<284 667> 405 45<284 655> 763 46<284 654>
LayerCount: 2
UndoRedoHistory
Layer: 0
Undoes
EndUndoes
Redoes
EndRedoes
EndUndoRedoHistory
UndoRedoHistory
Layer: 1
Undoes
EndUndoes
Redoes
EndRedoes
EndUndoRedoHistory
Fore
SplineSet
405 284 m 1
 405 708 l 1
 472 708 l 1
 606 380 l 1
 747 708 l 1
 809 708 l 1
 809 284 l 1
 763 284 l 1
 763 654 l 1
 621 322 l 1
 583 322 l 1
 450 655 l 1
 450 284 l 1
 405 284 l 1
165 284 m 1
 165 667 l 1
 42 667 l 1
 42 708 l 1
 339 708 l 1
 339 667 l 1
 211 667 l 1
 211 284 l 1
 165 284 l 1
EndSplineSet
EndChar

StartChar: two
Encoding: 50 50 345
Width: 586
VWidth: 0
Flags: W
HStem: 0 63<135 494> 644 68<159.048 359.885>
VStem: 416 80<424.327 589.958>
LayerCount: 2
UndoRedoHistory
Layer: 0
Undoes
EndUndoes
Redoes
EndRedoes
EndUndoRedoHistory
UndoRedoHistory
Layer: 1
Undoes
EndUndoes
Redoes
EndRedoes
EndUndoRedoHistory
Fore
SplineSet
79 0 m 1
 67 64 l 1
 319 331 l 2
 379 393 416 433 416 513 c 0
 416 621 330 644 271 644 c 0
 211 644 148 623 102 595 c 1
 78 656 l 1
 122 686 199 712 276 712 c 0
 360 712 496 670 496 521 c 0
 496 421 462 374 371 279 c 2
 135 35 l 1
 125 63 l 1
 499 63 l 1
 494 0 l 1
 79 0 l 1
EndSplineSet
EndChar

StartChar: u
Encoding: 117 117 346
Width: 581
VWidth: 0
Flags: W
HStem: -10 61<206.466 375.515>
VStem: 79 81<100.642 517> 421 81<100.642 517>
LayerCount: 2
UndoRedoHistory
Layer: 0
Undoes
EndUndoes
Redoes
EndRedoes
EndUndoRedoHistory
Back
SplineSet
302.24609375 -10.25390625 m 6
 292.48046875 -10.25390625 l 4
 283.203125 -10.25390625 l 6
 144.04296875 -10.25390625 79.1015625 58.59375 79.1015625 201.171875 c 6
 79.1015625 517.08984375 l 5
 160.15625 517.08984375 l 5
 160.15625 192.3828125 l 6
 159.66796875 105.46875 190.91796875 51.26953125 292.48046875 51.26953125 c 4
 394.04296875 51.26953125 425.29296875 105.46875 424.8046875 192.3828125 c 6
 424.8046875 517.08984375 l 5
 505.859375 517.08984375 l 5
 505.859375 201.171875 l 6
 505.859375 58.59375 441.40625 -10.25390625 302.24609375 -10.25390625 c 6
EndSplineSet
UndoRedoHistory
Layer: 1
Undoes
EndUndoes
Redoes
EndRedoes
EndUndoRedoHistory
Fore
SplineSet
291 -10 m 3
 147 -10 79 53 79 201 c 2
 79 517 l 1
 160 517 l 1
 160 192 l 2
 160 105 191 51 291 51 c 3
 391 51 421 105 421 192 c 6
 421 517 l 5
 502 517 l 5
 502 201 l 6
 502 53 436 -10 291 -10 c 3
EndSplineSet
EndChar

StartChar: underscore
Encoding: 95 95 355
Width: 516
VWidth: 0
Flags: W
HStem: -127 58<41 479>
LayerCount: 2
UndoRedoHistory
Layer: 0
Undoes
EndUndoes
Redoes
EndRedoes
EndUndoRedoHistory
UndoRedoHistory
Layer: 1
Undoes
EndUndoes
Redoes
EndRedoes
EndUndoRedoHistory
Fore
SplineSet
41 -127 m 1
 41 -69 l 1
 479 -69 l 1
 479 -127 l 1
 41 -127 l 1
EndSplineSet
EndChar

StartChar: uni00AD
Encoding: 173 173 358
Width: 467
VWidth: 0
Flags: W
HStem: 100 65<56 418>
LayerCount: 2
UndoRedoHistory
Layer: 0
Undoes
EndUndoes
Redoes
EndRedoes
EndUndoRedoHistory
UndoRedoHistory
Layer: 1
Undoes
EndUndoes
Redoes
EndRedoes
EndUndoRedoHistory
Fore
SplineSet
56 100 m 1
 56 165 l 1
 418 165 l 1
 418 100 l 1
 56 100 l 1
EndSplineSet
EndChar

StartChar: uni00B2
Encoding: 178 178 359
Width: 356
VWidth: 0
Flags: W
HStem: 317 47<122 304> 687 47<113.446 236.547>
VStem: 254 55<555.089 669.158>
LayerCount: 2
UndoRedoHistory
Layer: 0
Undoes
EndUndoes
Redoes
EndRedoes
EndUndoRedoHistory
UndoRedoHistory
Layer: 1
Undoes
EndUndoes
Redoes
EndRedoes
EndUndoRedoHistory
Fore
SplineSet
304 317 m 1
 52 317 l 1
 52 361 l 1
 169 479 254 552 254 612 c 0
 254 664 222 687 184 687 c 0
 144 687 104 669 73 627 c 1
 39 656 l 1
 64 703 123 734 178 734 c 0
 254 734 309 695 309 617 c 0
 309 525 226 459 122 364 c 1
 304 364 l 1
 304 317 l 1
EndSplineSet
EndChar

StartChar: uni00B3
Encoding: 179 179 360
Width: 390
VWidth: 0
Flags: W
HStem: 296 55<119.884 252.198> 491 55<138 241.75> 666 54<121.294 247.301>
VStem: 259 63<562.896 654.679> 269 63<367.778 469>
LayerCount: 2
UndoRedoHistory
Layer: 0
Undoes
EndUndoes
Redoes
EndRedoes
EndUndoRedoHistory
UndoRedoHistory
Layer: 1
Undoes
EndUndoes
Redoes
EndRedoes
EndUndoRedoHistory
Fore
SplineSet
205 296 m 0xe8
 165 296 107 309 78 339 c 1
 101 386 l 1
 125 364 170 351 200 351 c 0
 239 351 269 374 269 422 c 0xe8
 269 468 228 491 174 491 c 2
 138 491 l 1
 138 546 l 1
 173 546 l 2
 222 546 259 566 259 606 c 0
 259 646 234 666 200 666 c 0
 167 666 123 651 103 631 c 1
 78 674 l 1
 105 703 160 720 202 720 c 0
 264 720 322 683 322 607 c 0xf0
 322 569 300 532 251 521 c 1
 303 505 332 468 332 420 c 0
 332 343 276 296 205 296 c 0xe8
EndSplineSet
EndChar

StartChar: uni00B9
Encoding: 185 185 362
Width: 391
VWidth: 0
Flags: W
HStem: 322 60<96 182 258 339>
VStem: 182 76<382 638>
LayerCount: 2
UndoRedoHistory
Layer: 0
Undoes
EndUndoes
Redoes
EndRedoes
EndUndoRedoHistory
UndoRedoHistory
Layer: 1
Undoes
EndUndoes
Redoes
EndRedoes
EndUndoRedoHistory
Fore
SplineSet
96 322 m 1
 96 382 l 1
 182 382 l 1
 182 638 l 1
 164 627 113 607 94 603 c 1
 94 668 l 1
 111 672 181 704 194 717 c 1
 258 717 l 1
 258 382 l 1
 339 382 l 1
 339 322 l 1
 96 322 l 1
EndSplineSet
EndChar

StartChar: uni0237
Encoding: 567 567 448
Width: 222
VWidth: 0
Flags: W
HStem: -222 68<-24 59.618>
VStem: 66 88<-144.042 524>
LayerCount: 2
UndoRedoHistory
Layer: 0
Undoes
EndUndoes
Redoes
EndRedoes
EndUndoRedoHistory
UndoRedoHistory
Layer: 1
Undoes
EndUndoes
Redoes
EndRedoes
EndUndoRedoHistory
Fore
SplineSet
-24 -222 m 1
 -40 -154 l 1
 -11 -154 l 2
 78 -154 66 -127 66 -47 c 2
 66 524 l 1
 154 524 l 1
 154 -59 l 2
 154 -182 128 -222 4 -222 c 2
 -24 -222 l 1
EndSplineSet
EndChar

StartChar: uni02BC
Encoding: 700 700 449
Width: 250
VWidth: 0
Flags: W
HStem: 532 218
VStem: 122 67<728.806 750>
LayerCount: 2
UndoRedoHistory
Layer: 0
Undoes
EndUndoes
Redoes
EndRedoes
EndUndoRedoHistory
UndoRedoHistory
Layer: 1
Undoes
EndUndoes
Redoes
EndRedoes
EndUndoRedoHistory
Fore
SplineSet
67 532 m 1
 122 750 l 1
 189 750 l 1
 117 532 l 1
 67 532 l 1
EndSplineSet
EndChar

StartChar: uni0307
Encoding: 775 775 450
Width: 165
VWidth: 0
Flags: W
HStem: 621 91<46 120>
VStem: 46 74<621 712>
LayerCount: 2
UndoRedoHistory
Layer: 0
Undoes
EndUndoes
Redoes
EndRedoes
EndUndoRedoHistory
UndoRedoHistory
Layer: 1
Undoes
EndUndoes
Redoes
EndRedoes
EndUndoRedoHistory
Fore
SplineSet
46 621 m 1
 46 712 l 1
 120 712 l 1
 120 621 l 1
 46 621 l 1
EndSplineSet
EndChar

StartChar: uni030F
Encoding: 783 783 451
Width: 339
VWidth: 0
Flags: W
HStem: 633 148
VStem: 53 231
LayerCount: 2
UndoRedoHistory
Layer: 0
Undoes
EndUndoes
Redoes
EndRedoes
EndUndoRedoHistory
UndoRedoHistory
Layer: 1
Undoes
EndUndoes
Redoes
EndRedoes
EndUndoRedoHistory
Fore
SplineSet
284 633 m 1
 257 633 l 1
 171 781 l 1
 231 781 l 1
 284 633 l 1
192 633 m 1
 163 633 l 1
 53 781 l 1
 118 781 l 1
 192 633 l 1
EndSplineSet
EndChar

StartChar: uni0311
Encoding: 785 785 452
Width: 334
VWidth: 0
Flags: W
HStem: 689 46<118.293 216.618>
VStem: 55 49<620 675.17> 232 50<620 672.562>
LayerCount: 2
UndoRedoHistory
Layer: 0
Undoes
EndUndoes
Redoes
EndRedoes
EndUndoRedoHistory
UndoRedoHistory
Layer: 1
Undoes
EndUndoes
Redoes
EndRedoes
EndUndoRedoHistory
Fore
SplineSet
55 620 m 1
 55 702 111 735 167 735 c 0
 223 735 282 702 282 620 c 1
 232 620 l 1
 232 667 203 689 167 689 c 0
 131 689 104 667 104 620 c 1
 55 620 l 1
EndSplineSet
EndChar

StartChar: uni031B
Encoding: 795 795 453
Width: 234
VWidth: 0
Flags: W
HStem: 78 42<38 96.6248>
VStem: 114 52<136.596 240.386>
LayerCount: 2
UndoRedoHistory
Layer: 0
Undoes
EndUndoes
Redoes
EndRedoes
EndUndoRedoHistory
UndoRedoHistory
Layer: 1
Undoes
EndUndoes
Redoes
EndRedoes
EndUndoRedoHistory
Fore
SplineSet
107 241 m 1
 153 241 l 1
 160 225 166 201 166 177 c 0
 166 130 145 78 67 78 c 0
 58 78 48 80 38 81 c 1
 38 120 l 1
 41 120 45 120 48 120 c 0
 101 120 114 164 114 199 c 0
 114 215 111 231 107 241 c 1
EndSplineSet
EndChar

StartChar: uni0326
Encoding: 806 806 454
Width: 145
VWidth: 0
Flags: W
HStem: -324 228
VStem: 25 90
LayerCount: 2
UndoRedoHistory
Layer: 0
Undoes
EndUndoes
Redoes
EndRedoes
EndUndoRedoHistory
UndoRedoHistory
Layer: 1
Undoes
EndUndoes
Redoes
EndRedoes
EndUndoRedoHistory
Fore
SplineSet
25 -324 m 1
 64 -96 l 1
 115 -96 l 1
 57 -324 l 1
 25 -324 l 1
EndSplineSet
EndChar

StartChar: uni040A
Encoding: 1034 1034 462
Width: 1041
VWidth: 0
Flags: W
HStem: 0 393<609 930> 62 269<582 861>
VStem: 101 86<0 331 393 701> 523 86<393 701> 609 301<101 297>
LayerCount: 2
UndoRedoHistory
Layer: 0
Undoes
EndUndoes
Redoes
EndRedoes
EndUndoRedoHistory
UndoRedoHistory
Layer: 1
Undoes
EndUndoes
Redoes
EndRedoes
EndUndoRedoHistory
Fore
SplineSet
523 0 m 1xb0
 523 355 l 1
 556 331 l 1
 156 331 l 1x70
 187 355 l 1
 187 0 l 1
 101 0 l 1
 101 701 l 1
 187 701 l 1
 187 370 l 1
 156 393 l 1
 555 393 l 1
 523 370 l 1
 523 701 l 1
 609 701 l 1xb0
 609 369 l 1xa8
 582 393 l 1
 751 393 l 2
 932 393 993 316 993 199 c 0
 993 79 930 0 752 0 c 2
 523 0 l 1xb0
609 26 m 1x68
 609 358 l 1
 582 331 l 1
 748 331 l 2
 867 331 910 297 910 199 c 0
 910 101 861 62 749 62 c 2
 578 62 l 1
 609 26 l 1x68
EndSplineSet
EndChar

StartChar: uni040B
Encoding: 1035 1035 463
Width: 753
VWidth: 0
Flags: W
HStem: 0 21G<247 307 613 672> 340 46<307 558.088> 665 43<28 247 307 528>
VStem: 247 60<0 340 386 665> 613 59<0 287.491>
LayerCount: 2
UndoRedoHistory
Layer: 0
Undoes
EndUndoes
Redoes
EndRedoes
EndUndoRedoHistory
UndoRedoHistory
Layer: 1
Undoes
EndUndoes
Redoes
EndRedoes
EndUndoRedoHistory
Fore
SplineSet
613 0 m 1
 613 197 l 2
 613 307 559 340 457 340 c 2
 307 340 l 1
 307 0 l 1
 247 0 l 1
 247 665 l 1
 28 665 l 1
 28 708 l 1
 528 708 l 1
 528 665 l 1
 307 665 l 1
 307 386 l 1
 456 386 l 2
 606 386 672 321 672 197 c 2
 672 0 l 1
 613 0 l 1
EndSplineSet
EndChar

StartChar: uni040F
Encoding: 1039 1039 465
Width: 743
VWidth: 0
Flags: W
HStem: 0 16<351 411>
VStem: 110 59<42 708> 351 60<-144 16> 575 59<42 708>
LayerCount: 2
UndoRedoHistory
Layer: 0
Undoes
EndUndoes
Redoes
EndRedoes
EndUndoRedoHistory
UndoRedoHistory
Layer: 1
Undoes
EndUndoes
Redoes
EndRedoes
EndUndoRedoHistory
Fore
SplineSet
634 708 m 1
 634 0 l 1
 110 0 l 1
 110 708 l 1
 169 708 l 1
 169 25 l 1
 140 42 l 1
 602 42 l 1
 575 25 l 1
 575 708 l 1
 634 708 l 1
351 -144 m 1
 351 16 l 1
 411 16 l 1
 411 -144 l 1
 351 -144 l 1
EndSplineSet
EndChar

StartChar: uni0411
Encoding: 1041 1041 467
Width: 617
VWidth: 0
Flags: W
HStem: 0 402<183 519> 65 271<152 446> 638 65<183 509>
LayerCount: 2
UndoRedoHistory
Layer: 0
Undoes
EndUndoes
Redoes
EndRedoes
EndUndoRedoHistory
UndoRedoHistory
Layer: 1
Undoes
EndUndoes
Redoes
EndRedoes
EndUndoRedoHistory
Fore
SplineSet
97 0 m 1xa0
 97 703 l 1
 509 703 l 1
 509 638 l 1
 152 638 l 1
 183 669 l 1
 183 375 l 1
 152 402 l 1
 340 402 l 2
 521 402 579 320 579 203 c 0
 579 83 519 0 341 0 c 2
 97 0 l 1xa0
183 30 m 1
 183 362 l 1
 151 336 l 1
 337 336 l 2
 453 336 493 301 493 202 c 0
 493 104 446 65 338 65 c 2
 152 65 l 1x60
 183 30 l 1
EndSplineSet
EndChar

StartChar: uni0414
Encoding: 1044 1044 468
Width: 714
VWidth: 0
Flags: W
HStem: -144 187<13 67 614 667> 0 43<67 110.45 543 562 602 614>
VStem: 13 54<-144 0> 614 53<-144 0>
LayerCount: 2
UndoRedoHistory
Layer: 0
Undoes
EndUndoes
Redoes
EndRedoes
EndUndoRedoHistory
UndoRedoHistory
Layer: 1
Undoes
EndUndoes
Redoes
EndRedoes
EndUndoRedoHistory
Fore
SplineSet
13 -144 m 1xb0
 13 43 l 1xb0
 91 43 l 1
 136 75 157 183 184 532 c 1
 197 707 l 1
 602 707 l 1
 602 43 l 1x70
 667 43 l 1
 667 -144 l 1
 614 -144 l 1xb0
 614 0 l 1
 67 0 l 1x70
 67 -144 l 1
 13 -144 l 1xb0
145 16 m 1
 207 77 220 282 240 527 c 1
 254 686 l 1
 223 664 l 1
 572 665 l 1
 542 693 l 1
 543 43 l 1
 562 43 l 1
 127 43 l 1x70
 145 16 l 1
EndSplineSet
EndChar

StartChar: uni041B
Encoding: 1051 1051 472
Width: 759
VWidth: 0
Flags: W
HStem: -11 69<-3 110.738> -0 21G<583 669>
VStem: 146 86<92.5117 638> 583 86<0 638>
LayerCount: 2
UndoRedoHistory
Layer: 0
Undoes
EndUndoes
Redoes
EndRedoes
EndUndoRedoHistory
UndoRedoHistory
Layer: 1
Undoes
EndUndoes
Redoes
EndRedoes
EndUndoRedoHistory
Fore
SplineSet
-3 -11 m 1xb0
 -3 58 l 1
 29 58 l 2xb0
 128 58 146 102 146 196 c 2
 146 701 l 1
 669 700 l 1
 669 -0 l 1
 583 -0 l 1x70
 583 662 l 1
 616 638 l 1
 202 638 l 1
 232 662 l 1
 232 208 l 2
 232 62 190 -11 35 -11 c 2
 -3 -11 l 1xb0
EndSplineSet
EndChar

StartChar: uni041F
Encoding: 1055 1055 476
Width: 733
VWidth: 0
Flags: W
HStem: 0 21G<101 187 558 644>
VStem: 101 86<0 638> 558 86<0 638>
LayerCount: 2
UndoRedoHistory
Layer: 0
Undoes
EndUndoes
Redoes
EndRedoes
EndUndoRedoHistory
UndoRedoHistory
Layer: 1
Undoes
EndUndoes
Redoes
EndRedoes
EndUndoRedoHistory
Fore
SplineSet
101 0 m 1
 101 701 l 1
 644 701 l 1
 644 0 l 1
 558 0 l 1
 558 662 l 1
 591 638 l 1
 156 638 l 1
 187 662 l 1
 187 0 l 1
 101 0 l 1
EndSplineSet
EndChar

StartChar: uni0423
Encoding: 1059 1059 480
Width: 651
VWidth: 0
Flags: W
HStem: 0 21G<204 269.502>
LayerCount: 2
UndoRedoHistory
Layer: 0
Undoes
EndUndoes
Redoes
EndRedoes
EndUndoRedoHistory
UndoRedoHistory
Layer: 1
Undoes
EndUndoes
Redoes
EndRedoes
EndUndoRedoHistory
Fore
SplineSet
204 0 m 1
 332 261 l 1
 340 222 l 1
 77 703 l 1
 133 703 l 1
 366 270 l 1
 345 285 l 1
 538 703 l 1
 594 703 l 1
 260 0 l 1
 204 0 l 1
EndSplineSet
EndChar

StartChar: uni0424
Encoding: 1060 1060 481
Width: 797
VWidth: 0
Flags: W
HStem: 0 21G<367 432> 58 68<276.724 367 432 530.425> 578 68<276.724 367 432 530.425>
VStem: 49 79<251.074 452.249> 367 65<0 58 126 578 645 709> 679 79<251.646 451.822>
LayerCount: 2
UndoRedoHistory
Layer: 0
Undoes
EndUndoes
Redoes
EndRedoes
EndUndoRedoHistory
UndoRedoHistory
Layer: 1
Undoes
EndUndoes
Redoes
EndRedoes
EndUndoRedoHistory
Fore
SplineSet
367 0 m 1
 367 58 l 1
 159 78 49 183 49 351 c 0
 49 520 159 626 367 646 c 1
 367 709 l 1
 432 709 l 1
 432 646 l 1
 638 631 758 531 758 351 c 0
 758 172 638 72 432 57 c 1
 432 0 l 1
 367 0 l 1
367 126 m 1
 367 578 l 1
 203 559 128 478 128 352 c 0
 128 226 204 145 367 126 c 1
432 125 m 1
 604 142 679 226 679 352 c 0
 679 479 604 562 432 579 c 1
 432 125 l 1
EndSplineSet
EndChar

StartChar: uni0427
Encoding: 1063 1063 483
Width: 523
VWidth: 0
Flags: W
HStem: -1 21G<426 509> 235 74<171.602 235>
VStem: 51 85<343.739 701> 426 83<-1 233 306 701>
LayerCount: 2
UndoRedoHistory
Layer: 0
Undoes
EndUndoes
Redoes
EndRedoes
EndUndoRedoHistory
UndoRedoHistory
Layer: 1
Undoes
EndUndoes
Redoes
EndRedoes
EndUndoRedoHistory
Fore
SplineSet
426 -1 m 1
 426 233 l 1
 432 235 232 235 235 235 c 1
 110 235 51 311 51 427 c 2
 51 701 l 1
 136 701 l 1
 136 445 l 2
 136 329 177 309 260 309 c 1
 257 309 430 307 426 306 c 1
 426 701 l 1
 509 701 l 1
 509 -1 l 1
 426 -1 l 1
EndSplineSet
EndChar

StartChar: uni0428
Encoding: 1064 1064 484
Width: 785
VWidth: 0
Flags: W
HStem: 0 68<155 357 431 639>
VStem: 81 74<68 703> 357 74<68 703> 639 73<68 703>
LayerCount: 2
UndoRedoHistory
Layer: 0
Undoes
EndUndoes
Redoes
EndRedoes
EndUndoRedoHistory
UndoRedoHistory
Layer: 1
Undoes
EndUndoes
Redoes
EndRedoes
EndUndoRedoHistory
Fore
SplineSet
81 0 m 1
 81 703 l 1
 155 703 l 1
 155 68 l 1
 357 68 l 1
 357 703 l 1
 431 703 l 1
 431 68 l 1
 639 68 l 1
 639 703 l 1
 712 703 l 1
 712 0 l 1
 81 0 l 1
EndSplineSet
EndChar

StartChar: uni0429
Encoding: 1065 1065 485
Width: 818
VWidth: 0
Flags: W
HStem: 0 68<170 373 447 654>
VStem: 97 73<68 703> 373 74<68 703> 654 74<76 703> 703 73<-141 0>
LayerCount: 2
UndoRedoHistory
Layer: 0
Undoes
EndUndoes
Redoes
EndRedoes
EndUndoRedoHistory
UndoRedoHistory
Layer: 1
Undoes
EndUndoes
Redoes
EndRedoes
EndUndoRedoHistory
Fore
SplineSet
703 -141 m 1xe8
 703 0 l 1xe8
 97 0 l 1
 97 703 l 1
 170 703 l 1
 170 68 l 1
 373 68 l 1
 373 703 l 1
 447 703 l 1
 447 68 l 1
 654 68 l 1
 654 703 l 1
 728 703 l 1
 728 76 l 1xf0
 776 76 l 1
 776 -141 l 1
 703 -141 l 1xe8
EndSplineSet
EndChar

StartChar: uni042A
Encoding: 1066 1066 486
Width: 637
VWidth: 0
Flags: W
HStem: 0 402<202 525> 65 272<172 452> 636 65<-7 116>
VStem: 202 297<104 300>
LayerCount: 2
UndoRedoHistory
Layer: 0
Undoes
EndUndoes
Redoes
EndRedoes
EndUndoRedoHistory
UndoRedoHistory
Layer: 1
Undoes
EndUndoes
Redoes
EndRedoes
EndUndoRedoHistory
Fore
SplineSet
116 0 m 1xb0
 116 667 l 1
 149 636 l 1
 -7 636 l 1
 -7 701 l 1
 203 701 l 1
 202 375 l 1
 172 402 l 1
 346 402 l 2
 527 402 585 320 585 203 c 0
 585 83 525 0 347 0 c 2
 116 0 l 1xb0
202 30 m 1
 202 362 l 1
 171 337 l 1
 343 337 l 2
 459 337 499 300 499 202 c 0
 499 104 452 65 344 65 c 2
 172 65 l 1x70
 202 30 l 1
EndSplineSet
EndChar

StartChar: uni042B
Encoding: 1067 1067 487
Width: 863
VWidth: 0
Flags: W
HStem: 0 400<169 530> 46 308<146 466>
VStem: 110 59<400 707> 695 59<0 708>
LayerCount: 2
UndoRedoHistory
Layer: 0
Undoes
EndUndoes
Redoes
EndRedoes
EndUndoRedoHistory
UndoRedoHistory
Layer: 1
Undoes
EndUndoes
Redoes
EndRedoes
EndUndoRedoHistory
Fore
SplineSet
695 0 m 1xb0
 695 708 l 1
 754 708 l 1
 754 0 l 1
 695 0 l 1xb0
110 0 m 1
 110 707 l 1
 169 707 l 1
 169 379 l 1
 147 400 l 1
 338 400 l 2
 530 400 571 307 571 203 c 0
 571 94 534 0 341 0 c 2
 110 0 l 1
169 20 m 1
 169 370 l 1
 146 354 l 1
 337 354 l 2
 470 354 512 312 512 201 c 0
 512 92 466 46 344 46 c 2
 146 46 l 1x70
 169 20 l 1
EndSplineSet
EndChar

StartChar: uni042C
Encoding: 1068 1068 488
Width: 623
VWidth: 0
Flags: W
HStem: 0 402<183 517> 65 272<152 443>
VStem: 97 86<402 700>
LayerCount: 2
UndoRedoHistory
Layer: 0
Undoes
EndUndoes
Redoes
EndRedoes
EndUndoRedoHistory
UndoRedoHistory
Layer: 1
Undoes
EndUndoes
Redoes
EndRedoes
EndUndoRedoHistory
Fore
SplineSet
97 0 m 1xa0
 97 700 l 1
 183 700 l 1
 183 375 l 1
 152 402 l 1
 337 402 l 2
 518 402 577 320 577 203 c 0
 577 83 517 0 339 0 c 2
 97 0 l 1xa0
183 30 m 1
 183 362 l 1
 151 337 l 1
 334 337 l 2
 450 337 490 300 490 202 c 0
 490 104 443 65 335 65 c 2
 152 65 l 1x60
 183 30 l 1
EndSplineSet
EndChar

StartChar: uni0431
Encoding: 1073 1073 490
Width: 525
VWidth: 0
Flags: W
HStem: -10 45<201.107 362.046> 364 36<210.907 356.908> 553 38<303.746 435>
VStem: 427 41<107.237 291.887>
LayerCount: 2
UndoRedoHistory
Layer: 0
Undoes
EndUndoes
Redoes
EndRedoes
EndUndoRedoHistory
UndoRedoHistory
Layer: 1
Undoes
EndUndoes
Redoes
EndRedoes
EndUndoRedoHistory
Fore
SplineSet
276 -10 m 0
 30 -10 57 259 57 254 c 1
 57 447 139 574 436 591 c 1
 435 553 l 1
 304 545 151 526 112 334 c 1
 183 368 204 400 296 400 c 0
 414 400 468 280 468 205 c 0
 468 95 398 -10 276 -10 c 0
274 35 m 0
 393 35 427 95 427 212 c 0
 427 292 374 364 296 364 c 0
 271 364 193 357 121 287 c 1
 96 94 201 35 274 35 c 0
EndSplineSet
EndChar

StartChar: uni0432
Encoding: 1074 1074 491
Width: 547
VWidth: 0
Flags: W
HStem: 0 42<154 403.396> 247 44<154 398.226> 474 41<154 390.589>
VStem: 94 60<42 247 291 474> 422 58<314.629 447.007> 439 59<73.8973 220.722>
LayerCount: 2
UndoRedoHistory
Layer: 0
Undoes
EndUndoes
Redoes
EndRedoes
EndUndoRedoHistory
UndoRedoHistory
Layer: 1
Undoes
EndUndoes
Redoes
EndRedoes
EndUndoRedoHistory
Fore
SplineSet
94 0 m 1xf4
 94 515 l 1
 312 515 l 2
 446 515 480 445 480 385 c 0xf8
 480 325 449 290 398 274 c 1
 479 252 498 190 498 147 c 0
 498 85 471 0 312 0 c 2
 94 0 l 1xf4
154 42 m 1
 309 42 l 2
 423 42 439 89 439 147 c 0xf4
 439 192 439 247 333 247 c 2
 154 247 l 1
 154 42 l 1
154 291 m 1
 331 291 l 2
 411 291 422 340 422 383 c 0xf8
 422 436 399 474 312 474 c 2
 154 474 l 1
 154 291 l 1
EndSplineSet
EndChar

StartChar: uni0433
Encoding: 1075 1075 492
Width: 446
VWidth: 0
Flags: W
HStem: 0 21G<94 154> 469 46<154 419>
VStem: 94 60<0 469>
LayerCount: 2
UndoRedoHistory
Layer: 0
Undoes
EndUndoes
Redoes
EndRedoes
EndUndoRedoHistory
UndoRedoHistory
Layer: 1
Undoes
EndUndoes
Redoes
EndRedoes
EndUndoRedoHistory
Fore
SplineSet
94 0 m 1
 94 515 l 1
 419 515 l 1
 419 469 l 1
 154 469 l 1
 154 0 l 1
 94 0 l 1
EndSplineSet
EndChar

StartChar: uni0434
Encoding: 1076 1076 493
Width: 605
VWidth: 0
Flags: W
HStem: 0 37<72 109.871 145 448> 482 34<261 448>
VStem: 30 45<-134 0> 448 65<37 482> 492 50<-134 0>
LayerCount: 2
UndoRedoHistory
Layer: 0
Undoes
EndUndoes
Redoes
EndRedoes
EndUndoRedoHistory
UndoRedoHistory
Layer: 1
Undoes
EndUndoes
Redoes
EndRedoes
EndUndoRedoHistory
Fore
SplineSet
30 -134 m 1xe8
 30 37 l 1
 80 37 l 1
 120 49 130 86 148 136 c 1
 217 516 l 1
 513 516 l 1
 513 37 l 1xf0
 542 37 l 1
 542 -134 l 1
 492 -134 l 1
 498 0 l 1
 72 0 l 1
 75 -134 l 1
 30 -134 l 1xe8
145 36 m 1
 448 36 l 1
 448 482 l 1
 261 482 l 1
 261 495 212 182 213 192 c 1
 195 107 166 39 145 36 c 1
EndSplineSet
EndChar

StartChar: uni0436
Encoding: 1078 1078 495
Width: 750
VWidth: 0
Flags: W
HStem: 0 21G<30 107.453 337 401 632.391 709>
VStem: 337 64<0 256 269 516>
LayerCount: 2
UndoRedoHistory
Layer: 0
Undoes
EndUndoes
Redoes
EndRedoes
EndUndoRedoHistory
UndoRedoHistory
Layer: 1
Undoes
EndUndoes
Redoes
EndRedoes
EndUndoRedoHistory
Fore
SplineSet
30 0 m 1
 294 267 l 1
 31 516 l 1
 83 516 l 1
 337 269 l 1
 337 516 l 1
 401 516 l 1
 401 269 l 1
 657 516 l 1
 708 516 l 1
 445 267 l 1
 709 0 l 1
 652 0 l 1
 401 256 l 1
 401 0 l 1
 337 0 l 1
 337 256 l 1
 88 0 l 1
 30 0 l 1
EndSplineSet
EndChar

StartChar: uni0438
Encoding: 1080 1080 496
Width: 568
VWidth: 0
Flags: W
HStem: 0 21G<84 146.899 427 477>
VStem: 84 49<77 515> 427 50<0 396 472 515>
LayerCount: 2
UndoRedoHistory
Layer: 0
Undoes
EndUndoes
Redoes
EndRedoes
EndUndoRedoHistory
UndoRedoHistory
Layer: 1
Undoes
EndUndoes
Redoes
EndRedoes
EndUndoRedoHistory
Fore
SplineSet
84 0 m 1
 84 515 l 1
 133 515 l 1
 133 77 l 1
 427 472 l 1
 427 515 l 1
 477 515 l 1
 477 0 l 1
 427 0 l 1
 427 396 l 1
 132 0 l 1
 84 0 l 1
EndSplineSet
EndChar

StartChar: uni043A
Encoding: 1082 1082 498
Width: 585
VWidth: 0
Flags: W
HStem: 0 21G<102 165 407.127 500>
VStem: 102 63<0 252 267 515>
LayerCount: 2
UndoRedoHistory
Layer: 0
Undoes
EndUndoes
Redoes
EndRedoes
EndUndoRedoHistory
UndoRedoHistory
Layer: 1
Undoes
EndUndoes
Redoes
EndRedoes
EndUndoRedoHistory
Fore
SplineSet
102 0 m 1
 102 515 l 1
 165 515 l 1
 165 267 l 1
 393 515 l 1
 472 516 l 1
 232 258 l 1
 500 0 l 1
 428 0 l 1
 165 252 l 1
 165 0 l 1
 102 0 l 1
EndSplineSet
EndChar

StartChar: uni043B
Encoding: 1083 1083 499
Width: 595
VWidth: 0
Flags: W
HStem: -3 48<21 93.9837> 470 45<239 438>
VStem: 438 63<0 470>
LayerCount: 2
UndoRedoHistory
Layer: 0
Undoes
EndUndoes
Redoes
EndRedoes
EndUndoRedoHistory
UndoRedoHistory
Layer: 1
Undoes
EndUndoes
Redoes
EndRedoes
EndUndoRedoHistory
Fore
SplineSet
21 -3 m 1
 12 45 l 1
 98 45 130 66 153 239 c 1
 185 515 l 1
 501 515 l 1
 501 -0 l 1
 438 -0 l 1
 438 470 l 1
 239 470 l 1
 209 233 l 1
 185 31 142 -3 21 -3 c 1
EndSplineSet
EndChar

StartChar: uni043C
Encoding: 1084 1084 500
Width: 663
VWidth: 0
Flags: W
HStem: 0 21G<94 149 515 570>
VStem: 94 55<0 400> 515 55<0 400>
LayerCount: 2
UndoRedoHistory
Layer: 0
Undoes
EndUndoes
Redoes
EndRedoes
EndUndoRedoHistory
UndoRedoHistory
Layer: 1
Undoes
EndUndoes
Redoes
EndRedoes
EndUndoRedoHistory
Fore
SplineSet
94 0 m 1
 94 515 l 1
 147 515 l 1
 333 142 l 1
 518 515 l 1
 570 515 l 1
 570 0 l 1
 515 0 l 1
 515 400 l 1
 355 79 l 1
 311 79 l 1
 149 400 l 1
 149 0 l 1
 94 0 l 1
EndSplineSet
EndChar

StartChar: uni043D
Encoding: 1085 1085 501
Width: 608
VWidth: 0
Flags: W
HStem: 0 21G<94 154 455 515> 250 47<154 455>
VStem: 94 60<0 250 297 515> 455 60<0 250 297 515>
LayerCount: 2
UndoRedoHistory
Layer: 0
Undoes
EndUndoes
Redoes
EndRedoes
EndUndoRedoHistory
UndoRedoHistory
Layer: 1
Undoes
EndUndoes
Redoes
EndRedoes
EndUndoRedoHistory
Fore
SplineSet
94 0 m 1
 94 515 l 1
 154 515 l 1
 154 297 l 1
 455 297 l 1
 455 515 l 1
 515 515 l 1
 515 0 l 1
 455 0 l 1
 455 250 l 1
 154 250 l 1
 154 0 l 1
 94 0 l 1
EndSplineSet
EndChar

StartChar: uni043F
Encoding: 1087 1087 503
Width: 594
VWidth: 0
Flags: W
HStem: 0 21G<94 154 441 501> 470 45<154 441>
VStem: 94 60<0 470> 441 60<0 470>
LayerCount: 2
UndoRedoHistory
Layer: 0
Undoes
EndUndoes
Redoes
EndRedoes
EndUndoRedoHistory
UndoRedoHistory
Layer: 1
Undoes
EndUndoes
Redoes
EndRedoes
EndUndoRedoHistory
Fore
SplineSet
94 0 m 1
 94 515 l 1
 501 515 l 1
 501 0 l 1
 441 0 l 1
 441 470 l 1
 154 470 l 1
 154 0 l 1
 94 0 l 1
EndSplineSet
EndChar

StartChar: uni0442
Encoding: 1090 1090 506
Width: 500
VWidth: 0
Flags: W
HStem: 0 21G<212 279> 466 49<66 212 279 427>
VStem: 212 67<0 466>
LayerCount: 2
UndoRedoHistory
Layer: 0
Undoes
EndUndoes
Redoes
EndRedoes
EndUndoRedoHistory
UndoRedoHistory
Layer: 1
Undoes
EndUndoes
Redoes
EndRedoes
EndUndoRedoHistory
Fore
SplineSet
212 0 m 1
 212 466 l 1
 66 466 l 1
 66 515 l 1
 427 515 l 1
 427 466 l 1
 279 466 l 1
 279 0 l 1
 212 0 l 1
EndSplineSet
EndChar

StartChar: uni0443
Encoding: 1091 1091 507
Width: 545
VWidth: 0
Flags: W
HStem: -148 49<123 262.154>
VStem: 284 16<41 68.5625> 328 11<45 85.0909>
LayerCount: 2
UndoRedoHistory
Layer: 0
Undoes
EndUndoes
Redoes
EndRedoes
EndUndoRedoHistory
UndoRedoHistory
Layer: 1
Undoes
EndUndoes
Redoes
EndRedoes
EndUndoRedoHistory
Fore
SplineSet
123 -148 m 1
 123 -99 l 1
 268 -99 286 -90 285 14 c 2
 284 104 l 1
 300 41 l 1
 58 515 l 1
 118 515 l 1
 321 112 l 1
 297 112 l 1
 462 515 l 1
 521 515 l 1
 328 45 l 1
 339 108 l 1
 340 13 l 2
 341 -120 323 -148 123 -148 c 1
EndSplineSet
EndChar

StartChar: uni0444
Encoding: 1092 1092 508
Width: 719
VWidth: 0
Flags: W
HStem: 21 44<154.952 313.563 366.459 524.344> 454 44<145.342 309.53 371.295 533.991>
VStem: 31 57<149.021 383.35> 315 50<-186 39 77.2934 438.4 474 637> 592 57<151.268 381.465>
CounterMasks: 1 38
LayerCount: 2
UndoRedoHistory
Layer: 0
Undoes
EndUndoes
Redoes
EndRedoes
EndUndoRedoHistory
UndoRedoHistory
Layer: 1
Undoes
EndUndoes
Redoes
EndRedoes
EndUndoRedoHistory
Fore
SplineSet
315 -186 m 1
 315 39 l 1
 285 25 244 21 209 21 c 0
 110 21 31 121 31 264 c 0
 31 407 101 498 204 498 c 0
 236 498 285 488 315 474 c 1
 315 637 l 1
 365 637 l 1
 365 474 l 1
 396 488 440 498 475 498 c 0
 578 498 649 408 649 265 c 0
 649 123 570 21 470 21 c 0
 435 21 394 25 365 39 c 1
 365 -186 l 1
 315 -186 l 1
212 65 m 0
 244 65 284 69 315 85 c 1
 315 432 l 1
 279 451 237 454 204 454 c 0
 126 454 88 369 88 265 c 0
 88 162 134 65 212 65 c 0
468 65 m 0
 544 65 592 161 592 264 c 0
 592 368 553 453 476 453 c 0
 441 453 400 448 365 429 c 1
 365 87 l 1
 398 68 435 65 468 65 c 0
EndSplineSet
EndChar

StartChar: uni0446
Encoding: 1094 1094 510
Width: 584
VWidth: 0
Flags: W
HStem: 0 38<164 435>
VStem: 102 62<38 516> 435 63<66 516> 465 79<-134 -16.75>
LayerCount: 2
UndoRedoHistory
Layer: 0
Undoes
EndUndoes
Redoes
EndRedoes
EndUndoRedoHistory
UndoRedoHistory
Layer: 1
Undoes
EndUndoes
Redoes
EndRedoes
EndUndoRedoHistory
Fore
SplineSet
465 -134 m 1xd0
 473 0 l 1
 102 0 l 1
 102 516 l 1
 164 516 l 1
 164 38 l 1
 435 38 l 1
 435 516 l 1
 498 516 l 1
 498 66 l 1xe0
 544 66 l 1
 544 -134 l 1
 465 -134 l 1xd0
EndSplineSet
EndChar

StartChar: uni0447
Encoding: 1095 1095 511
Width: 516
VWidth: 0
Flags: W
HStem: 0 21G<355 437> 188 62<180.423 354.788>
VStem: 66 82<287.141 517> 355 82<0 201 261.709 517>
LayerCount: 2
UndoRedoHistory
Layer: 0
Undoes
EndUndoes
Redoes
EndRedoes
EndUndoRedoHistory
UndoRedoHistory
Layer: 1
Undoes
EndUndoes
Redoes
EndRedoes
EndUndoRedoHistory
Fore
SplineSet
355 0 m 1
 355 201 l 1
 347 193 273 188 254 188 c 0
 139 188 66 222 66 389 c 2
 66 517 l 1
 148 517 l 1
 148 395 l 2
 148 274 183 250 259 250 c 0
 281 250 354 263 355 271 c 1
 355 517 l 1
 437 517 l 1
 437 0 l 1
 355 0 l 1
EndSplineSet
EndChar

StartChar: uni0448
Encoding: 1096 1096 512
Width: 728
VWidth: 0
Flags: W
HStem: 0 37<201 359 410 567>
VStem: 141 60<37 515> 359 51<37 515> 567 61<37 515>
LayerCount: 2
UndoRedoHistory
Layer: 0
Undoes
EndUndoes
Redoes
EndRedoes
EndUndoRedoHistory
UndoRedoHistory
Layer: 1
Undoes
EndUndoes
Redoes
EndRedoes
EndUndoRedoHistory
Fore
SplineSet
141 0 m 1
 141 515 l 1
 201 515 l 1
 201 37 l 1
 359 37 l 1
 359 515 l 1
 410 515 l 1
 410 37 l 1
 567 37 l 1
 567 515 l 1
 628 515 l 1
 628 0 l 1
 141 0 l 1
EndSplineSet
EndChar

StartChar: uni0449
Encoding: 1097 1097 513
Width: 706
VWidth: 0
Flags: W
HStem: 0 38<170 340 409 549>
VStem: 103 67<38 516> 340 69<38 516> 549 69<65 516> 587 78<-137 0>
LayerCount: 2
UndoRedoHistory
Layer: 0
Undoes
EndUndoes
Redoes
EndRedoes
EndUndoRedoHistory
UndoRedoHistory
Layer: 1
Undoes
EndUndoes
Redoes
EndRedoes
EndUndoRedoHistory
Fore
SplineSet
587 -137 m 1xe8
 593 0 l 1
 103 0 l 1
 103 516 l 1
 170 516 l 1
 170 38 l 1
 340 38 l 1
 340 516 l 1
 409 516 l 1
 409 38 l 1
 549 38 l 1
 549 516 l 1
 618 516 l 1
 618 65 l 1xf0
 665 65 l 1
 665 -137 l 1
 587 -137 l 1xe8
EndSplineSet
EndChar

StartChar: uni044A
Encoding: 1098 1098 514
Width: 501
VWidth: 0
Flags: W
HStem: 0 42<174 335.942> 282 46<174 337.713> 478 37<40 111>
VStem: 111 63<42 282 328 478> 376 71<83.3486 244.08>
LayerCount: 2
UndoRedoHistory
Layer: 0
Undoes
EndUndoes
Redoes
EndRedoes
EndUndoRedoHistory
UndoRedoHistory
Layer: 1
Undoes
EndUndoes
Redoes
EndRedoes
EndUndoRedoHistory
Fore
SplineSet
111 0 m 1
 111 478 l 1
 40 478 l 1
 40 515 l 1
 174 515 l 1
 174 328 l 1
 272 328 l 2
 419 328 447 239 447 169 c 0
 447 94 414 0 273 0 c 2
 111 0 l 1
174 42 m 1
 280 42 l 2
 356 42 376 118 376 170 c 0
 376 225 350 282 277 282 c 2
 174 282 l 1
 174 42 l 1
EndSplineSet
EndChar

StartChar: uni044B
Encoding: 1099 1099 515
Width: 735
VWidth: 0
Flags: W
HStem: 0 42<153 353.652> 281 45<154 358.352>
VStem: 94 59<42 281 326 515> 400 57<85.3293 241.954> 582 60<0 515>
LayerCount: 2
UndoRedoHistory
Layer: 0
Undoes
EndUndoes
Redoes
EndRedoes
EndUndoRedoHistory
UndoRedoHistory
Layer: 1
Undoes
EndUndoes
Redoes
EndRedoes
EndUndoRedoHistory
Fore
SplineSet
94 0 m 1
 94 515 l 1
 154 515 l 1
 154 326 l 1
 277 326 l 2
 425 326 457 237 457 168 c 0
 457 93 424 0 278 0 c 2
 94 0 l 1
153 42 m 1
 280 42 l 2
 356 42 400 81 400 169 c 0
 400 245 356 281 282 281 c 2
 153 281 l 1
 153 42 l 1
582 0 m 1
 582 515 l 1
 642 515 l 1
 642 0 l 1
 582 0 l 1
EndSplineSet
EndChar

StartChar: uni044C
Encoding: 1100 1100 516
Width: 497
VWidth: 0
Flags: W
HStem: 0 42<153 353.652> 281 45<154 358.352>
VStem: 94 59<42 281 326 515> 400 57<85.3293 241.954>
LayerCount: 2
UndoRedoHistory
Layer: 0
Undoes
EndUndoes
Redoes
EndRedoes
EndUndoRedoHistory
UndoRedoHistory
Layer: 1
Undoes
EndUndoes
Redoes
EndRedoes
EndUndoRedoHistory
Fore
SplineSet
94 0 m 1
 94 515 l 1
 154 515 l 1
 154 326 l 1
 277 326 l 2
 425 326 457 237 457 168 c 0
 457 93 424 0 278 0 c 2
 94 0 l 1
153 42 m 1
 280 42 l 2
 356 42 400 81 400 169 c 0
 400 245 356 281 282 281 c 2
 153 281 l 1
 153 42 l 1
EndSplineSet
EndChar

StartChar: uni044D
Encoding: 1101 1101 517
Width: 583
VWidth: 0
Flags: W
HStem: -14 45<137.996 334.566> 231 50<229 445> 487 44<140.096 336.195>
VStem: 445 50<149.408 231 281 371.281>
LayerCount: 2
UndoRedoHistory
Layer: 0
Undoes
EndUndoes
Redoes
EndRedoes
EndUndoRedoHistory
UndoRedoHistory
Layer: 1
Undoes
EndUndoes
Redoes
EndRedoes
EndUndoRedoHistory
Fore
SplineSet
244 -14 m 0
 177 -14 112 4 87 32 c 1
 103 70 l 1
 156 40 200 31 240 31 c 0
 359 31 437 118 445 231 c 1
 229 231 l 1
 229 281 l 1
 445 281 l 1
 437 397 374 487 238 487 c 0
 181 487 140 468 101 445 c 1
 83 482 l 1
 119 514 188 531 237 531 c 0
 441 531 495 377 495 250 c 0
 495 136 426 -14 244 -14 c 0
EndSplineSet
EndChar

StartChar: uni044E
Encoding: 1102 1102 518
Width: 742
VWidth: 0
Flags: W
HStem: -14 45<366.015 525.454> 0 21G<84 127> 236 41<127 230> 486 45<365.393 527.638>
VStem: 84 43<0 236 277 515> 230 52<130.998 236 277 386.309> 603 50<123.624 393.429>
LayerCount: 2
UndoRedoHistory
Layer: 0
Undoes
EndUndoes
Redoes
EndRedoes
EndUndoRedoHistory
UndoRedoHistory
Layer: 1
Undoes
EndUndoes
Redoes
EndRedoes
EndUndoRedoHistory
Fore
SplineSet
444 -14 m 0xbe
 293 -14 232 93 230 236 c 1
 127 236 l 1
 127 0 l 1
 84 0 l 1x7e
 84 515 l 1
 127 515 l 1
 127 277 l 1
 230 277 l 1
 233 418 295 531 447 531 c 0
 612 531 653 407 653 258 c 0
 653 115 606 -14 444 -14 c 0xbe
447 31 m 0xbe
 571 31 603 142 603 256 c 0
 603 373 575 486 444 486 c 0
 318 486 282 367 282 254 c 0
 282 143 320 31 447 31 c 0xbe
EndSplineSet
EndChar

StartChar: uni044F
Encoding: 1103 1103 519
Width: 554
VWidth: 0
Flags: W
HStem: 0 21G<88 160.005 401 461> 211 43<246 401> 473 42<155.5 401>
VStem: 61 57<298.078 438.043> 401 60<0 211 254 473>
LayerCount: 2
UndoRedoHistory
Layer: 0
Undoes
EndUndoes
Redoes
EndRedoes
EndUndoRedoHistory
UndoRedoHistory
Layer: 1
Undoes
EndUndoes
Redoes
EndRedoes
EndUndoRedoHistory
Fore
SplineSet
88 0 m 1
 186 214 l 1
 91 237 61 313 61 367 c 0
 61 436 107 515 239 515 c 2
 461 515 l 1
 461 0 l 1
 401 0 l 1
 401 211 l 1
 246 211 l 1
 151 0 l 1
 88 0 l 1
249 254 m 2
 401 254 l 1
 401 473 l 1
 239 473 l 2
 136 473 118 416 118 364 c 0
 118 298 164 254 249 254 c 2
EndSplineSet
EndChar

StartChar: uni0452
Encoding: 1106 1106 522
Width: 651
VWidth: 0
Flags: W
HStem: -137 63<388 476.961> 0 21G<144 217> 354 66<304.978 457.08> 523 50<98 144 217 420>
VStem: 144 73<0 274.688 328 523 573 715> 497 74<-58.2891 308.592>
LayerCount: 2
UndoRedoHistory
Layer: 0
Undoes
EndUndoes
Redoes
EndRedoes
EndUndoRedoHistory
UndoRedoHistory
Layer: 1
Undoes
EndUndoes
Redoes
EndRedoes
EndUndoRedoHistory
Fore
SplineSet
388 -137 m 1
 382 -74 l 1
 400 -74 l 2
 486 -74 497 -58 497 46 c 2
 497 173 l 2
 497 292 481 354 386 354 c 0
 300 354 231 286 217 234 c 1
 217 0 l 1
 144 0 l 1
 144 523 l 1
 98 523 l 1
 98 573 l 1
 144 573 l 1
 144 715 l 1
 217 715 l 1
 217 573 l 1
 420 573 l 1
 420 523 l 1
 217 523 l 1
 217 328 l 1
 261 386 319 420 394 420 c 0
 516 420 571 345 571 208 c 2
 571 72 l 2
 571 -74 561 -137 420 -137 c 2
 388 -137 l 1
EndSplineSet
EndChar

StartChar: uni045A
Encoding: 1114 1114 528
Width: 770
VWidth: 0
Flags: W
HStem: 0 59<476 654.848> 244 60<159 397 476 660.924>
VStem: 80 79<0 244 304 518> 397 79<59 244 304 518> 686 67<90.0609 219.054>
LayerCount: 2
UndoRedoHistory
Layer: 0
Undoes
EndUndoes
Redoes
EndRedoes
EndUndoRedoHistory
UndoRedoHistory
Layer: 1
Undoes
EndUndoes
Redoes
EndRedoes
EndUndoRedoHistory
Fore
SplineSet
80 0 m 1
 80 518 l 1
 159 518 l 1
 159 304 l 1
 397 304 l 1
 397 518 l 1
 476 518 l 1
 476 304 l 1
 591 304 l 2
 706 304 753 237 753 152 c 0
 753 71 702 0 590 0 c 2
 397 0 l 1
 397 244 l 1
 159 244 l 1
 159 0 l 1
 80 0 l 1
476 59 m 1
 588 59 l 2
 660 59 686 104 686 154 c 0
 686 204 661 248 588 248 c 2
 476 248 l 1
 476 59 l 1
EndSplineSet
EndChar

StartChar: uni045F
Encoding: 1119 1119 532
Width: 525
VWidth: 0
Flags: W
HStem: 0 56<141 251 309 392>
VStem: 72 69<56 517> 253 54<-127 0> 392 68<56 517>
LayerCount: 2
UndoRedoHistory
Layer: 0
Undoes
EndUndoes
Redoes
EndRedoes
EndUndoRedoHistory
UndoRedoHistory
Layer: 1
Undoes
EndUndoes
Redoes
EndRedoes
EndUndoRedoHistory
Fore
SplineSet
253 -127 m 1
 251 0 l 1
 72 0 l 1
 72 517 l 1
 141 517 l 1
 141 56 l 1
 392 56 l 1
 392 517 l 1
 460 517 l 1
 460 0 l 1
 309 0 l 1
 307 -127 l 1
 253 -127 l 1
EndSplineSet
EndChar

StartChar: uni2074
Encoding: 8308 8308 551
Width: 358
VWidth: 0
Flags: W
HStem: 416 48<104 214 258 302>
VStem: 214 44<317 416 464 648>
LayerCount: 2
UndoRedoHistory
Layer: 0
Undoes
EndUndoes
Redoes
EndRedoes
EndUndoRedoHistory
UndoRedoHistory
Layer: 1
Undoes
EndUndoes
Redoes
EndRedoes
EndUndoRedoHistory
Fore
SplineSet
214 317 m 1
 214 416 l 1
 59 416 l 1
 59 459 l 1
 208 724 l 1
 258 724 l 1
 258 464 l 1
 302 464 l 1
 306 416 l 1
 256 416 l 1
 257 317 l 1
 214 317 l 1
104 464 m 1
 214 464 l 1
 214 648 l 1
 104 464 l 1
EndSplineSet
EndChar

StartChar: uni2206
Encoding: 8710 8710 552
Width: 663
VWidth: 0
Flags: W
HStem: 0 83<147 517>
LayerCount: 2
UndoRedoHistory
Layer: 0
Undoes
EndUndoes
Redoes
EndRedoes
EndUndoRedoHistory
UndoRedoHistory
Layer: 1
Undoes
EndUndoes
Redoes
EndRedoes
EndUndoRedoHistory
Fore
SplineSet
52 0 m 1
 52 41 l 1
 287 732 l 1
 378 732 l 1
 613 41 l 1
 613 0 l 1
 52 0 l 1
147 83 m 1
 517 83 l 1
 347 568 l 1
 330 624 l 1
 314 568 l 1
 147 83 l 1
EndSplineSet
EndChar

StartChar: v
Encoding: 118 118 561
Width: 527
VWidth: 0
Flags: W
HStem: 0 21G<217.263 314.544>
LayerCount: 2
UndoRedoHistory
Layer: 0
Undoes
EndUndoes
Redoes
EndRedoes
EndUndoRedoHistory
UndoRedoHistory
Layer: 1
Undoes
EndUndoes
Redoes
EndRedoes
EndUndoRedoHistory
Fore
SplineSet
225 0 m 1
 25 517 l 1
 108 517 l 1
 216 221 l 1
 276 50 l 1
 256 50 l 1
 315 222 l 1
 420 517 l 1
 502 517 l 1
 307 0 l 1
 225 0 l 1
EndSplineSet
EndChar

StartChar: w
Encoding: 119 119 562
Width: 766
VWidth: 0
Flags: W
HStem: 0 21G<166.391 255.076 521.586 605.377>
VStem: 27 77<492.041 517> 665 74<490.964 517>
LayerCount: 2
UndoRedoHistory
Layer: 0
Undoes
EndUndoes
Redoes
EndRedoes
EndUndoRedoHistory
UndoRedoHistory
Layer: 1
Undoes
EndUndoes
Redoes
EndRedoes
EndUndoRedoHistory
Fore
SplineSet
172 0 m 1
 27 517 l 1
 104 517 l 1
 220 59 l 1
 204 59 l 1
 341 517 l 1
 427 517 l 1
 572 59 l 1
 555 59 l 1
 665 517 l 1
 739 517 l 1
 600 0 l 1
 528 0 l 1
 376 474 l 1
 393 474 l 1
 249 0 l 1
 172 0 l 1
EndSplineSet
EndChar

StartChar: x
Encoding: 120 120 567
Width: 522
VWidth: 0
Flags: W
HStem: 0 21G<21 125.679 396.416 501>
LayerCount: 2
UndoRedoHistory
Layer: 0
Undoes
EndUndoes
Redoes
EndRedoes
EndUndoRedoHistory
UndoRedoHistory
Layer: 1
Undoes
EndUndoes
Redoes
EndRedoes
EndUndoRedoHistory
Fore
SplineSet
21 0 m 1
 226 278 l 1
 256 300 l 1
 409 517 l 1
 499 517 l 1
 302 243 l 1
 271 218 l 1
 111 0 l 1
 21 0 l 1
411 0 m 1
 34 517 l 1
 124 517 l 1
 501 0 l 1
 411 0 l 1
EndSplineSet
EndChar

StartChar: y
Encoding: 121 121 568
Width: 532
VWidth: 0
Flags: W
LayerCount: 2
UndoRedoHistory
Layer: 0
Undoes
EndUndoes
Redoes
EndRedoes
EndUndoRedoHistory
UndoRedoHistory
Layer: 1
Undoes
EndUndoes
Redoes
EndRedoes
EndUndoRedoHistory
Fore
SplineSet
237 -194 m 1
 167 -179 l 1
 254 43 l 1
 254 -18 l 1
 36 517 l 1
 119 517 l 1
 290 78 l 1
 271 78 l 1
 427 517 l 1
 509 517 l 1
 237 -194 l 1
EndSplineSet
EndChar

StartChar: yen
Encoding: 165 165 572
Width: 603
VWidth: 0
Flags: W
HStem: 0 21G<270 355> 139 50<113 270 355 508> 281 51<114 245 379 507>
VStem: 270 85<0 139 189 281>
LayerCount: 2
UndoRedoHistory
Layer: 0
Undoes
EndUndoes
Redoes
EndRedoes
EndUndoRedoHistory
UndoRedoHistory
Layer: 1
Undoes
EndUndoes
Redoes
EndRedoes
EndUndoRedoHistory
Fore
SplineSet
270 0 m 1
 270 139 l 1
 113 139 l 1
 113 189 l 1
 270 189 l 1
 270 281 l 1
 114 281 l 1
 114 332 l 1
 245 332 l 1
 29 703 l 1
 114 703 l 1
 312 353 l 1
 498 703 l 1
 583 703 l 1
 379 332 l 1
 507 332 l 1
 507 281 l 1
 355 281 l 1
 355 189 l 1
 508 189 l 1
 508 139 l 1
 355 139 l 1
 355 0 l 1
 270 0 l 1
EndSplineSet
EndChar

StartChar: z
Encoding: 122 122 574
Width: 458
VWidth: 0
Flags: W
HStem: 0 58<125 409> 460 57<68 339>
LayerCount: 2
UndoRedoHistory
Layer: 0
Undoes
EndUndoes
Redoes
EndRedoes
EndUndoRedoHistory
UndoRedoHistory
Layer: 1
Undoes
EndUndoes
Redoes
EndRedoes
EndUndoRedoHistory
Fore
SplineSet
58 0 m 1
 58 52 l 1
 339 487 l 1
 351 460 l 1
 68 460 l 1
 68 517 l 1
 405 517 l 1
 405 461 l 1
 125 28 l 1
 114 58 l 1
 409 58 l 1
 409 0 l 1
 58 0 l 1
EndSplineSet
EndChar

StartChar: zero
Encoding: 48 48 578
Width: 597
VWidth: 0
Flags: W
HStem: -14 66<235.021 376.38> 645 66<236.189 376.958>
VStem: 65 81<179.126 516.308> 461 81<172.552 526.938>
LayerCount: 2
UndoRedoHistory
Layer: 0
Undoes
EndUndoes
Redoes
EndRedoes
EndUndoRedoHistory
UndoRedoHistory
Layer: 1
Undoes
EndUndoes
Redoes
EndRedoes
EndUndoRedoHistory
Fore
SplineSet
306 52 m 0
 405 52 461 149 461 352 c 0
 461 559 405 645 306 645 c 0
 207 645 146 544 146 351 c 0
 146 148 207 52 306 52 c 0
306 -14 m 0
 139 -14 65 138 65 349 c 0
 65 571 146 711 306 711 c 0
 466 711 542 572 542 349 c 0
 542 138 473 -14 306 -14 c 0
EndSplineSet
EndChar
